JetBrainsMoro-Thin.ufo
<glyph name="numbersign" format="2">
  <advance width="600"/>
  <unicode hex="0023"/>
  <outline>
    <contour>
      <point x="92" y="0" type="line"/>
      <point x="137" y="0" type="line"/>
      <point x="181" y="230" type="line"/>
      <point x="367" y="230" type="line"/>
      <point x="323" y="0" type="line"/>
      <point x="368" y="0" type="line"/>
      <point x="412" y="230" type="line"/>
      <point x="530" y="230" type="line"/>
      <point x="530" y="270" type="line"/>
      <point x="420" y="270" type="line"/>
      <point x="456" y="460" type="line"/>
      <point x="565" y="460" type="line"/>
      <point x="565" y="500" type="line"/>
      <point x="464" y="500" type="line"/>
      <point x="508" y="730" type="line"/>
      <point x="463" y="730" type="line"/>
      <point x="419" y="500" type="line"/>
      <point x="233" y="500" type="line"/>
      <point x="277" y="730" type="line"/>
      <point x="232" y="730" type="line"/>
      <point x="188" y="500" type="line"/>
      <point x="70" y="500" type="line"/>
      <point x="70" y="460" type="line"/>
      <point x="180" y="460" type="line"/>
      <point x="144" y="270" type="line"/>
      <point x="35" y="270" type="line"/>
      <point x="35" y="230" type="line"/>
      <point x="136" y="230" type="line"/>
    </contour>
    <contour>
      <point x="189" y="270" type="line"/>
      <point x="225" y="460" type="line"/>
      <point x="411" y="460" type="line"/>
      <point x="375" y="270" type="line"/>
    </contour>
  </outline>
</glyph>
<glyph name="ampersand" format="2">
  <advance width="600"/>
  <unicode hex="0026"/>
  <outline>
    <contour>
      <point x="220" y="-10" type="curve" smooth="yes"/>
      <point x="300" y="-10"/>
      <point x="367" y="33"/>
      <point x="417" y="118" type="curve"/>
      <point x="508" y="0" type="line"/>
      <point x="561" y="0" type="line"/>
      <point x="441" y="161" type="line"/>
      <point x="547" y="360" type="line"/>
      <point x="497" y="360" type="line"/>
      <point x="411" y="201" type="line"/>
      <point x="231" y="443" type="line" smooth="yes"/>
      <point x="193" y="494"/>
      <point x="170" y="539"/>
      <point x="170" y="580" type="curve" smooth="yes"/>
      <point x="170" y="641"/>
      <point x="218" y="695"/>
      <point x="285" y="695" type="curve" smooth="yes"/>
      <point x="355" y="695"/>
      <point x="405" y="637"/>
      <point x="405" y="570" type="curve"/>
      <point x="455" y="570" type="line"/>
      <point x="455" y="667"/>
      <point x="388" y="740"/>
      <point x="285" y="740" type="curve" smooth="yes"/>
      <point x="186" y="740"/>
      <point x="120" y="670"/>
      <point x="120" y="580" type="curve" smooth="yes"/>
      <point x="120" y="531"/>
      <point x="140" y="478"/>
      <point x="193" y="411" type="curve"/>
      <point x="197" y="429" type="line"/>
      <point x="114" y="420"/>
      <point x="65" y="360"/>
      <point x="65" y="266" type="curve" smooth="yes"/>
      <point x="65" y="155" type="line" smooth="yes"/>
      <point x="65" y="52"/>
      <point x="124" y="-10"/>
    </contour>
    <contour>
      <point x="225" y="35" type="curve" smooth="yes"/>
      <point x="160" y="35"/>
      <point x="115" y="84"/>
      <point x="115" y="155" type="curve" smooth="yes"/>
      <point x="115" y="266" type="line" smooth="yes"/>
      <point x="115" y="336"/>
      <point x="153" y="382"/>
      <point x="213" y="386" type="curve"/>
      <point x="387" y="158" type="line"/>
      <point x="343" y="77"/>
      <point x="286" y="35"/>
    </contour>
  </outline>
</glyph>
<glyph name="parenright" format="2">
  <advance width="600"/>
  <unicode hex="0029"/>
  <outline>
    <contour>
      <point x="115" y="-120" type="line"/>
      <point x="290" y="-76"/>
      <point x="390" y="62"/>
      <point x="390" y="260" type="curve" smooth="yes"/>
      <point x="390" y="460" type="line" smooth="yes"/>
      <point x="390" y="658"/>
      <point x="290" y="797"/>
      <point x="115" y="840" type="curve"/>
      <point x="115" y="794" type="line"/>
      <point x="258" y="758"/>
      <point x="340" y="636"/>
      <point x="340" y="460" type="curve" smooth="yes"/>
      <point x="340" y="260" type="line" smooth="yes"/>
      <point x="340" y="84"/>
      <point x="258" y="-38"/>
      <point x="115" y="-74" type="curve"/>
    </contour>
  </outline>
</glyph>
<glyph name="comma" format="2">
  <advance width="600"/>
  <unicode hex="002C"/>
  <outline>
    <contour>
      <point x="220" y="-160" type="line"/>
      <point x="278" y="-160" type="line"/>
      <point x="349" y="151" type="line"/>
      <point x="279" y="151" type="line"/>
    </contour>
  </outline>
</glyph>
<glyph name="hyphen" format="2">
  <advance width="600"/>
  <unicode hex="002D"/>
  <outline>
    <contour>
      <point x="140" y="308" type="line"/>
      <point x="460" y="308" type="line"/>
      <point x="460" y="353" type="line"/>
      <point x="140" y="353" type="line"/>
    </contour>
  </outline>
</glyph>
<glyph name="three" format="2">
  <advance width="600"/>
  <unicode hex="0033"/>
  <outline>
    <contour>
      <point x="290" y="-10" type="curve" smooth="yes"/>
      <point x="412" y="-10"/>
      <point x="490" y="68"/>
      <point x="490" y="190" type="curve" smooth="yes"/>
      <point x="490" y="261" type="line" smooth="yes"/>
      <point x="490" y="381"/>
      <point x="412" y="456"/>
      <point x="287" y="456" type="curve"/>
      <point x="287" y="446" type="line"/>
      <point x="479" y="682" type="line"/>
      <point x="479" y="730" type="line"/>
      <point x="115" y="730" type="line"/>
      <point x="115" y="685" type="line"/>
      <point x="425" y="685" type="line"/>
      <point x="239" y="454" type="line"/>
      <point x="239" y="411" type="line"/>
      <point x="290" y="411" type="line" smooth="yes"/>
      <point x="385" y="411"/>
      <point x="440" y="356"/>
      <point x="440" y="261" type="curve" smooth="yes"/>
      <point x="440" y="190" type="line" smooth="yes"/>
      <point x="440" y="94"/>
      <point x="383" y="35"/>
      <point x="290" y="35" type="curve" smooth="yes"/>
      <point x="197" y="35"/>
      <point x="140" y="93"/>
      <point x="140" y="190" type="curve"/>
      <point x="90" y="190" type="line"/>
      <point x="90" y="68"/>
      <point x="168" y="-10"/>
    </contour>
  </outline>
</glyph>
<glyph name="six" format="2">
  <advance width="600"/>
  <unicode hex="0036"/>
  <outline>
    <contour>
      <point x="300" y="-10" type="curve" smooth="yes"/>
      <point x="432" y="-9"/>
      <point x="521" y="81"/>
      <point x="521" y="215" type="curve" smooth="yes"/>
      <point x="521" y="348"/>
      <point x="440" y="437"/>
      <point x="320" y="437" type="curve" smooth="yes"/>
      <point x="253" y="437"/>
      <point x="201" y="408"/>
      <point x="181" y="384" type="curve"/>
      <point x="177" y="387" type="line"/>
      <point x="382" y="730" type="line"/>
      <point x="326" y="730" type="line"/>
      <point x="140" y="406" type="line" smooth="yes"/>
      <point x="105" y="345"/>
      <point x="79" y="282"/>
      <point x="79" y="220" type="curve" smooth="yes"/>
      <point x="79" y="82"/>
      <point x="168" y="-10"/>
    </contour>
    <contour>
      <point x="300" y="35" type="curve" smooth="yes"/>
      <point x="195" y="35"/>
      <point x="126" y="104"/>
      <point x="129" y="215" type="curve" smooth="yes"/>
      <point x="130" y="320"/>
      <point x="199" y="395"/>
      <point x="300" y="395" type="curve" smooth="yes"/>
      <point x="402" y="395"/>
      <point x="471" y="320"/>
      <point x="471" y="215" type="curve" smooth="yes"/>
      <point x="471" y="104"/>
      <point x="402" y="35"/>
    </contour>
  </outline>
</glyph>
<glyph name="seven" format="2">
  <advance width="600"/>
  <unicode hex="0037"/>
  <outline>
    <contour>
      <point x="206" y="0" type="line"/>
      <point x="263" y="0" type="line"/>
      <point x="535" y="675" type="line"/>
      <point x="535" y="730" type="line"/>
      <point x="90" y="730" type="line"/>
      <point x="90" y="530" type="line"/>
      <point x="145" y="530" type="line"/>
      <point x="145" y="679" type="line"/>
      <point x="484" y="679" type="line"/>
    </contour>
  </outline>
</glyph>
<glyph name="eight" format="2">
  <advance width="600"/>
  <unicode hex="0038"/>
  <outline>
    <contour>
      <point x="300" y="-10" type="curve" smooth="yes"/>
      <point x="429" y="-10"/>
      <point x="515" y="61"/>
      <point x="515" y="176" type="curve" smooth="yes"/>
      <point x="515" y="261"/>
      <point x="466" y="317"/>
      <point x="353" y="374" type="curve" smooth="yes"/>
      <point x="264" y="419" type="line" smooth="yes"/>
      <point x="190" y="456"/>
      <point x="153" y="501"/>
      <point x="153" y="563" type="curve" smooth="yes"/>
      <point x="153" y="644"/>
      <point x="213" y="695"/>
      <point x="300" y="695" type="curve" smooth="yes"/>
      <point x="390" y="695"/>
      <point x="457" y="641"/>
      <point x="457" y="563" type="curve" smooth="yes"/>
      <point x="457" y="504"/>
      <point x="420" y="458"/>
      <point x="338" y="418" type="curve" smooth="yes"/>
      <point x="247" y="374" type="line" smooth="yes"/>
      <point x="135" y="320"/>
      <point x="85" y="261"/>
      <point x="85" y="176" type="curve" smooth="yes"/>
      <point x="85" y="61"/>
      <point x="171" y="-10"/>
    </contour>
    <contour>
      <point x="300" y="35" type="curve" smooth="yes"/>
      <point x="202" y="35"/>
      <point x="135" y="89"/>
      <point x="135" y="174" type="curve" smooth="yes"/>
      <point x="135" y="244"/>
      <point x="182" y="300"/>
      <point x="265" y="340" type="curve" smooth="yes"/>
      <point x="355" y="383" type="line" smooth="yes"/>
      <point x="452" y="429"/>
      <point x="507" y="492"/>
      <point x="507" y="566" type="curve" smooth="yes"/>
      <point x="507" y="664"/>
      <point x="413" y="740"/>
      <point x="300" y="740" type="curve" smooth="yes"/>
      <point x="189" y="740"/>
      <point x="103" y="666"/>
      <point x="103" y="566" type="curve" smooth="yes"/>
      <point x="103" y="490"/>
      <point x="154" y="429"/>
      <point x="246" y="384" type="curve" smooth="yes"/>
      <point x="335" y="340" type="line" smooth="yes"/>
      <point x="418" y="299"/>
      <point x="465" y="242"/>
      <point x="465" y="173" type="curve" smooth="yes"/>
      <point x="465" y="88"/>
      <point x="398" y="35"/>
    </contour>
  </outline>
</glyph>
<glyph name="semicolon" format="2">
  <advance width="600"/>
  <unicode hex="003B"/>
  <outline>
    <contour>
      <point x="295" y="420" type="curve" smooth="yes"/>
      <point x="305" y="420" type="line" smooth="yes"/>
      <point x="347" y="420"/>
      <point x="375" y="448"/>
      <point x="375" y="490" type="curve" smooth="yes"/>
      <point x="375" y="532"/>
      <point x="347" y="560"/>
      <point x="305" y="560" type="curve" smooth="yes"/>
      <point x="295" y="560" type="line" smooth="yes"/>
      <point x="252" y="560"/>
      <point x="224" y="532"/>
      <point x="224" y="490" type="curve" smooth="yes"/>
      <point x="224" y="448"/>
      <point x="252" y="420"/>
    </contour>
    <component base="comma" xOffset="-5"/>
  </outline>
</glyph>
<glyph name="D" format="2">
  <advance width="600"/>
  <unicode hex="0044"/>
  <anchor x="300" y="0" name="bottom"/>
  <anchor x="300" y="365" name="center"/>
  <anchor x="300" y="730" name="top"/>
  <outline>
    <contour>
      <point x="110" y="0" type="line"/>
      <point x="270" y="0" type="line" smooth="yes"/>
      <point x="405" y="0"/>
      <point x="495" y="88"/>
      <point x="495" y="220" type="curve" smooth="yes"/>
      <point x="495" y="510" type="line" smooth="yes"/>
      <point x="495" y="642"/>
      <point x="405" y="730"/>
      <point x="270" y="730" type="curve" smooth="yes"/>
      <point x="110" y="730" type="line"/>
    </contour>
    <contour>
      <point x="160" y="46" type="line"/>
      <point x="160" y="684" type="line"/>
      <point x="270" y="684" type="line" smooth="yes"/>
      <point x="374" y="684"/>
      <point x="445" y="614"/>
      <point x="445" y="510" type="curve" smooth="yes"/>
      <point x="445" y="220" type="line" smooth="yes"/>
      <point x="445" y="115"/>
      <point x="375" y="46"/>
      <point x="270" y="46" type="curve" smooth="yes"/>
    </contour>
  </outline>
</glyph>
<glyph name="F" format="2">
  <advance width="600"/>
  <unicode hex="0046"/>
  <anchor x="300" y="0" name="bottom"/>
  <anchor x="300" y="730" name="top"/>
  <outline>
    <contour>
      <point x="115" y="0" type="line"/>
      <point x="165" y="0" type="line"/>
      <point x="165" y="346" type="line"/>
      <point x="490" y="346" type="line"/>
      <point x="490" y="392" type="line"/>
      <point x="165" y="392" type="line"/>
      <point x="165" y="684" type="line"/>
      <point x="525" y="684" type="line"/>
      <point x="525" y="730" type="line"/>
      <point x="115" y="730" type="line"/>
    </contour>
  </outline>
</glyph>
<glyph name="H" format="2">
  <advance width="600"/>
  <unicode hex="0048"/>
  <anchor x="300" y="0" name="bottom"/>
  <anchor x="300" y="365" name="center"/>
  <anchor x="300" y="730" name="top"/>
  <anchor x="20" y="730" name="topleft"/>
  <outline>
    <contour>
      <point x="110" y="0" type="line"/>
      <point x="160" y="0" type="line"/>
      <point x="160" y="356" type="line"/>
      <point x="440" y="356" type="line"/>
      <point x="440" y="0" type="line"/>
      <point x="490" y="0" type="line"/>
      <point x="490" y="730" type="line"/>
      <point x="440" y="730" type="line"/>
      <point x="440" y="402" type="line"/>
      <point x="160" y="402" type="line"/>
      <point x="160" y="730" type="line"/>
      <point x="110" y="730" type="line"/>
    </contour>
  </outline>
</glyph>
<glyph name="I" format="2">
  <advance width="600"/>
  <unicode hex="0049"/>
  <anchor x="300" y="0" name="bottom"/>
  <anchor x="320" y="0" name="ogonek"/>
  <anchor x="300" y="730" name="top"/>
  <anchor x="20" y="730" name="topleft"/>
  <outline>
    <contour>
      <point x="120" y="0" type="line"/>
      <point x="480" y="0" type="line"/>
      <point x="480" y="46" type="line"/>
      <point x="326" y="46" type="line"/>
      <point x="326" y="684" type="line"/>
      <point x="480" y="684" type="line"/>
      <point x="480" y="730" type="line"/>
      <point x="120" y="730" type="line"/>
      <point x="120" y="684" type="line"/>
      <point x="276" y="684" type="line"/>
      <point x="276" y="46" type="line"/>
      <point x="120" y="46" type="line"/>
    </contour>
  </outline>
</glyph>
<glyph name="L" format="2">
  <advance width="600"/>
  <unicode hex="004C"/>
  <anchor x="340" y="0" name="bottom"/>
  <anchor x="300" y="365" name="center"/>
  <anchor x="166" y="730" name="top"/>
  <anchor x="580" y="730" name="topright"/>
  <outline>
    <contour>
      <point x="140" y="0" type="line"/>
      <point x="545" y="0" type="line"/>
      <point x="545" y="46" type="line"/>
      <point x="190" y="46" type="line"/>
      <point x="190" y="730" type="line"/>
      <point x="140" y="730" type="line"/>
    </contour>
  </outline>
</glyph>
<glyph name="N" format="2">
  <advance width="600"/>
  <unicode hex="004E"/>
  <anchor x="300" y="0" name="bottom"/>
  <anchor x="300" y="730" name="top"/>
  <outline>
    <contour>
      <point x="110" y="0" type="line"/>
      <point x="158" y="0" type="line"/>
      <point x="158" y="560" type="line" smooth="yes"/>
      <point x="158" y="611"/>
      <point x="157" y="656"/>
      <point x="156" y="675" type="curve"/>
      <point x="421" y="0" type="line"/>
      <point x="490" y="0" type="line"/>
      <point x="490" y="730" type="line"/>
      <point x="442" y="730" type="line"/>
      <point x="442" y="170" type="line" smooth="yes"/>
      <point x="442" y="155"/>
      <point x="444" y="95"/>
      <point x="446" y="55" type="curve"/>
      <point x="178" y="730" type="line"/>
      <point x="110" y="730" type="line"/>
    </contour>
  </outline>
</glyph>
<glyph name="W" format="2">
  <advance width="600"/>
  <unicode hex="0057"/>
  <anchor x="300" y="0" name="bottom"/>
  <anchor x="300" y="730" name="top"/>
  <outline>
    <contour>
      <point x="130" y="0" type="line"/>
      <point x="200" y="0" type="line"/>
      <point x="280" y="530" type="line" smooth="yes"/>
      <point x="287" y="582"/>
      <point x="297" y="652"/>
      <point x="303" y="690" type="curve"/>
      <point x="308" y="651"/>
      <point x="317" y="581"/>
      <point x="324" y="530" type="curve" smooth="yes"/>
      <point x="397" y="0" type="line"/>
      <point x="469" y="0" type="line"/>
      <point x="560" y="730" type="line"/>
      <point x="513" y="730" type="line"/>
      <point x="451" y="190" type="line" smooth="yes"/>
      <point x="447" y="154"/>
      <point x="436" y="80"/>
      <point x="430" y="35" type="curve"/>
      <point x="424" y="80"/>
      <point x="414" y="154"/>
      <point x="409" y="190" type="curve" smooth="yes"/>
      <point x="335" y="730" type="line"/>
      <point x="271" y="730" type="line"/>
      <point x="194" y="190" type="line" smooth="yes"/>
      <point x="189" y="154"/>
      <point x="178" y="80"/>
      <point x="172" y="35" type="curve"/>
      <point x="167" y="80"/>
      <point x="158" y="154"/>
      <point x="154" y="190" type="curve" smooth="yes"/>
      <point x="86" y="730" type="line"/>
      <point x="40" y="730" type="line"/>
    </contour>
  </outline>
</glyph>
<glyph name="X" format="2">
  <advance width="600"/>
  <unicode hex="0058"/>
  <anchor x="300" y="0" name="bottom"/>
  <anchor x="300" y="730" name="top"/>
  <outline>
    <contour>
      <point x="53" y="0" type="line"/>
      <point x="108" y="0" type="line"/>
      <point x="248" y="252" type="line" smooth="yes"/>
      <point x="260" y="273"/>
      <point x="285" y="317"/>
      <point x="301" y="345" type="curve"/>
      <point x="317" y="317"/>
      <point x="343" y="273"/>
      <point x="355" y="252" type="curve" smooth="yes"/>
      <point x="491" y="0" type="line"/>
      <point x="547" y="0" type="line"/>
      <point x="330" y="382" type="line"/>
      <point x="532" y="730" type="line"/>
      <point x="478" y="730" type="line"/>
      <point x="354" y="508" type="line" smooth="yes"/>
      <point x="341" y="485"/>
      <point x="315" y="441"/>
      <point x="300" y="415" type="curve"/>
      <point x="284" y="442"/>
      <point x="258" y="485"/>
      <point x="246" y="508" type="curve" smooth="yes"/>
      <point x="124" y="730" type="line"/>
      <point x="68" y="730" type="line"/>
      <point x="270" y="380" type="line"/>
    </contour>
  </outline>
</glyph>
<glyph name="Y" format="2">
  <advance width="600"/>
  <unicode hex="0059"/>
  <anchor x="300" y="0" name="bottom"/>
  <anchor x="300" y="730" name="top"/>
  <anchor x="20" y="730" name="topleft"/>
  <outline>
    <contour>
      <point x="275" y="0" type="line"/>
      <point x="325" y="0" type="line"/>
      <point x="325" y="280" type="line"/>
      <point x="550" y="730" type="line"/>
      <point x="498" y="730" type="line"/>
      <point x="335" y="400" type="line" smooth="yes"/>
      <point x="320" y="370"/>
      <point x="307" y="342"/>
      <point x="301" y="330" type="curve"/>
      <point x="295" y="343"/>
      <point x="281" y="371"/>
      <point x="267" y="400" type="curve" smooth="yes"/>
      <point x="102" y="730" type="line"/>
      <point x="50" y="730" type="line"/>
      <point x="275" y="280" type="line"/>
    </contour>
  </outline>
</glyph>
<glyph name="asciicircum" format="2">
  <advance width="600"/>
  <unicode hex="005E"/>
  <outline>
    <contour>
      <point x="100" y="340" type="line"/>
      <point x="158" y="340" type="line"/>
      <point x="272" y="600" type="line" smooth="yes"/>
      <point x="283" y="626"/>
      <point x="296" y="660"/>
      <point x="302" y="678" type="curve"/>
      <point x="308" y="660"/>
      <point x="321" y="626"/>
      <point x="332" y="600" type="curve" smooth="yes"/>
      <point x="443" y="340" type="line"/>
      <point x="500" y="340" type="line"/>
      <point x="329" y="730" type="line"/>
      <point x="276" y="730" type="line"/>
    </contour>
  </outline>
</glyph>
<glyph name="r" format="2">
  <advance width="600"/>
  <unicode hex="0072"/>
  <anchor x="135" y="0" name="bottom"/>
  <anchor x="320" y="550" name="top"/>
  <outline>
    <contour>
      <point x="127" y="0" type="line"/>
      <point x="177" y="0" type="line"/>
      <point x="177" y="360" type="line" smooth="yes"/>
      <point x="177" y="459"/>
      <point x="230" y="517"/>
      <point x="320" y="517" type="curve" smooth="yes"/>
      <point x="410" y="517"/>
      <point x="463" y="459"/>
      <point x="463" y="360" type="curve" smooth="yes"/>
      <point x="463" y="325" type="line"/>
      <point x="518" y="325" type="line"/>
      <point x="518" y="360" type="line" smooth="yes"/>
      <point x="518" y="483"/>
      <point x="445" y="560"/>
      <point x="328" y="560" type="curve" smooth="yes"/>
      <point x="230" y="560"/>
      <point x="167" y="494"/>
      <point x="166" y="397" type="curve"/>
      <point x="189" y="455" type="line"/>
      <point x="177" y="455" type="line"/>
      <point x="177" y="550" type="line"/>
      <point x="127" y="550" type="line"/>
    </contour>
  </outline>
</glyph>
<glyph name="w" format="2">
  <advance width="600"/>
  <unicode hex="0077"/>
  <anchor x="300" y="0" name="bottom"/>
  <anchor x="300" y="550" name="top"/>
  <outline>
    <contour>
      <point x="143" y="0" type="line"/>
      <point x="209" y="0" type="line"/>
      <point x="281" y="391" type="line" smooth="yes"/>
      <point x="288" y="427"/>
      <point x="297" y="478"/>
      <point x="300" y="507" type="curve"/>
      <point x="302" y="507" type="line"/>
      <point x="305" y="478"/>
      <point x="315" y="427"/>
      <point x="321" y="391" type="curve" smooth="yes"/>
      <point x="390" y="0" type="line"/>
      <point x="456" y="0" type="line"/>
      <point x="550" y="550" type="line"/>
      <point x="504" y="550" type="line"/>
      <point x="436" y="141" type="line" smooth="yes"/>
      <point x="431" y="111"/>
      <point x="427" y="63"/>
      <point x="425" y="35" type="curve"/>
      <point x="423" y="35" type="line"/>
      <point x="420" y="63"/>
      <point x="413" y="111"/>
      <point x="407" y="140" type="curve" smooth="yes"/>
      <point x="327" y="550" type="line"/>
      <point x="275" y="550" type="line"/>
      <point x="195" y="140" type="line" smooth="yes"/>
      <point x="189" y="111"/>
      <point x="181" y="63"/>
      <point x="179" y="35" type="curve"/>
      <point x="177" y="35" type="line"/>
      <point x="174" y="63"/>
      <point x="170" y="111"/>
      <point x="165" y="141" type="curve" smooth="yes"/>
      <point x="97" y="550" type="line"/>
      <point x="50" y="550" type="line"/>
    </contour>
  </outline>
</glyph>
<glyph name="x" format="2">
  <advance width="600"/>
  <unicode hex="0078"/>
  <anchor x="300" y="0" name="bottom"/>
  <anchor x="300" y="550" name="top"/>
  <outline>
    <contour>
      <point x="75" y="0" type="line"/>
      <point x="132" y="0" type="line"/>
      <point x="274" y="210" type="line" smooth="yes"/>
      <point x="282" y="222"/>
      <point x="294" y="239"/>
      <point x="300" y="248" type="curve"/>
      <point x="306" y="239"/>
      <point x="318" y="222"/>
      <point x="326" y="210" type="curve" smooth="yes"/>
      <point x="467" y="0" type="line"/>
      <point x="525" y="0" type="line"/>
      <point x="330" y="282" type="line"/>
      <point x="514" y="550" type="line"/>
      <point x="456" y="550" type="line"/>
      <point x="324" y="350" type="line" smooth="yes"/>
      <point x="317" y="340"/>
      <point x="307" y="324"/>
      <point x="301" y="315" type="curve"/>
      <point x="295" y="324"/>
      <point x="286" y="339"/>
      <point x="279" y="350" type="curve" smooth="yes"/>
      <point x="146" y="550" type="line"/>
      <point x="87" y="550" type="line"/>
      <point x="271" y="282" type="line"/>
    </contour>
  </outline>
</glyph>
<glyph name="y" format="2">
  <advance width="600"/>
  <unicode hex="0079"/>
  <anchor x="300" y="0" name="bottom"/>
  <anchor x="300" y="550" name="top"/>
  <outline>
    <contour>
      <point x="199" y="-180" type="line"/>
      <point x="250" y="-180" type="line"/>
      <point x="524" y="550" type="line"/>
      <point x="469" y="550" type="line"/>
      <point x="342" y="202" type="line" smooth="yes"/>
      <point x="328" y="163"/>
      <point x="314" y="121"/>
      <point x="306" y="101" type="curve"/>
      <point x="299" y="121"/>
      <point x="282" y="163"/>
      <point x="268" y="200" type="curve" smooth="yes"/>
      <point x="132" y="550" type="line"/>
      <point x="76" y="550" type="line"/>
      <point x="280" y="39" type="line"/>
    </contour>
  </outline>
</glyph>
<glyph name="braceright" format="2">
  <advance width="600"/>
  <unicode hex="007D"/>
  <outline>
    <contour>
      <point x="110" y="-110" type="line"/>
      <point x="164" y="-110" type="line" smooth="yes"/>
      <point x="260" y="-110"/>
      <point x="322" y="-55"/>
      <point x="314" y="40" type="curve" smooth="yes"/>
      <point x="297" y="237" type="line" smooth="yes"/>
      <point x="291" y="308"/>
      <point x="311" y="336"/>
      <point x="397" y="336" type="curve" smooth="yes"/>
      <point x="510" y="336" type="line"/>
      <point x="510" y="382" type="line"/>
      <point x="397" y="382" type="line" smooth="yes"/>
      <point x="315" y="382"/>
      <point x="291" y="408"/>
      <point x="297" y="482" type="curve" smooth="yes"/>
      <point x="314" y="680" type="line" smooth="yes"/>
      <point x="322" y="775"/>
      <point x="260" y="830"/>
      <point x="164" y="830" type="curve" smooth="yes"/>
      <point x="110" y="830" type="line"/>
      <point x="110" y="785" type="line"/>
      <point x="164" y="785" type="line" smooth="yes"/>
      <point x="226" y="785"/>
      <point x="270" y="745"/>
      <point x="264" y="680" type="curve" smooth="yes"/>
      <point x="247" y="482" type="line" smooth="yes"/>
      <point x="241" y="407"/>
      <point x="285" y="357"/>
      <point x="352" y="357" type="curve"/>
      <point x="352" y="364" type="line"/>
      <point x="285" y="364"/>
      <point x="240" y="313"/>
      <point x="247" y="237" type="curve" smooth="yes"/>
      <point x="264" y="40" type="line" smooth="yes"/>
      <point x="270" y="-25"/>
      <point x="226" y="-65"/>
      <point x="164" y="-65" type="curve" smooth="yes"/>
      <point x="110" y="-65" type="line"/>
    </contour>
  </outline>
</glyph>
<glyph name="cent" format="2">
  <advance width="600"/>
  <unicode hex="00A2"/>
  <anchor x="302" y="0" name="bottom"/>
  <anchor x="302" y="550" name="top"/>
  <outline>
    <contour>
      <point x="286" y="-140" type="line"/>
      <point x="326" y="-140" type="line"/>
      <point x="326" y="690" type="line"/>
      <point x="286" y="690" type="line"/>
    </contour>
    <component base="c"/>
  </outline>
</glyph>
<glyph name="currency" format="2">
  <advance width="600"/>
  <unicode hex="00A4"/>
  <outline>
    <contour>
      <point x="507" y="130" type="line"/>
      <point x="542" y="166" type="line"/>
      <point x="459" y="249" type="line"/>
      <point x="485" y="283"/>
      <point x="501" y="325"/>
      <point x="501" y="373" type="curve" smooth="yes"/>
      <point x="501" y="421"/>
      <point x="485" y="464"/>
      <point x="458" y="497" type="curve"/>
      <point x="543" y="582" type="line"/>
      <point x="509" y="616" type="line"/>
      <point x="424" y="531" type="line"/>
      <point x="390" y="556"/>
      <point x="348" y="570"/>
      <point x="301" y="570" type="curve" smooth="yes"/>
      <point x="254" y="570"/>
      <point x="211" y="555"/>
      <point x="178" y="530" type="curve"/>
      <point x="91" y="617" type="line"/>
      <point x="56" y="581" type="line"/>
      <point x="142" y="495" type="line"/>
      <point x="116" y="462"/>
      <point x="101" y="420"/>
      <point x="101" y="373" type="curve" smooth="yes"/>
      <point x="101" y="325"/>
      <point x="117" y="283"/>
      <point x="143" y="249" type="curve"/>
      <point x="58" y="165" type="line"/>
      <point x="92" y="131" type="line"/>
      <point x="178" y="216" type="line"/>
      <point x="211" y="191"/>
      <point x="254" y="176"/>
      <point x="301" y="176" type="curve" smooth="yes"/>
      <point x="347" y="176"/>
      <point x="389" y="190"/>
      <point x="423" y="214" type="curve"/>
    </contour>
    <contour>
      <point x="301" y="224" type="curve" smooth="yes"/>
      <point x="217" y="224"/>
      <point x="153" y="288"/>
      <point x="153" y="373" type="curve" smooth="yes"/>
      <point x="153" y="458"/>
      <point x="217" y="522"/>
      <point x="301" y="522" type="curve" smooth="yes"/>
      <point x="385" y="522"/>
      <point x="449" y="458"/>
      <point x="449" y="373" type="curve" smooth="yes"/>
      <point x="449" y="288"/>
      <point x="385" y="224"/>
    </contour>
  </outline>
</glyph>
<glyph name="Ccedilla" format="2">
  <advance width="600"/>
  <unicode hex="00C7"/>
  <anchor x="305" y="0" name="_bottom"/>
  <anchor x="305" y="0" name="bottom"/>
  <anchor x="305" y="730" name="top"/>
  <outline>
    <contour>
      <point x="240" y="-195" type="line"/>
      <point x="320" y="-195" type="line" smooth="yes"/>
      <point x="380" y="-195"/>
      <point x="420" y="-161"/>
      <point x="420" y="-118" type="curve" smooth="yes"/>
      <point x="420" y="-61"/>
      <point x="357" y="-37"/>
      <point x="310" y="-34" type="curve"/>
      <point x="333" y="26" type="line"/>
      <point x="291" y="26" type="line"/>
      <point x="256" y="-64" type="line"/>
      <point x="327" y="-64"/>
      <point x="374" y="-86"/>
      <point x="374" y="-118" type="curve" smooth="yes"/>
      <point x="374" y="-140"/>
      <point x="352" y="-160"/>
      <point x="320" y="-160" type="curve" smooth="yes"/>
      <point x="240" y="-160" type="line"/>
    </contour>
    <component base="C"/>
  </outline>
</glyph>
<glyph name="multiply" format="2">
  <advance width="600"/>
  <unicode hex="00D7"/>
  <outline>
    <contour>
      <point x="147" y="143" type="line"/>
      <point x="299" y="295" type="line"/>
      <point x="451" y="143" type="line"/>
      <point x="487" y="178" type="line"/>
      <point x="335" y="330" type="line"/>
      <point x="487" y="482" type="line"/>
      <point x="451" y="517" type="line"/>
      <point x="299" y="365" type="line"/>
      <point x="147" y="517" type="line"/>
      <point x="112" y="482" type="line"/>
      <point x="264" y="330" type="line"/>
      <point x="112" y="178" type="line"/>
    </contour>
  </outline>
</glyph>
<glyph name="ccedilla" format="2">
  <advance width="600"/>
  <unicode hex="00E7"/>
  <anchor x="302" y="0" name="_bottom"/>
  <anchor x="302" y="0" name="bottom"/>
  <anchor x="302" y="550" name="top"/>
  <outline>
    <contour>
      <point x="212" y="-195" type="line"/>
      <point x="292" y="-195" type="line" smooth="yes"/>
      <point x="352" y="-195"/>
      <point x="392" y="-161"/>
      <point x="392" y="-118" type="curve" smooth="yes"/>
      <point x="392" y="-61"/>
      <point x="329" y="-37"/>
      <point x="282" y="-34" type="curve"/>
      <point x="305" y="26" type="line"/>
      <point x="263" y="26" type="line"/>
      <point x="228" y="-64" type="line"/>
      <point x="299" y="-64"/>
      <point x="346" y="-86"/>
      <point x="346" y="-118" type="curve" smooth="yes"/>
      <point x="346" y="-140"/>
      <point x="324" y="-160"/>
      <point x="292" y="-160" type="curve" smooth="yes"/>
      <point x="212" y="-160" type="line"/>
    </contour>
    <component base="c"/>
  </outline>
</glyph>
<glyph name="divide" format="2">
  <advance width="600"/>
  <unicode hex="00F7"/>
  <outline>
    <contour>
      <point x="100" y="309" type="line"/>
      <point x="500" y="309" type="line"/>
      <point x="500" y="359" type="line"/>
      <point x="100" y="359" type="line"/>
    </contour>
    <contour>
      <point x="300" y="456" type="curve" smooth="yes"/>
      <point x="344" y="456"/>
      <point x="373" y="485"/>
      <point x="373" y="528" type="curve" smooth="yes"/>
      <point x="373" y="571"/>
      <point x="344" y="600"/>
      <point x="300" y="600" type="curve" smooth="yes"/>
      <point x="256" y="600"/>
      <point x="227" y="571"/>
      <point x="227" y="528" type="curve" smooth="yes"/>
      <point x="227" y="485"/>
      <point x="256" y="456"/>
    </contour>
    <contour>
      <point x="300" y="66" type="curve" smooth="yes"/>
      <point x="344" y="66"/>
      <point x="373" y="95"/>
      <point x="373" y="138" type="curve" smooth="yes"/>
      <point x="373" y="181"/>
      <point x="344" y="210"/>
      <point x="300" y="210" type="curve" smooth="yes"/>
      <point x="256" y="210"/>
      <point x="227" y="181"/>
      <point x="227" y="138" type="curve" smooth="yes"/>
      <point x="227" y="95"/>
      <point x="256" y="66"/>
    </contour>
  </outline>
</glyph>
<glyph name="aogonek" format="2">
  <advance width="600"/>
  <unicode hex="0105"/>
  <anchor x="305" y="0" name="bottom"/>
  <anchor x="460" y="0" name="ogonek"/>
  <anchor x="305" y="550" name="top"/>
  <outline>
    <contour>
      <point x="473" y="-195" type="curve"/>
      <point x="546" y="-195" type="line"/>
      <point x="546" y="-153" type="line"/>
      <point x="482" y="-153" type="line" smooth="yes"/>
      <point x="450" y="-153"/>
      <point x="431" y="-134"/>
      <point x="431" y="-103" type="curve" smooth="yes"/>
      <point x="431" y="-75"/>
      <point x="454" y="-36"/>
      <point x="492" y="0" type="curve"/>
      <point x="466" y="10" type="line"/>
      <point x="415" y="-27"/>
      <point x="384" y="-74"/>
      <point x="384" y="-115" type="curve" smooth="yes"/>
      <point x="384" y="-165"/>
      <point x="418" y="-195"/>
    </contour>
    <component base="a"/>
  </outline>
</glyph>
<glyph name="Eogonek" format="2">
  <advance width="600"/>
  <unicode hex="0118"/>
  <anchor x="320" y="0" name="bottom"/>
  <anchor x="440" y="0" name="ogonek"/>
  <anchor x="320" y="730" name="top"/>
  <anchor x="20" y="730" name="topleft"/>
  <outline>
    <contour>
      <point x="442" y="-195" type="curve"/>
      <point x="515" y="-195" type="line"/>
      <point x="515" y="-153" type="line"/>
      <point x="451" y="-153" type="line" smooth="yes"/>
      <point x="419" y="-153"/>
      <point x="400" y="-134"/>
      <point x="400" y="-103" type="curve" smooth="yes"/>
      <point x="400" y="-75"/>
      <point x="423" y="-36"/>
      <point x="461" y="0" type="curve" smooth="yes"/>
      <point x="472" y="10" type="line"/>
      <point x="435" y="10" type="line"/>
      <point x="384" y="-27"/>
      <point x="353" y="-74"/>
      <point x="353" y="-115" type="curve" smooth="yes"/>
      <point x="353" y="-165"/>
      <point x="387" y="-195"/>
    </contour>
    <component base="E"/>
  </outline>
</glyph>
<glyph name="eogonek" format="2">
  <advance width="600"/>
  <unicode hex="0119"/>
  <anchor x="300" y="550" name="top"/>
  <outline>
    <contour>
      <point x="376" y="-195" type="curve" smooth="yes"/>
      <point x="449" y="-195" type="line"/>
      <point x="449" y="-153" type="line"/>
      <point x="385" y="-153" type="line" smooth="yes"/>
      <point x="353" y="-153"/>
      <point x="334" y="-134"/>
      <point x="334" y="-103" type="curve" smooth="yes"/>
      <point x="334" y="-75"/>
      <point x="357" y="-36"/>
      <point x="395" y="0" type="curve" smooth="yes"/>
      <point x="422" y="24" type="line"/>
      <point x="459" y="50"/>
      <point x="483" y="88"/>
      <point x="494" y="135" type="curve"/>
      <point x="444" y="135" type="line"/>
      <point x="425" y="72"/>
      <point x="375" y="34"/>
      <point x="301" y="34" type="curve" smooth="yes"/>
      <point x="208" y="34"/>
      <point x="155" y="94"/>
      <point x="155" y="190" type="curve" smooth="yes"/>
      <point x="155" y="265" type="line"/>
      <point x="495" y="265" type="line"/>
      <point x="495" y="360" type="line" smooth="yes"/>
      <point x="495" y="481"/>
      <point x="422" y="560"/>
      <point x="301" y="560" type="curve" smooth="yes"/>
      <point x="179" y="560"/>
      <point x="105" y="481"/>
      <point x="105" y="360" type="curve" smooth="yes"/>
      <point x="105" y="190" type="line" smooth="yes"/>
      <point x="105" y="68"/>
      <point x="178" y="-10"/>
      <point x="301" y="-10" type="curve" smooth="yes"/>
      <point x="318" y="-10"/>
      <point x="335" y="-8"/>
      <point x="350" y="-5" type="curve"/>
      <point x="305" y="-48"/>
      <point x="287" y="-84"/>
      <point x="287" y="-115" type="curve" smooth="yes"/>
      <point x="287" y="-165"/>
      <point x="321" y="-195"/>
    </contour>
    <contour>
      <point x="445" y="286" type="line"/>
      <point x="467" y="308" type="line"/>
      <point x="155" y="308" type="line"/>
      <point x="155" y="360" type="line" smooth="yes"/>
      <point x="155" y="457"/>
      <point x="207" y="516"/>
      <point x="301" y="516" type="curve" smooth="yes"/>
      <point x="393" y="516"/>
      <point x="445" y="456"/>
      <point x="445" y="360" type="curve" smooth="yes"/>
    </contour>
  </outline>
</glyph>
<glyph name="Iogonek" format="2">
  <advance width="600"/>
  <unicode hex="012E"/>
  <anchor x="300" y="0" name="bottom"/>
  <anchor x="320" y="0" name="ogonek"/>
  <anchor x="300" y="730" name="top"/>
  <anchor x="20" y="730" name="topleft"/>
  <outline>
    <contour>
      <point x="302" y="-195" type="curve"/>
      <point x="375" y="-195" type="line"/>
      <point x="375" y="-153" type="line"/>
      <point x="311" y="-153" type="line" smooth="yes"/>
      <point x="279" y="-153"/>
      <point x="260" y="-134"/>
      <point x="260" y="-103" type="curve" smooth="yes"/>
      <point x="260" y="-75"/>
      <point x="283" y="-36"/>
      <point x="321" y="0" type="curve" smooth="yes"/>
      <point x="332" y="10" type="line"/>
      <point x="295" y="10" type="line"/>
      <point x="244" y="-27"/>
      <point x="213" y="-74"/>
      <point x="213" y="-115" type="curve" smooth="yes"/>
      <point x="213" y="-165"/>
      <point x="247" y="-195"/>
    </contour>
    <component base="I"/>
  </outline>
</glyph>
<glyph name="iogonek" format="2">
  <advance width="600"/>
  <unicode hex="012F"/>
  <anchor x="315" y="0" name="bottom"/>
  <anchor x="330" y="0" name="ogonek"/>
  <anchor x="315" y="765" name="top"/>
  <outline>
    <contour>
      <point x="317" y="-195" type="curve"/>
      <point x="390" y="-195" type="line"/>
      <point x="390" y="-153" type="line"/>
      <point x="326" y="-153" type="line" smooth="yes"/>
      <point x="294" y="-153"/>
      <point x="275" y="-134"/>
      <point x="275" y="-103" type="curve" smooth="yes"/>
      <point x="275" y="-75"/>
      <point x="298" y="-36"/>
      <point x="336" y="0" type="curve" smooth="yes"/>
      <point x="347" y="10" type="line"/>
      <point x="310" y="10" type="line"/>
      <point x="259" y="-27"/>
      <point x="228" y="-74"/>
      <point x="228" y="-115" type="curve" smooth="yes"/>
      <point x="228" y="-165"/>
      <point x="262" y="-195"/>
    </contour>
    <component base="idotless"/>
    <component base="dotaccentcomb" xOffset="615"/>
  </outline>
</glyph>
<glyph name="oe" format="2">
  <advance width="600"/>
  <unicode hex="0153"/>
  <outline>
    <contour>
      <point x="174" y="-10" type="curve" smooth="yes"/>
      <point x="255" y="-10"/>
      <point x="294" y="38"/>
      <point x="301" y="75" type="curve"/>
      <point x="304" y="75" type="line"/>
      <point x="311" y="38"/>
      <point x="349" y="-10"/>
      <point x="426" y="-10" type="curve" smooth="yes"/>
      <point x="507" y="-10"/>
      <point x="564" y="43"/>
      <point x="571" y="125" type="curve"/>
      <point x="521" y="125" type="line"/>
      <point x="516" y="71"/>
      <point x="477" y="34"/>
      <point x="423" y="34" type="curve" smooth="yes"/>
      <point x="366" y="34"/>
      <point x="327" y="77"/>
      <point x="327" y="140" type="curve" smooth="yes"/>
      <point x="327" y="260" type="line"/>
      <point x="565" y="260" type="line"/>
      <point x="565" y="410" type="line" smooth="yes"/>
      <point x="565" y="501"/>
      <point x="510" y="560"/>
      <point x="423" y="560" type="curve" smooth="yes"/>
      <point x="352" y="560"/>
      <point x="313" y="511"/>
      <point x="304" y="474" type="curve"/>
      <point x="302" y="474" type="line"/>
      <point x="295" y="511"/>
      <point x="257" y="560"/>
      <point x="180" y="560" type="curve" smooth="yes"/>
      <point x="92" y="560"/>
      <point x="35" y="500"/>
      <point x="35" y="408" type="curve" smooth="yes"/>
      <point x="35" y="139" type="line" smooth="yes"/>
      <point x="35" y="48"/>
      <point x="89" y="-10"/>
    </contour>
    <contour>
      <point x="183" y="34" type="curve" smooth="yes"/>
      <point x="125" y="34"/>
      <point x="86" y="76"/>
      <point x="86" y="139" type="curve" smooth="yes"/>
      <point x="86" y="408" type="line" smooth="yes"/>
      <point x="86" y="473"/>
      <point x="125" y="516"/>
      <point x="183" y="516" type="curve" smooth="yes"/>
      <point x="240" y="516"/>
      <point x="278" y="473"/>
      <point x="278" y="410" type="curve" smooth="yes"/>
      <point x="278" y="140" type="line" smooth="yes"/>
      <point x="278" y="77"/>
      <point x="240" y="34"/>
    </contour>
    <contour>
      <point x="327" y="310" type="line"/>
      <point x="327" y="410" type="line" smooth="yes"/>
      <point x="327" y="473"/>
      <point x="364" y="516"/>
      <point x="420" y="516" type="curve" smooth="yes"/>
      <point x="477" y="516"/>
      <point x="515" y="473"/>
      <point x="515" y="410" type="curve" smooth="yes"/>
      <point x="515" y="310" type="line"/>
    </contour>
  </outline>
</glyph>
<glyph name="Scedilla" format="2">
  <advance width="600"/>
  <unicode hex="015E"/>
  <anchor x="300" y="0" name="_bottom"/>
  <anchor x="300" y="0" name="bottom"/>
  <anchor x="300" y="730" name="top"/>
  <outline>
    <contour>
      <point x="235" y="-195" type="line"/>
      <point x="315" y="-195" type="line" smooth="yes"/>
      <point x="375" y="-195"/>
      <point x="415" y="-161"/>
      <point x="415" y="-118" type="curve" smooth="yes"/>
      <point x="415" y="-61"/>
      <point x="352" y="-37"/>
      <point x="305" y="-34" type="curve"/>
      <point x="328" y="26" type="line"/>
      <point x="286" y="26" type="line"/>
      <point x="251" y="-64" type="line"/>
      <point x="322" y="-64"/>
      <point x="369" y="-86"/>
      <point x="369" y="-118" type="curve" smooth="yes"/>
      <point x="369" y="-140"/>
      <point x="347" y="-160"/>
      <point x="315" y="-160" type="curve" smooth="yes"/>
      <point x="235" y="-160" type="line"/>
    </contour>
    <component base="S"/>
  </outline>
</glyph>
<glyph name="scedilla" format="2">
  <advance width="600"/>
  <unicode hex="015F"/>
  <anchor x="310" y="0" name="_bottom"/>
  <anchor x="300" y="0" name="bottom"/>
  <anchor x="300" y="550" name="top"/>
  <outline>
    <contour>
      <point x="220" y="-195" type="line"/>
      <point x="300" y="-195" type="line" smooth="yes"/>
      <point x="360" y="-195"/>
      <point x="400" y="-161"/>
      <point x="400" y="-118" type="curve" smooth="yes"/>
      <point x="400" y="-61"/>
      <point x="337" y="-37"/>
      <point x="290" y="-34" type="curve"/>
      <point x="313" y="26" type="line"/>
      <point x="271" y="26" type="line"/>
      <point x="236" y="-64" type="line"/>
      <point x="307" y="-64"/>
      <point x="354" y="-86"/>
      <point x="354" y="-118" type="curve" smooth="yes"/>
      <point x="354" y="-140"/>
      <point x="332" y="-160"/>
      <point x="300" y="-160" type="curve" smooth="yes"/>
      <point x="220" y="-160" type="line"/>
    </contour>
    <component base="s"/>
  </outline>
</glyph>
<glyph name="tcedilla" format="2">
  <advance width="600"/>
  <unicode hex="0163"/>
  <anchor x="360" y="0" name="_bottom"/>
  <anchor x="360" y="0" name="bottom"/>
  <anchor x="300" y="275" name="center"/>
  <anchor x="300" y="705" name="top"/>
  <anchor x="580" y="550" name="topright"/>
  <outline>
    <contour>
      <point x="270" y="-195" type="line"/>
      <point x="350" y="-195" type="line" smooth="yes"/>
      <point x="410" y="-195"/>
      <point x="450" y="-161"/>
      <point x="450" y="-118" type="curve" smooth="yes"/>
      <point x="450" y="-61"/>
      <point x="387" y="-37"/>
      <point x="340" y="-34" type="curve"/>
      <point x="363" y="26" type="line"/>
      <point x="321" y="26" type="line"/>
      <point x="286" y="-64" type="line"/>
      <point x="357" y="-64"/>
      <point x="404" y="-86"/>
      <point x="404" y="-118" type="curve" smooth="yes"/>
      <point x="404" y="-140"/>
      <point x="382" y="-160"/>
      <point x="350" y="-160" type="curve" smooth="yes"/>
      <point x="270" y="-160" type="line"/>
    </contour>
    <component base="t"/>
  </outline>
</glyph>
<glyph name="Tbar" format="2">
  <advance width="600"/>
  <unicode hex="0166"/>
  <anchor x="300" y="0" name="bottom"/>
  <anchor x="300" y="365" name="center"/>
  <anchor x="300" y="730" name="top"/>
  <outline>
    <contour>
      <point x="120" y="310" type="line"/>
      <point x="480" y="310" type="line"/>
      <point x="480" y="355" type="line"/>
      <point x="120" y="355" type="line"/>
    </contour>
    <component base="T"/>
  </outline>
</glyph>
<glyph name="Uogonek" format="2">
  <advance width="600"/>
  <unicode hex="0172"/>
  <anchor x="392" y="730" name="horn"/>
  <anchor x="300" y="730" name="top"/>
  <outline>
    <contour>
      <point x="369" y="-195" type="curve" smooth="yes"/>
      <point x="442" y="-195" type="line"/>
      <point x="442" y="-153" type="line"/>
      <point x="378" y="-153" type="line" smooth="yes"/>
      <point x="346" y="-153"/>
      <point x="327" y="-134"/>
      <point x="327" y="-103" type="curve" smooth="yes"/>
      <point x="327" y="-75"/>
      <point x="349" y="-33"/>
      <point x="388" y="2" type="curve" smooth="yes"/>
      <point x="397" y="10" type="line"/>
      <point x="459" y="45"/>
      <point x="492" y="105"/>
      <point x="492" y="190" type="curve" smooth="yes"/>
      <point x="492" y="730" type="line"/>
      <point x="442" y="730" type="line"/>
      <point x="442" y="190" type="line" smooth="yes"/>
      <point x="442" y="91"/>
      <point x="392" y="34"/>
      <point x="300" y="34" type="curve" smooth="yes"/>
      <point x="208" y="34"/>
      <point x="158" y="91"/>
      <point x="158" y="190" type="curve" smooth="yes"/>
      <point x="158" y="730" type="line"/>
      <point x="108" y="730" type="line"/>
      <point x="108" y="190" type="line" smooth="yes"/>
      <point x="108" y="68"/>
      <point x="182" y="-10"/>
      <point x="300" y="-10" type="curve" smooth="yes"/>
      <point x="311" y="-10"/>
      <point x="329" y="-9"/>
      <point x="340" y="-6" type="curve"/>
      <point x="302" y="-39"/>
      <point x="280" y="-80"/>
      <point x="280" y="-115" type="curve" smooth="yes"/>
      <point x="280" y="-165"/>
      <point x="314" y="-195"/>
    </contour>
  </outline>
</glyph>
<glyph name="uogonek" format="2">
  <advance width="600"/>
  <unicode hex="0173"/>
  <anchor x="410" y="550" name="horn"/>
  <anchor x="300" y="550" name="top"/>
  <outline>
    <contour>
      <point x="373" y="-195" type="curve" smooth="yes"/>
      <point x="446" y="-195" type="line"/>
      <point x="446" y="-153" type="line"/>
      <point x="382" y="-153" type="line" smooth="yes"/>
      <point x="350" y="-153"/>
      <point x="331" y="-134"/>
      <point x="331" y="-103" type="curve" smooth="yes"/>
      <point x="331" y="-75"/>
      <point x="354" y="-36"/>
      <point x="392" y="0" type="curve" smooth="yes"/>
      <point x="419" y="25" type="line"/>
      <point x="467" y="59"/>
      <point x="492" y="116"/>
      <point x="492" y="190" type="curve" smooth="yes"/>
      <point x="492" y="550" type="line"/>
      <point x="442" y="550" type="line"/>
      <point x="442" y="190" type="line" smooth="yes"/>
      <point x="442" y="91"/>
      <point x="392" y="34"/>
      <point x="300" y="34" type="curve" smooth="yes"/>
      <point x="208" y="34"/>
      <point x="158" y="91"/>
      <point x="158" y="190" type="curve" smooth="yes"/>
      <point x="158" y="550" type="line"/>
      <point x="108" y="550" type="line"/>
      <point x="108" y="190" type="line" smooth="yes"/>
      <point x="108" y="68"/>
      <point x="182" y="-10"/>
      <point x="300" y="-10" type="curve" smooth="yes"/>
      <point x="316" y="-10"/>
      <point x="332" y="-9"/>
      <point x="346" y="-6" type="curve"/>
      <point x="303" y="-47"/>
      <point x="284" y="-83"/>
      <point x="284" y="-115" type="curve" smooth="yes"/>
      <point x="284" y="-165"/>
      <point x="318" y="-195"/>
    </contour>
  </outline>
</glyph>
<glyph name="lambdastroke" format="2">
  <advance width="600"/>
  <unicode hex="019B"/>
  <outline>
    <contour>
      <point x="90" y="502" type="line"/>
      <point x="470" y="692" type="line"/>
      <point x="470" y="740" type="line"/>
      <point x="90" y="550" type="line"/>
    </contour>
    <component base="lambda"/>
  </outline>
</glyph>
<glyph name="Ohorn" format="2">
  <advance width="600"/>
  <unicode hex="01A0"/>
  <anchor x="290" y="730" name="top"/>
  <anchor x="300" y="0" name="bottom"/>
  <anchor x="300" y="365" name="center"/>
  <anchor x="320" y="700" name="horn"/>
  <anchor x="355" y="0" name="ogonek"/>
  <anchor x="20" y="730" name="topleft"/>
  <anchor x="580" y="730" name="topright"/>
  <outline>
    <contour>
      <point x="410" y="665" type="line"/>
      <point x="455" y="665" type="line" smooth="yes"/>
      <point x="506" y="665"/>
      <point x="540" y="699"/>
      <point x="540" y="750" type="curve" smooth="yes"/>
      <point x="540" y="810" type="line"/>
      <point x="500" y="810" type="line"/>
      <point x="500" y="750" type="line" smooth="yes"/>
      <point x="500" y="720"/>
      <point x="482" y="700"/>
      <point x="455" y="700" type="curve" smooth="yes"/>
      <point x="410" y="700" type="line"/>
    </contour>
    <component base="O"/>
  </outline>
</glyph>
<glyph name="ohorn" format="2">
  <advance width="600"/>
  <unicode hex="01A1"/>
  <anchor x="290" y="550" name="top"/>
  <anchor x="300" y="0" name="bottom"/>
  <anchor x="300" y="275" name="center"/>
  <anchor x="320" y="550" name="horn"/>
  <anchor x="355" y="0" name="ogonek"/>
  <anchor x="580" y="550" name="topright"/>
  <outline>
    <contour>
      <point x="390" y="495" type="line"/>
      <point x="425" y="495" type="line" smooth="yes"/>
      <point x="476" y="495"/>
      <point x="510" y="529"/>
      <point x="510" y="580" type="curve" smooth="yes"/>
      <point x="510" y="640" type="line"/>
      <point x="470" y="640" type="line"/>
      <point x="470" y="580" type="line" smooth="yes"/>
      <point x="470" y="550"/>
      <point x="452" y="530"/>
      <point x="425" y="530" type="curve" smooth="yes"/>
      <point x="390" y="530" type="line"/>
    </contour>
    <component base="o"/>
  </outline>
</glyph>
<glyph name="Uhorn" format="2">
  <advance width="600"/>
  <unicode hex="01AF"/>
  <anchor x="300" y="730" name="top"/>
  <anchor x="300" y="0" name="bottom"/>
  <anchor x="392" y="730" name="horn"/>
  <anchor x="355" y="0" name="ogonek"/>
  <anchor x="580" y="730" name="topright"/>
  <outline>
    <contour>
      <point x="442" y="695" type="line"/>
      <point x="527" y="695" type="line" smooth="yes"/>
      <point x="578" y="695"/>
      <point x="612" y="729"/>
      <point x="612" y="780" type="curve" smooth="yes"/>
      <point x="612" y="840" type="line"/>
      <point x="572" y="840" type="line"/>
      <point x="572" y="780" type="line" smooth="yes"/>
      <point x="572" y="750"/>
      <point x="554" y="730"/>
      <point x="527" y="730" type="curve" smooth="yes"/>
      <point x="442" y="730" type="line"/>
    </contour>
    <component base="U"/>
  </outline>
</glyph>
<glyph name="primemod" format="2">
  <advance width="600"/>
  <unicode hex="02B9"/>
  <outline>
    <contour>
      <point x="185" y="410" type="line"/>
      <point x="225" y="410" type="line"/>
      <point x="350" y="721" type="line"/>
      <point x="260" y="721" type="line"/>
    </contour>
  </outline>
</glyph>
<glyph name="apostrophemod" format="2">
  <advance width="600"/>
  <unicode hex="02BC"/>
  <outline>
    <contour>
      <point x="185" y="465" type="line"/>
      <point x="225" y="465" type="line"/>
      <point x="350" y="776" type="line"/>
      <point x="260" y="776" type="line"/>
    </contour>
  </outline>
</glyph>
<glyph name="gravecomb" format="2">
  <unicode hex="0300"/>
  <anchor x="-290" y="550" name="_top"/>
  <anchor x="-336" y="785" name="top"/>
  <outline>
    <contour>
      <point x="-307" y="645" type="line"/>
      <point x="-252" y="645" type="line"/>
      <point x="-358" y="785" type="line"/>
      <point x="-419" y="785" type="line"/>
    </contour>
  </outline>
</glyph>
<glyph name="acutecomb" format="2">
  <unicode hex="0301"/>
  <anchor x="-320" y="550" name="_top"/>
  <anchor x="-264" y="785" name="top"/>
  <outline>
    <contour>
      <point x="-346" y="645" type="line"/>
      <point x="-293" y="645" type="line"/>
      <point x="-181" y="785" type="line"/>
      <point x="-240" y="785" type="line"/>
    </contour>
  </outline>
</glyph>
<glyph name="tildecomb" format="2">
  <unicode hex="0303"/>
  <anchor x="-300" y="550" name="_top"/>
  <anchor x="-300" y="780" name="top"/>
  <outline>
    <contour>
      <point x="-225" y="650" type="curve" smooth="yes"/>
      <point x="-172" y="650"/>
      <point x="-140" y="684"/>
      <point x="-140" y="740" type="curve" smooth="yes"/>
      <point x="-140" y="775" type="line"/>
      <point x="-180" y="775" type="line"/>
      <point x="-180" y="740" type="line" smooth="yes"/>
      <point x="-180" y="709"/>
      <point x="-197" y="689"/>
      <point x="-225" y="689" type="curve" smooth="yes"/>
      <point x="-274" y="689"/>
      <point x="-295" y="780"/>
      <point x="-370" y="780" type="curve" smooth="yes"/>
      <point x="-426" y="780"/>
      <point x="-460" y="746"/>
      <point x="-460" y="690" type="curve" smooth="yes"/>
      <point x="-460" y="655" type="line"/>
      <point x="-420" y="655" type="line"/>
      <point x="-420" y="690" type="line" smooth="yes"/>
      <point x="-420" y="721"/>
      <point x="-401" y="741"/>
      <point x="-370" y="741" type="curve" smooth="yes"/>
      <point x="-321" y="741"/>
      <point x="-300" y="650"/>
    </contour>
  </outline>
</glyph>
<glyph name="dieresiscomb" format="2">
  <unicode hex="0308"/>
  <anchor x="-300" y="550" name="_top"/>
  <anchor x="-300" y="765" name="top"/>
  <outline>
    <contour>
      <point x="-192" y="655" type="curve" smooth="yes"/>
      <point x="-161" y="655"/>
      <point x="-141" y="677"/>
      <point x="-141" y="710" type="curve" smooth="yes"/>
      <point x="-141" y="743"/>
      <point x="-161" y="765"/>
      <point x="-192" y="765" type="curve" smooth="yes"/>
      <point x="-224" y="765"/>
      <point x="-245" y="743"/>
      <point x="-245" y="710" type="curve" smooth="yes"/>
      <point x="-245" y="677"/>
      <point x="-224" y="655"/>
    </contour>
    <contour>
      <point x="-407" y="655" type="curve" smooth="yes"/>
      <point x="-376" y="655"/>
      <point x="-355" y="677"/>
      <point x="-355" y="710" type="curve" smooth="yes"/>
      <point x="-355" y="743"/>
      <point x="-376" y="765"/>
      <point x="-407" y="765" type="curve" smooth="yes"/>
      <point x="-438" y="765"/>
      <point x="-459" y="743"/>
      <point x="-459" y="710" type="curve" smooth="yes"/>
      <point x="-459" y="677"/>
      <point x="-438" y="655"/>
    </contour>
  </outline>
</glyph>
<glyph name="hookabovecomb" format="2">
  <unicode hex="0309"/>
  <anchor x="-300" y="550" name="_top"/>
  <anchor x="-296" y="820" name="top"/>
  <outline>
    <contour>
      <point x="-326" y="645" type="line"/>
      <point x="-277" y="645" type="line"/>
      <point x="-232" y="708" type="line" smooth="yes"/>
      <point x="-220" y="725"/>
      <point x="-213" y="745"/>
      <point x="-213" y="761" type="curve" smooth="yes"/>
      <point x="-213" y="797"/>
      <point x="-243" y="820"/>
      <point x="-290" y="820" type="curve" smooth="yes"/>
      <point x="-378" y="820" type="line"/>
      <point x="-378" y="785" type="line"/>
      <point x="-290" y="785" type="line" smooth="yes"/>
      <point x="-267" y="785"/>
      <point x="-253" y="774"/>
      <point x="-253" y="757" type="curve" smooth="yes"/>
      <point x="-253" y="749"/>
      <point x="-260" y="735"/>
      <point x="-270" y="721" type="curve" smooth="yes"/>
    </contour>
  </outline>
</glyph>
<glyph name="caroncomb" format="2">
  <unicode hex="030C"/>
  <anchor x="-300" y="550" name="_top"/>
  <anchor x="-300" y="785" name="top"/>
  <outline>
    <contour>
      <point x="-330" y="645" type="line"/>
      <point x="-270" y="645" type="line"/>
      <point x="-150" y="785" type="line"/>
      <point x="-198" y="785" type="line"/>
      <point x="-298" y="676" type="line"/>
      <point x="-399" y="785" type="line"/>
      <point x="-450" y="785" type="line"/>
    </contour>
  </outline>
</glyph>
<glyph name="horncomb" format="2">
  <unicode hex="031B"/>
  <anchor x="-290" y="550" name="_horn"/>
  <anchor x="-260" y="550" name="_topright"/>
  <anchor x="-80" y="660" name="topright"/>
  <outline>
    <contour>
      <point x="-240" y="515" type="line"/>
      <point x="-185" y="515" type="line" smooth="yes"/>
      <point x="-134" y="515"/>
      <point x="-100" y="549"/>
      <point x="-100" y="600" type="curve" smooth="yes"/>
      <point x="-100" y="660" type="line"/>
      <point x="-140" y="660" type="line"/>
      <point x="-140" y="600" type="line" smooth="yes"/>
      <point x="-140" y="570"/>
      <point x="-158" y="550"/>
      <point x="-185" y="550" type="curve" smooth="yes"/>
      <point x="-240" y="550" type="line"/>
    </contour>
  </outline>
</glyph>
<glyph name="ringbelowcomb" format="2">
  <unicode hex="0325"/>
  <anchor x="-300" y="0" name="_bottom"/>
  <anchor x="-300" y="-245" name="bottom"/>
  <outline>
    <contour>
      <point x="-300" y="-245" type="curve" smooth="yes"/>
      <point x="-237" y="-245"/>
      <point x="-195" y="-207"/>
      <point x="-195" y="-150" type="curve" smooth="yes"/>
      <point x="-195" y="-93"/>
      <point x="-237" y="-55"/>
      <point x="-300" y="-55" type="curve" smooth="yes"/>
      <point x="-363" y="-55"/>
      <point x="-405" y="-93"/>
      <point x="-405" y="-150" type="curve" smooth="yes"/>
      <point x="-405" y="-207"/>
      <point x="-363" y="-245"/>
    </contour>
    <contour>
      <point x="-301" y="-210" type="curve" smooth="yes"/>
      <point x="-339" y="-210"/>
      <point x="-365" y="-185"/>
      <point x="-365" y="-150" type="curve" smooth="yes"/>
      <point x="-365" y="-115"/>
      <point x="-339" y="-89"/>
      <point x="-301" y="-89" type="curve" smooth="yes"/>
      <point x="-258" y="-89"/>
      <point x="-235" y="-115"/>
      <point x="-235" y="-150" type="curve" smooth="yes"/>
      <point x="-235" y="-185"/>
      <point x="-261" y="-210"/>
    </contour>
  </outline>
</glyph>
<glyph name="strokelongcomb" format="2">
  <unicode hex="0336"/>
  <anchor x="-300" y="326" name="_center"/>
  <outline>
    <contour>
      <point x="-630" y="306" type="line"/>
      <point x="30" y="306" type="line"/>
      <point x="30" y="346" type="line"/>
      <point x="-630" y="346" type="line"/>
    </contour>
  </outline>
</glyph>
<glyph name="slashlongcomb" format="2">
  <unicode hex="0338"/>
  <anchor x="-300" y="275" name="_center"/>
  <outline>
    <contour>
      <point x="-480" y="-110" type="line"/>
      <point x="-434" y="-110" type="line"/>
      <point x="-120" y="660" type="line"/>
      <point x="-166" y="660" type="line"/>
    </contour>
  </outline>
</glyph>
<glyph name="tonos" format="2">
  <advance width="600"/>
  <unicode hex="0384"/>
  <anchor x="260" y="550" name="_top"/>
  <outline>
    <contour>
      <point x="234" y="645" type="line"/>
      <point x="287" y="645" type="line"/>
      <point x="399" y="785" type="line"/>
      <point x="340" y="785" type="line"/>
    </contour>
  </outline>
</glyph>
<glyph name="Delta" format="2">
  <advance width="600"/>
  <unicode hex="0394"/>
  <outline>
    <contour>
      <point x="68" y="0" type="line"/>
      <point x="118" y="0" type="line"/>
      <point x="266" y="550" type="line" smooth="yes"/>
      <point x="281" y="608"/>
      <point x="294" y="664"/>
      <point x="300" y="690" type="curve"/>
      <point x="305" y="664"/>
      <point x="318" y="608"/>
      <point x="333" y="550" type="curve" smooth="yes"/>
      <point x="480" y="0" type="line"/>
      <point x="532" y="0" type="line"/>
      <point x="331" y="730" type="line"/>
      <point x="269" y="730" type="line"/>
    </contour>
    <contour>
      <point x="92" y="0" type="line"/>
      <point x="499" y="0" type="line"/>
      <point x="499" y="45" type="line"/>
      <point x="92" y="45" type="line"/>
    </contour>
  </outline>
</glyph>
<glyph name="Sigma" format="2">
  <advance width="600"/>
  <unicode hex="03A3"/>
  <outline>
    <contour>
      <point x="85" y="0" type="line"/>
      <point x="555" y="0" type="line"/>
      <point x="555" y="46" type="line"/>
      <point x="141" y="46" type="line"/>
      <point x="390" y="373" type="line"/>
      <point x="141" y="684" type="line"/>
      <point x="555" y="684" type="line"/>
      <point x="555" y="730" type="line"/>
      <point x="85" y="730" type="line"/>
      <point x="85" y="682" type="line"/>
      <point x="330" y="374" type="line"/>
      <point x="85" y="48" type="line"/>
    </contour>
  </outline>
</glyph>
<glyph name="beta" format="2">
  <advance width="600"/>
  <unicode hex="03B2"/>
  <outline>
    <contour>
      <point x="110" y="-180" type="line"/>
      <point x="160" y="-180" type="line"/>
      <point x="160" y="0" type="line"/>
      <point x="305" y="0" type="line" smooth="yes"/>
      <point x="437" y="0"/>
      <point x="515" y="80"/>
      <point x="515" y="208" type="curve" smooth="yes"/>
      <point x="515" y="299"/>
      <point x="466" y="360"/>
      <point x="384" y="376" type="curve"/>
      <point x="454" y="395"/>
      <point x="500" y="462"/>
      <point x="500" y="550" type="curve" smooth="yes"/>
      <point x="500" y="666"/>
      <point x="427" y="740"/>
      <point x="305" y="740" type="curve" smooth="yes"/>
      <point x="188" y="740"/>
      <point x="110" y="661"/>
      <point x="110" y="543" type="curve" smooth="yes"/>
    </contour>
    <contour>
      <point x="160" y="45" type="line"/>
      <point x="160" y="543" type="line" smooth="yes"/>
      <point x="160" y="635"/>
      <point x="217" y="695"/>
      <point x="305" y="695" type="curve" smooth="yes"/>
      <point x="397" y="695"/>
      <point x="450" y="637"/>
      <point x="450" y="545" type="curve" smooth="yes"/>
      <point x="450" y="457"/>
      <point x="394" y="397"/>
      <point x="305" y="397" type="curve" smooth="yes"/>
      <point x="265" y="397" type="line"/>
      <point x="265" y="352" type="line"/>
      <point x="305" y="352" type="line" smooth="yes"/>
      <point x="410" y="352"/>
      <point x="465" y="297"/>
      <point x="465" y="200" type="curve" smooth="yes"/>
      <point x="465" y="102"/>
      <point x="410" y="45"/>
      <point x="305" y="45" type="curve" smooth="yes"/>
    </contour>
  </outline>
</glyph>
<glyph name="delta" format="2">
  <advance width="600"/>
  <unicode hex="03B4"/>
  <outline>
    <contour>
      <point x="301" y="-10" type="curve" smooth="yes"/>
      <point x="425" y="-10"/>
      <point x="495" y="66"/>
      <point x="495" y="200" type="curve" smooth="yes"/>
      <point x="495" y="292" type="line" smooth="yes"/>
      <point x="495" y="370"/>
      <point x="464" y="438"/>
      <point x="402" y="492" type="curve" smooth="yes"/>
      <point x="180" y="685" type="line"/>
      <point x="470" y="685" type="line"/>
      <point x="470" y="730" type="line"/>
      <point x="125" y="730" type="line"/>
      <point x="125" y="683" type="line"/>
      <point x="367" y="469" type="line"/>
      <point x="363" y="466" type="line"/>
      <point x="339" y="483"/>
      <point x="314" y="495"/>
      <point x="278" y="495" type="curve" smooth="yes"/>
      <point x="163" y="495"/>
      <point x="105" y="420"/>
      <point x="105" y="292" type="curve" smooth="yes"/>
      <point x="105" y="200" type="line" smooth="yes"/>
      <point x="105" y="66"/>
      <point x="176" y="-10"/>
    </contour>
    <contour>
      <point x="301" y="35" type="curve" smooth="yes"/>
      <point x="208" y="35"/>
      <point x="155" y="95"/>
      <point x="155" y="200" type="curve" smooth="yes"/>
      <point x="155" y="292" type="line" smooth="yes"/>
      <point x="155" y="397"/>
      <point x="208" y="457"/>
      <point x="300" y="457" type="curve" smooth="yes"/>
      <point x="392" y="457"/>
      <point x="445" y="397"/>
      <point x="445" y="292" type="curve" smooth="yes"/>
      <point x="445" y="200" type="line" smooth="yes"/>
      <point x="445" y="95"/>
      <point x="393" y="35"/>
    </contour>
  </outline>
</glyph>
<glyph name="epsilon" format="2">
  <advance width="600"/>
  <unicode hex="03B5"/>
  <outline>
    <contour>
      <point x="326" y="-10" type="line" smooth="yes"/>
      <point x="437" y="-10"/>
      <point x="498" y="41"/>
      <point x="514" y="125" type="curve"/>
      <point x="464" y="125" type="line"/>
      <point x="448" y="71"/>
      <point x="404" y="35"/>
      <point x="326" y="35" type="curve" smooth="yes"/>
      <point x="270" y="35" type="line" smooth="yes"/>
      <point x="198" y="35"/>
      <point x="145" y="85"/>
      <point x="145" y="146" type="curve" smooth="yes"/>
      <point x="145" y="210"/>
      <point x="193" y="261"/>
      <point x="265" y="261" type="curve" smooth="yes"/>
      <point x="393" y="261" type="line"/>
      <point x="393" y="306" type="line"/>
      <point x="265" y="306" type="line" smooth="yes"/>
      <point x="199" y="306"/>
      <point x="155" y="348"/>
      <point x="155" y="406" type="curve" smooth="yes"/>
      <point x="155" y="464"/>
      <point x="209" y="515"/>
      <point x="275" y="515" type="curve" smooth="yes"/>
      <point x="331" y="515" type="line" smooth="yes"/>
      <point x="409" y="515"/>
      <point x="443" y="479"/>
      <point x="459" y="425" type="curve"/>
      <point x="509" y="425" type="line"/>
      <point x="493" y="509"/>
      <point x="442" y="560"/>
      <point x="331" y="560" type="curve" smooth="yes"/>
      <point x="275" y="560" type="line" smooth="yes"/>
      <point x="176" y="560"/>
      <point x="105" y="495"/>
      <point x="105" y="410" type="curve" smooth="yes"/>
      <point x="105" y="339"/>
      <point x="142" y="287"/>
      <point x="205" y="283" type="curve"/>
      <point x="205" y="279" type="line"/>
      <point x="136" y="274"/>
      <point x="95" y="217"/>
      <point x="95" y="146" type="curve" smooth="yes"/>
      <point x="95" y="55"/>
      <point x="165" y="-10"/>
      <point x="270" y="-10" type="curve" smooth="yes"/>
    </contour>
  </outline>
</glyph>
<glyph name="zeta" format="2">
  <advance width="600"/>
  <unicode hex="03B6"/>
  <outline>
    <contour>
      <point x="466" y="-180" type="line"/>
      <point x="516" y="-180" type="line"/>
      <point x="516" y="-46" type="line" smooth="yes"/>
      <point x="516" y="10"/>
      <point x="479" y="45"/>
      <point x="419" y="45" type="curve" smooth="yes"/>
      <point x="265" y="45" type="line" smooth="yes"/>
      <point x="180" y="45"/>
      <point x="134" y="89"/>
      <point x="134" y="171" type="curve" smooth="yes"/>
      <point x="134" y="243"/>
      <point x="167" y="322"/>
      <point x="383" y="554" type="curve" smooth="yes"/>
      <point x="495" y="674" type="line"/>
      <point x="495" y="730" type="line"/>
      <point x="95" y="730" type="line"/>
      <point x="95" y="685" type="line"/>
      <point x="447" y="685" type="line"/>
      <point x="349" y="583" type="line" smooth="yes"/>
      <point x="115" y="332"/>
      <point x="84" y="251"/>
      <point x="84" y="171" type="curve" smooth="yes"/>
      <point x="84" y="60"/>
      <point x="147" y="0"/>
      <point x="265" y="0" type="curve" smooth="yes"/>
      <point x="419" y="0" type="line" smooth="yes"/>
      <point x="448" y="0"/>
      <point x="466" y="-18"/>
      <point x="466" y="-46" type="curve" smooth="yes"/>
    </contour>
  </outline>
</glyph>
<glyph name="theta" format="2">
  <advance width="600"/>
  <unicode hex="03B8"/>
  <outline>
    <contour>
      <point x="300" y="-10" type="curve" smooth="yes"/>
      <point x="419" y="-10"/>
      <point x="495" y="68"/>
      <point x="495" y="190" type="curve" smooth="yes"/>
      <point x="495" y="530" type="line" smooth="yes"/>
      <point x="495" y="651"/>
      <point x="418" y="730"/>
      <point x="300" y="730" type="curve" smooth="yes"/>
      <point x="182" y="730"/>
      <point x="105" y="651"/>
      <point x="105" y="530" type="curve" smooth="yes"/>
      <point x="105" y="190" type="line" smooth="yes"/>
      <point x="105" y="68"/>
      <point x="182" y="-10"/>
    </contour>
    <contour>
      <point x="300" y="34" type="curve" smooth="yes"/>
      <point x="208" y="34"/>
      <point x="155" y="91"/>
      <point x="155" y="190" type="curve" smooth="yes"/>
      <point x="155" y="352" type="line"/>
      <point x="445" y="352" type="line"/>
      <point x="445" y="190" type="line" smooth="yes"/>
      <point x="445" y="91"/>
      <point x="392" y="34"/>
    </contour>
    <contour>
      <point x="155" y="397" type="line"/>
      <point x="155" y="530" type="line" smooth="yes"/>
      <point x="155" y="628"/>
      <point x="209" y="686"/>
      <point x="300" y="686" type="curve" smooth="yes"/>
      <point x="391" y="686"/>
      <point x="445" y="628"/>
      <point x="445" y="530" type="curve" smooth="yes"/>
      <point x="445" y="397" type="line"/>
    </contour>
  </outline>
</glyph>
<glyph name="mu" format="2">
  <advance width="600"/>
  <unicode hex="03BC"/>
  <outline>
    <contour>
      <point x="110" y="-180" type="line"/>
      <point x="160" y="-180" type="line"/>
      <point x="160" y="0" type="line"/>
      <point x="160" y="75" type="line"/>
      <point x="178" y="75" type="line"/>
      <point x="150" y="140" type="line"/>
      <point x="150" y="50"/>
      <point x="211" y="-10"/>
      <point x="302" y="-10" type="curve" smooth="yes"/>
      <point x="394" y="-10"/>
      <point x="455" y="50"/>
      <point x="455" y="140" type="curve"/>
      <point x="427" y="75" type="line"/>
      <point x="445" y="75" type="line"/>
      <point x="445" y="0" type="line"/>
      <point x="495" y="0" type="line"/>
      <point x="495" y="550" type="line"/>
      <point x="445" y="550" type="line"/>
      <point x="445" y="190" type="line" smooth="yes"/>
      <point x="445" y="91"/>
      <point x="392" y="33"/>
      <point x="302" y="33" type="curve" smooth="yes"/>
      <point x="212" y="33"/>
      <point x="160" y="91"/>
      <point x="160" y="190" type="curve"/>
      <point x="160" y="550" type="line"/>
      <point x="110" y="550" type="line"/>
    </contour>
  </outline>
</glyph>
<glyph name="xi" format="2">
  <advance width="600"/>
  <unicode hex="03BE"/>
  <outline>
    <contour>
      <point x="500" y="-180" type="line"/>
      <point x="550" y="-180" type="line"/>
      <point x="550" y="-46" type="line" smooth="yes"/>
      <point x="550" y="10"/>
      <point x="513" y="45"/>
      <point x="453" y="45" type="curve" smooth="yes"/>
      <point x="321" y="45" type="line" smooth="yes"/>
      <point x="219" y="45"/>
      <point x="155" y="107"/>
      <point x="155" y="206" type="curve" smooth="yes"/>
      <point x="155" y="305"/>
      <point x="219" y="367"/>
      <point x="321" y="367" type="curve" smooth="yes"/>
      <point x="470" y="367" type="line"/>
      <point x="470" y="412" type="line"/>
      <point x="321" y="412" type="line" smooth="yes"/>
      <point x="228" y="412"/>
      <point x="170" y="464"/>
      <point x="170" y="548" type="curve" smooth="yes"/>
      <point x="170" y="632"/>
      <point x="230" y="685"/>
      <point x="326" y="685" type="curve" smooth="yes"/>
      <point x="502" y="685" type="line"/>
      <point x="502" y="730" type="line"/>
      <point x="326" y="730" type="line" smooth="yes"/>
      <point x="199" y="730"/>
      <point x="120" y="660"/>
      <point x="120" y="548" type="curve" smooth="yes"/>
      <point x="120" y="449"/>
      <point x="183" y="387"/>
      <point x="284" y="387" type="curve"/>
      <point x="284" y="393" type="line"/>
      <point x="174" y="393"/>
      <point x="105" y="321"/>
      <point x="105" y="206" type="curve" smooth="yes"/>
      <point x="105" y="79"/>
      <point x="188" y="0"/>
      <point x="321" y="0" type="curve" smooth="yes"/>
      <point x="453" y="0" type="line" smooth="yes"/>
      <point x="482" y="0"/>
      <point x="500" y="-18"/>
      <point x="500" y="-46" type="curve" smooth="yes"/>
    </contour>
  </outline>
</glyph>
<glyph name="sigma" format="2">
  <advance width="600"/>
  <unicode hex="03C3"/>
  <outline>
    <contour>
      <point x="300" y="-10" type="curve" smooth="yes"/>
      <point x="419" y="-10"/>
      <point x="495" y="68"/>
      <point x="495" y="190" type="curve" smooth="yes"/>
      <point x="495" y="360" type="line" smooth="yes"/>
      <point x="495" y="450"/>
      <point x="442" y="512"/>
      <point x="365" y="512" type="curve"/>
      <point x="403" y="488" type="line"/>
      <point x="403" y="506" type="line"/>
      <point x="520" y="506" type="line"/>
      <point x="520" y="550" type="line"/>
      <point x="300" y="550" type="line" smooth="yes"/>
      <point x="184" y="550"/>
      <point x="105" y="473"/>
      <point x="105" y="360" type="curve" smooth="yes"/>
      <point x="105" y="190" type="line" smooth="yes"/>
      <point x="105" y="68"/>
      <point x="182" y="-10"/>
    </contour>
    <contour>
      <point x="300" y="34" type="curve" smooth="yes"/>
      <point x="208" y="34"/>
      <point x="155" y="91"/>
      <point x="155" y="190" type="curve" smooth="yes"/>
      <point x="155" y="360" type="line" smooth="yes"/>
      <point x="155" y="458"/>
      <point x="209" y="506"/>
      <point x="300" y="506" type="curve" smooth="yes"/>
      <point x="411" y="506"/>
      <point x="445" y="458"/>
      <point x="445" y="360" type="curve" smooth="yes"/>
      <point x="445" y="190" type="line" smooth="yes"/>
      <point x="445" y="91"/>
      <point x="392" y="34"/>
    </contour>
  </outline>
</glyph>
<glyph name="tau" format="2">
  <advance width="600"/>
  <unicode hex="03C4"/>
  <outline>
    <contour>
      <point x="385" y="0" type="curve" smooth="yes"/>
      <point x="495" y="0" type="line"/>
      <point x="495" y="45" type="line"/>
      <point x="385" y="45" type="line" smooth="yes"/>
      <point x="333" y="45"/>
      <point x="305" y="73"/>
      <point x="305" y="125" type="curve" smooth="yes"/>
      <point x="305" y="505" type="line"/>
      <point x="505" y="505" type="line"/>
      <point x="505" y="550" type="line"/>
      <point x="70" y="550" type="line"/>
      <point x="70" y="505" type="line"/>
      <point x="255" y="505" type="line"/>
      <point x="255" y="125" type="line" smooth="yes"/>
      <point x="255" y="44"/>
      <point x="301" y="0"/>
    </contour>
  </outline>
</glyph>
<glyph name="phi" format="2">
  <advance width="600"/>
  <unicode hex="03C6"/>
  <outline>
    <contour>
      <point x="275" y="-180" type="line"/>
      <point x="325" y="-180" type="line"/>
      <point x="325" y="0" type="line"/>
      <point x="456" y="0"/>
      <point x="530" y="75"/>
      <point x="530" y="202" type="curve" smooth="yes"/>
      <point x="530" y="382" type="line" smooth="yes"/>
      <point x="530" y="487"/>
      <point x="467" y="550"/>
      <point x="362" y="550" type="curve" smooth="yes"/>
      <point x="277" y="550" type="line"/>
      <point x="277" y="44" type="line"/>
      <point x="175" y="44"/>
      <point x="118" y="103"/>
      <point x="118" y="202" type="curve" smooth="yes"/>
      <point x="118" y="550" type="line"/>
      <point x="70" y="550" type="line"/>
      <point x="70" y="202" type="line" smooth="yes"/>
      <point x="70" y="75"/>
      <point x="144" y="0"/>
      <point x="275" y="0" type="curve"/>
    </contour>
    <contour>
      <point x="323" y="44" type="curve"/>
      <point x="323" y="506" type="line"/>
      <point x="362" y="506" type="line" smooth="yes"/>
      <point x="437" y="506"/>
      <point x="482" y="460"/>
      <point x="482" y="382" type="curve" smooth="yes"/>
      <point x="482" y="202" type="line" smooth="yes"/>
      <point x="482" y="103"/>
      <point x="425" y="44"/>
    </contour>
  </outline>
</glyph>
<glyph name="psi" format="2">
  <advance width="600"/>
  <unicode hex="03C8"/>
  <outline>
    <contour>
      <point x="275" y="-180" type="line"/>
      <point x="325" y="-180" type="line"/>
      <point x="325" y="0" type="line"/>
      <point x="454" y="0"/>
      <point x="526" y="78"/>
      <point x="526" y="202" type="curve" smooth="yes"/>
      <point x="526" y="550" type="line"/>
      <point x="478" y="550" type="line"/>
      <point x="478" y="202" type="line" smooth="yes"/>
      <point x="478" y="101"/>
      <point x="422" y="48"/>
      <point x="323" y="48" type="curve"/>
      <point x="323" y="550" type="line"/>
      <point x="277" y="550" type="line"/>
      <point x="277" y="48" type="line"/>
      <point x="178" y="48"/>
      <point x="122" y="101"/>
      <point x="122" y="202" type="curve" smooth="yes"/>
      <point x="122" y="550" type="line"/>
      <point x="74" y="550" type="line"/>
      <point x="74" y="202" type="line" smooth="yes"/>
      <point x="74" y="78"/>
      <point x="146" y="0"/>
      <point x="275" y="0" type="curve"/>
    </contour>
  </outline>
</glyph>
<glyph name="KaiSymbol" format="2">
  <advance width="600"/>
  <unicode hex="03CF"/>
  <anchor x="300" y="0" name="bottom"/>
  <anchor x="300" y="730" name="top"/>
  <outline>
    <contour>
      <point x="365" y="-180" type="line"/>
      <point x="410" y="-180" type="line" smooth="yes"/>
      <point x="507" y="-180"/>
      <point x="560" y="-129"/>
      <point x="560" y="-35" type="curve" smooth="yes"/>
      <point x="560" y="51" type="line"/>
      <point x="510" y="51" type="line"/>
      <point x="510" y="-35" type="line" smooth="yes"/>
      <point x="510" y="-99"/>
      <point x="474" y="-135"/>
      <point x="410" y="-135" type="curve" smooth="yes"/>
      <point x="365" y="-135" type="line"/>
    </contour>
    <component base="K"/>
  </outline>
</glyph>
<glyph name="kaiSymbol" format="2">
  <advance width="600"/>
  <unicode hex="03D7"/>
  <anchor x="580" y="0" name="bottomright"/>
  <anchor x="300" y="550" name="top"/>
  <outline>
    <contour>
      <point x="325" y="-180" type="line"/>
      <point x="370" y="-180" type="line" smooth="yes"/>
      <point x="467" y="-180"/>
      <point x="520" y="-129"/>
      <point x="520" y="-35" type="curve" smooth="yes"/>
      <point x="520" y="51" type="line"/>
      <point x="470" y="51" type="line"/>
      <point x="470" y="-35" type="line" smooth="yes"/>
      <point x="470" y="-99"/>
      <point x="434" y="-135"/>
      <point x="370" y="-135" type="curve" smooth="yes"/>
      <point x="325" y="-135" type="line"/>
    </contour>
    <component base="ii-cy"/>
  </outline>
</glyph>
<glyph name="Ge-cy" format="2">
  <advance width="600"/>
  <unicode hex="0413"/>
  <anchor x="580" y="0" name="bottomright"/>
  <anchor x="320" y="730" name="top"/>
  <outline>
    <contour>
      <point x="140" y="0" type="line"/>
      <point x="190" y="0" type="line"/>
      <point x="190" y="685" type="line"/>
      <point x="545" y="685" type="line"/>
      <point x="545" y="730" type="line"/>
      <point x="140" y="730" type="line"/>
    </contour>
  </outline>
</glyph>
<glyph name="Ze-cy" format="2">
  <advance width="600"/>
  <unicode hex="0417"/>
  <outline>
    <contour>
      <point x="290" y="-10" type="curve" smooth="yes"/>
      <point x="424" y="-10"/>
      <point x="516" y="74"/>
      <point x="516" y="196" type="curve" smooth="yes"/>
      <point x="516" y="305"/>
      <point x="440" y="380"/>
      <point x="330" y="380" type="curve"/>
      <point x="330" y="370" type="line"/>
      <point x="430" y="370"/>
      <point x="498" y="442"/>
      <point x="498" y="547" type="curve" smooth="yes"/>
      <point x="498" y="661"/>
      <point x="411" y="740"/>
      <point x="285" y="740" type="curve" smooth="yes"/>
      <point x="159" y="740"/>
      <point x="72" y="661"/>
      <point x="72" y="547" type="curve"/>
      <point x="122" y="547" type="line"/>
      <point x="122" y="635"/>
      <point x="188" y="696"/>
      <point x="285" y="696" type="curve" smooth="yes"/>
      <point x="382" y="696"/>
      <point x="448" y="635"/>
      <point x="448" y="547" type="curve" smooth="yes"/>
      <point x="448" y="459"/>
      <point x="382" y="398"/>
      <point x="285" y="398" type="curve" smooth="yes"/>
      <point x="215" y="398" type="line"/>
      <point x="215" y="353" type="line"/>
      <point x="290" y="353" type="line" smooth="yes"/>
      <point x="394" y="353"/>
      <point x="466" y="288"/>
      <point x="466" y="193" type="curve" smooth="yes"/>
      <point x="466" y="99"/>
      <point x="394" y="35"/>
      <point x="290" y="35" type="curve" smooth="yes"/>
      <point x="186" y="35"/>
      <point x="114" y="99"/>
      <point x="114" y="193" type="curve"/>
      <point x="64" y="193" type="line"/>
      <point x="64" y="73"/>
      <point x="156" y="-10"/>
    </contour>
  </outline>
</glyph>
<glyph name="Ii-cy" format="2">
  <advance width="600"/>
  <unicode hex="0418"/>
  <anchor x="580" y="0" name="bottomright"/>
  <anchor x="300" y="730" name="top"/>
  <outline>
    <contour>
      <point x="109" y="0" type="line"/>
      <point x="178" y="0" type="line"/>
      <point x="447" y="675" type="line"/>
      <point x="445" y="635"/>
      <point x="443" y="575"/>
      <point x="443" y="560" type="curve" smooth="yes"/>
      <point x="443" y="0" type="line"/>
      <point x="491" y="0" type="line"/>
      <point x="491" y="730" type="line"/>
      <point x="421" y="730" type="line"/>
      <point x="155" y="55" type="line"/>
      <point x="156" y="74"/>
      <point x="157" y="119"/>
      <point x="157" y="170" type="curve" smooth="yes"/>
      <point x="157" y="730" type="line"/>
      <point x="109" y="730" type="line"/>
    </contour>
  </outline>
</glyph>
<glyph name="Che-cy" format="2">
  <advance width="600"/>
  <unicode hex="0427"/>
  <outline>
    <contour>
      <point x="440" y="0" type="line"/>
      <point x="490" y="0" type="line"/>
      <point x="490" y="730" type="line"/>
      <point x="440" y="730" type="line"/>
      <point x="440" y="356" type="line"/>
      <point x="405" y="349"/>
      <point x="352" y="345"/>
      <point x="309" y="345" type="curve" smooth="yes"/>
      <point x="191" y="345"/>
      <point x="140" y="389"/>
      <point x="140" y="491" type="curve" smooth="yes"/>
      <point x="140" y="730" type="line"/>
      <point x="90" y="730" type="line"/>
      <point x="90" y="491" type="line" smooth="yes"/>
      <point x="90" y="362"/>
      <point x="158" y="300"/>
      <point x="299" y="300" type="curve" smooth="yes"/>
      <point x="348" y="300"/>
      <point x="405" y="305"/>
      <point x="441" y="312" type="curve"/>
    </contour>
  </outline>
</glyph>
<glyph name="Ia-cy" format="2">
  <advance width="600"/>
  <unicode hex="042F"/>
  <outline>
    <contour>
      <point x="72" y="0" type="line"/>
      <point x="130" y="0" type="line"/>
      <point x="294" y="330" type="line"/>
      <point x="440" y="330" type="line"/>
      <point x="440" y="0" type="line"/>
      <point x="490" y="0" type="line"/>
      <point x="490" y="730" type="line"/>
      <point x="285" y="730" type="line" smooth="yes"/>
      <point x="156" y="730"/>
      <point x="75" y="652"/>
      <point x="75" y="528" type="curve" smooth="yes"/>
      <point x="75" y="422"/>
      <point x="138" y="347"/>
      <point x="240" y="332" type="curve"/>
    </contour>
    <contour>
      <point x="285" y="375" type="line" smooth="yes"/>
      <point x="188" y="375"/>
      <point x="125" y="436"/>
      <point x="125" y="530" type="curve" smooth="yes"/>
      <point x="125" y="624"/>
      <point x="188" y="685"/>
      <point x="285" y="685" type="curve" smooth="yes"/>
      <point x="440" y="685" type="line"/>
      <point x="440" y="375" type="line"/>
    </contour>
  </outline>
</glyph>
<glyph name="be-cy" format="2">
  <advance width="600"/>
  <unicode hex="0431"/>
  <outline>
    <contour>
      <point x="303" y="-10" type="curve" smooth="yes"/>
      <point x="427" y="-10"/>
      <point x="497" y="66"/>
      <point x="497" y="200" type="curve" smooth="yes"/>
      <point x="497" y="285" type="line" smooth="yes"/>
      <point x="497" y="421"/>
      <point x="432" y="495"/>
      <point x="313" y="495" type="curve" smooth="yes"/>
      <point x="214" y="495"/>
      <point x="155" y="445"/>
      <point x="155" y="358" type="curve"/>
      <point x="169" y="393" type="line"/>
      <point x="155" y="393" type="line"/>
      <point x="155" y="475" type="line" smooth="yes"/>
      <point x="155" y="606"/>
      <point x="225" y="680"/>
      <point x="347" y="680" type="curve" smooth="yes"/>
      <point x="472" y="680" type="line"/>
      <point x="472" y="730" type="line"/>
      <point x="347" y="730" type="line" smooth="yes"/>
      <point x="192" y="730"/>
      <point x="107" y="640"/>
      <point x="107" y="475" type="curve" smooth="yes"/>
      <point x="107" y="200" type="line" smooth="yes"/>
      <point x="107" y="66"/>
      <point x="178" y="-10"/>
    </contour>
    <contour>
      <point x="303" y="35" type="curve" smooth="yes"/>
      <point x="212" y="35"/>
      <point x="157" y="97"/>
      <point x="157" y="200" type="curve" smooth="yes"/>
      <point x="157" y="285" type="line" smooth="yes"/>
      <point x="157" y="385"/>
      <point x="209" y="452"/>
      <point x="303" y="452" type="curve" smooth="yes"/>
      <point x="393" y="452"/>
      <point x="447" y="389"/>
      <point x="447" y="285" type="curve" smooth="yes"/>
      <point x="447" y="200" type="line" smooth="yes"/>
      <point x="447" y="97"/>
      <point x="393" y="35"/>
    </contour>
  </outline>
</glyph>
<glyph name="ii-cy" format="2">
  <advance width="600"/>
  <unicode hex="0438"/>
  <anchor x="580" y="0" name="bottomright"/>
  <anchor x="300" y="550" name="top"/>
  <outline>
    <contour>
      <point x="110" y="0" type="line"/>
      <point x="177" y="0" type="line"/>
      <point x="444" y="505" type="line"/>
      <point x="442" y="468"/>
      <point x="440" y="401"/>
      <point x="440" y="350" type="curve" smooth="yes"/>
      <point x="440" y="0" type="line"/>
      <point x="490" y="0" type="line"/>
      <point x="490" y="550" type="line"/>
      <point x="422" y="550" type="line"/>
      <point x="156" y="45" type="line"/>
      <point x="158" y="82"/>
      <point x="160" y="149"/>
      <point x="160" y="200" type="curve" smooth="yes"/>
      <point x="160" y="550" type="line"/>
      <point x="110" y="550" type="line"/>
    </contour>
  </outline>
</glyph>
<glyph name="el-cy" format="2">
  <advance width="600"/>
  <unicode hex="043B"/>
  <outline>
    <contour>
      <point x="35" y="-7" type="line"/>
      <point x="60" y="-7" type="line" smooth="yes"/>
      <point x="143" y="-7"/>
      <point x="193" y="62"/>
      <point x="196" y="167" type="curve" smooth="yes"/>
      <point x="205" y="505" type="line"/>
      <point x="440" y="505" type="line"/>
      <point x="440" y="0" type="line"/>
      <point x="490" y="0" type="line"/>
      <point x="490" y="550" type="line"/>
      <point x="155" y="550" type="line"/>
      <point x="147" y="167" type="line" smooth="yes"/>
      <point x="145" y="94"/>
      <point x="111" y="43"/>
      <point x="60" y="43" type="curve" smooth="yes"/>
      <point x="35" y="43" type="line"/>
    </contour>
  </outline>
</glyph>
<glyph name="en-cy" format="2">
  <advance width="600"/>
  <unicode hex="043D"/>
  <outline>
    <contour>
      <point x="110" y="0" type="line"/>
      <point x="160" y="0" type="line"/>
      <point x="160" y="261" type="line"/>
      <point x="439" y="261" type="line"/>
      <point x="439" y="0" type="line"/>
      <point x="490" y="0" type="line"/>
      <point x="490" y="550" type="line"/>
      <point x="439" y="550" type="line"/>
      <point x="439" y="306" type="line"/>
      <point x="160" y="306" type="line"/>
      <point x="160" y="550" type="line"/>
      <point x="110" y="550" type="line"/>
    </contour>
  </outline>
</glyph>
<glyph name="che-cy" format="2">
  <advance width="600"/>
  <unicode hex="0447"/>
  <outline>
    <contour>
      <point x="436" y="0" type="line"/>
      <point x="486" y="0" type="line"/>
      <point x="486" y="550" type="line"/>
      <point x="436" y="550" type="line"/>
      <point x="436" y="256" type="line"/>
      <point x="406" y="250"/>
      <point x="354" y="246"/>
      <point x="307" y="246" type="curve" smooth="yes"/>
      <point x="194" y="246"/>
      <point x="145" y="288"/>
      <point x="145" y="386" type="curve" smooth="yes"/>
      <point x="145" y="550" type="line"/>
      <point x="95" y="550" type="line"/>
      <point x="95" y="386" type="line" smooth="yes"/>
      <point x="95" y="256"/>
      <point x="158" y="200"/>
      <point x="305" y="200" type="curve" smooth="yes"/>
      <point x="354" y="200"/>
      <point x="407" y="204"/>
      <point x="437" y="210" type="curve"/>
    </contour>
  </outline>
</glyph>
<glyph name="Ghestroke-cy" format="2">
  <advance width="600"/>
  <unicode hex="0492"/>
  <anchor x="590" y="0" name="bottomright"/>
  <anchor x="330" y="730" name="top"/>
  <outline>
    <contour>
      <point x="40" y="347" type="line"/>
      <point x="370" y="347" type="line"/>
      <point x="370" y="392" type="line"/>
      <point x="40" y="392" type="line"/>
    </contour>
    <component base="Ge-cy" xOffset="10"/>
  </outline>
</glyph>
<glyph name="Kadescender-cy" format="2">
  <advance width="600"/>
  <unicode hex="049A"/>
  <anchor x="295" y="0" name="bottom"/>
  <anchor x="295" y="730" name="top"/>
  <outline>
    <contour>
      <point x="510" y="-140" type="line"/>
      <point x="560" y="-140" type="line"/>
      <point x="560" y="45" type="line"/>
      <point x="510" y="45" type="line"/>
    </contour>
    <component base="K" xOffset="-5"/>
  </outline>
</glyph>
<glyph name="Endescender-cy" format="2">
  <advance width="600"/>
  <unicode hex="04A2"/>
  <anchor x="298" y="0" name="bottom"/>
  <anchor x="298" y="365" name="center"/>
  <anchor x="298" y="730" name="top"/>
  <anchor x="18" y="730" name="topleft"/>
  <outline>
    <contour>
      <point x="485" y="-140" type="line"/>
      <point x="535" y="-140" type="line"/>
      <point x="535" y="45" type="line"/>
      <point x="485" y="45" type="line"/>
    </contour>
    <component base="H" xOffset="-2"/>
  </outline>
</glyph>
<glyph name="endescender-cy" format="2">
  <advance width="600"/>
  <unicode hex="04A3"/>
  <anchor x="490" y="0" name="stick-cy"/>
  <outline>
    <contour>
      <point x="108" y="0" type="line"/>
      <point x="158" y="0" type="line"/>
      <point x="158" y="259" type="line"/>
      <point x="437" y="259" type="line"/>
      <point x="437" y="0" type="line"/>
      <point x="488" y="0" type="line"/>
      <point x="488" y="550" type="line"/>
      <point x="437" y="550" type="line"/>
      <point x="437" y="304" type="line"/>
      <point x="158" y="304" type="line"/>
      <point x="158" y="550" type="line"/>
      <point x="108" y="550" type="line"/>
    </contour>
    <contour>
      <point x="485" y="-140" type="line"/>
      <point x="535" y="-140" type="line"/>
      <point x="535" y="45" type="line"/>
      <point x="485" y="45" type="line"/>
    </contour>
  </outline>
</glyph>
<glyph name="Chedescender-cy" format="2">
  <advance width="600"/>
  <unicode hex="04B6"/>
  <outline>
    <contour>
      <point x="477" y="-140" type="line"/>
      <point x="527" y="-140" type="line"/>
      <point x="527" y="45" type="line"/>
      <point x="477" y="45" type="line"/>
    </contour>
    <component base="Che-cy" xOffset="-10"/>
  </outline>
</glyph>
<glyph name="Schwa-cy" format="2">
  <advance width="600"/>
  <unicode hex="04D8"/>
  <outline>
    <contour>
      <point x="298" y="-10" type="curve" smooth="yes"/>
      <point x="422" y="-10"/>
      <point x="500" y="67"/>
      <point x="500" y="190" type="curve" smooth="yes"/>
      <point x="500" y="540" type="line" smooth="yes"/>
      <point x="500" y="663"/>
      <point x="422" y="740"/>
      <point x="298" y="740" type="curve" smooth="yes"/>
      <point x="173" y="740"/>
      <point x="95" y="659"/>
      <point x="95" y="530" type="curve"/>
      <point x="145" y="530" type="line"/>
      <point x="145" y="632"/>
      <point x="204" y="695"/>
      <point x="298" y="695" type="curve" smooth="yes"/>
      <point x="392" y="695"/>
      <point x="450" y="635"/>
      <point x="450" y="540" type="curve" smooth="yes"/>
      <point x="450" y="391" type="line"/>
      <point x="95" y="391" type="line"/>
      <point x="95" y="200" type="line" smooth="yes"/>
      <point x="95" y="71"/>
      <point x="173" y="-10"/>
    </contour>
    <contour>
      <point x="298" y="35" type="curve" smooth="yes"/>
      <point x="204" y="35"/>
      <point x="145" y="98"/>
      <point x="145" y="200" type="curve" smooth="yes"/>
      <point x="145" y="346" type="line"/>
      <point x="450" y="346" type="line"/>
      <point x="450" y="190" type="line" smooth="yes"/>
      <point x="450" y="95"/>
      <point x="392" y="35"/>
    </contour>
  </outline>
</glyph>
<glyph name="quotesinglbase" format="2">
  <advance width="600"/>
  <unicode hex="201A"/>
  <outline>
    <contour>
      <point x="244" y="-160" type="curve"/>
      <point x="293" y="-160" type="line"/>
      <point x="349" y="-45"/>
      <point x="370" y="-4"/>
      <point x="370" y="42" type="curve" smooth="yes"/>
      <point x="370" y="113"/>
      <point x="321" y="159"/>
      <point x="240" y="159" type="curve" smooth="yes"/>
      <point x="205" y="159" type="line"/>
      <point x="205" y="114" type="line"/>
      <point x="240" y="114" type="line" smooth="yes"/>
      <point x="292" y="114"/>
      <point x="323" y="85"/>
      <point x="323" y="42" type="curve" smooth="yes"/>
      <point x="323" y="5"/>
      <point x="305" y="-37"/>
    </contour>
  </outline>
</glyph>
<glyph name="bracketleftwithquill" format="2">
  <advance width="600"/>
  <unicode hex="2045"/>
  <outline>
    <contour>
      <point x="220" y="-110" type="line"/>
      <point x="445" y="-110" type="line"/>
      <point x="445" y="-65" type="line"/>
      <point x="270" y="-65" type="line"/>
      <point x="270" y="355" type="line"/>
      <point x="445" y="355" type="line"/>
      <point x="445" y="400" type="line"/>
      <point x="270" y="400" type="line"/>
      <point x="270" y="785" type="line"/>
      <point x="445" y="785" type="line"/>
      <point x="445" y="830" type="line"/>
      <point x="220" y="830" type="line"/>
    </contour>
  </outline>
</glyph>
<glyph name="bracketrightwithquill" format="2">
  <advance width="600"/>
  <unicode hex="2046"/>
  <outline>
    <contour>
      <point x="380" y="-110" type="line"/>
      <point x="380" y="830" type="line"/>
      <point x="155" y="830" type="line"/>
      <point x="155" y="785" type="line"/>
      <point x="330" y="785" type="line"/>
      <point x="330" y="400" type="line"/>
      <point x="155" y="400" type="line"/>
      <point x="155" y="355" type="line"/>
      <point x="330" y="355" type="line"/>
      <point x="330" y="-65" type="line"/>
      <point x="155" y="-65" type="line"/>
      <point x="155" y="-110" type="line"/>
    </contour>
  </outline>
</glyph>
<glyph name="plussuperior" format="2">
  <advance width="600"/>
  <unicode hex="207A"/>
  <outline>
    <contour>
      <point x="280" y="305" type="line"/>
      <point x="320" y="305" type="line"/>
      <point x="320" y="426" type="line"/>
      <point x="440" y="426" type="line"/>
      <point x="440" y="464" type="line"/>
      <point x="319" y="464" type="line"/>
      <point x="320" y="585" type="line"/>
      <point x="280" y="585" type="line"/>
      <point x="280" y="464" type="line"/>
      <point x="160" y="464" type="line"/>
      <point x="160" y="426" type="line"/>
      <point x="280" y="426" type="line"/>
    </contour>
  </outline>
</glyph>
<glyph name="summationdoubleStruck" format="2">
  <advance width="600"/>
  <unicode hex="2140"/>
  <outline>
    <contour>
      <point x="55" y="-180" type="line"/>
      <point x="540" y="-180" type="line"/>
      <point x="540" y="-134" type="line"/>
      <point x="208" y="-134" type="line"/>
      <point x="458" y="270" type="line"/>
      <point x="208" y="684" type="line"/>
      <point x="540" y="684" type="line"/>
      <point x="540" y="730" type="line"/>
      <point x="55" y="730" type="line"/>
      <point x="55" y="680" type="line"/>
      <point x="305" y="274" type="line"/>
      <point x="55" y="-130" type="line"/>
    </contour>
    <contour>
      <point x="98" y="-134" type="line"/>
      <point x="350" y="274" type="line"/>
      <point x="98" y="684" type="line"/>
      <point x="163" y="684" type="line"/>
      <point x="416" y="274" type="line"/>
      <point x="163" y="-134" type="line"/>
    </contour>
  </outline>
</glyph>
<glyph name="upDoubleArrow" format="2">
  <advance width="600"/>
  <unicode hex="21D1"/>
  <outline>
    <contour>
      <point x="365" y="-180" type="line"/>
      <point x="415" y="-180" type="line"/>
      <point x="415" y="725" type="line"/>
      <point x="610" y="536" type="line"/>
      <point x="610" y="601" type="line"/>
      <point x="365" y="839" type="line"/>
    </contour>
    <contour>
      <point x="185" y="-180" type="line"/>
      <point x="235" y="-180" type="line"/>
      <point x="235" y="839" type="line"/>
      <point x="-10" y="601" type="line"/>
      <point x="-10" y="536" type="line"/>
      <point x="185" y="725" type="line"/>
    </contour>
  </outline>
</glyph>
<glyph name="rightDoubleArrow" format="2">
  <advance width="600"/>
  <unicode hex="21D2"/>
  <outline>
    <contour>
      <point x="343" y="35" type="line"/>
      <point x="449" y="35" type="line"/>
      <point x="680" y="330" type="line"/>
      <point x="448" y="625" type="line"/>
      <point x="343" y="625" type="line"/>
      <point x="449" y="490" type="line"/>
      <point x="-80" y="490" type="line"/>
      <point x="-80" y="410" type="line"/>
      <point x="512" y="410" type="line"/>
      <point x="575" y="330" type="line"/>
      <point x="512" y="250" type="line"/>
      <point x="-80" y="250" type="line"/>
      <point x="-80" y="170" type="line"/>
      <point x="449" y="170" type="line"/>
    </contour>
  </outline>
</glyph>
<glyph name="emptyset" format="2">
  <advance width="600"/>
  <unicode hex="2205"/>
  <outline>
    <contour>
      <point x="300" y="50" type="curve" smooth="yes"/>
      <point x="477" y="50"/>
      <point x="610" y="183"/>
      <point x="610" y="360" type="curve" smooth="yes"/>
      <point x="610" y="537"/>
      <point x="477" y="670"/>
      <point x="300" y="670" type="curve" smooth="yes"/>
      <point x="123" y="670"/>
      <point x="-10" y="537"/>
      <point x="-10" y="360" type="curve" smooth="yes"/>
      <point x="-10" y="183"/>
      <point x="123" y="50"/>
    </contour>
    <contour>
      <point x="300" y="95" type="curve" smooth="yes"/>
      <point x="152" y="95"/>
      <point x="40" y="209"/>
      <point x="40" y="360" type="curve" smooth="yes"/>
      <point x="40" y="511"/>
      <point x="152" y="625"/>
      <point x="300" y="625" type="curve" smooth="yes"/>
      <point x="448" y="625"/>
      <point x="560" y="511"/>
      <point x="560" y="360" type="curve" smooth="yes"/>
      <point x="560" y="209"/>
      <point x="448" y="95"/>
    </contour>
    <contour>
      <point x="20" y="0" type="line"/>
      <point x="74" y="0" type="line"/>
      <point x="580" y="730" type="line"/>
      <point x="526" y="730" type="line"/>
    </contour>
  </outline>
</glyph>
<glyph name="summation" format="2">
  <advance width="600"/>
  <unicode hex="2211"/>
  <outline>
    <contour>
      <point x="55" y="-180" type="line"/>
      <point x="540" y="-180" type="line"/>
      <point x="540" y="-135" type="line"/>
      <point x="114" y="-135" type="line"/>
      <point x="428" y="278" type="line"/>
      <point x="116" y="685" type="line"/>
      <point x="540" y="685" type="line"/>
      <point x="540" y="730" type="line"/>
      <point x="55" y="730" type="line"/>
      <point x="55" y="683" type="line"/>
      <point x="366" y="278" type="line"/>
      <point x="55" y="-133" type="line"/>
    </contour>
  </outline>
</glyph>
<glyph name="ringoperator" format="2">
  <advance width="600"/>
  <unicode hex="2218"/>
  <outline>
    <contour>
      <point x="300" y="210" type="curve" smooth="yes"/>
      <point x="370" y="210"/>
      <point x="420" y="260"/>
      <point x="420" y="330" type="curve" smooth="yes"/>
      <point x="420" y="400"/>
      <point x="370" y="450"/>
      <point x="300" y="450" type="curve" smooth="yes"/>
      <point x="230" y="450"/>
      <point x="180" y="400"/>
      <point x="180" y="330" type="curve" smooth="yes"/>
      <point x="180" y="260"/>
      <point x="230" y="210"/>
    </contour>
    <contour>
      <point x="300" y="250" type="curve" smooth="yes"/>
      <point x="253" y="250"/>
      <point x="220" y="283"/>
      <point x="220" y="330" type="curve" smooth="yes"/>
      <point x="220" y="377"/>
      <point x="253" y="410"/>
      <point x="300" y="410" type="curve" smooth="yes"/>
      <point x="347" y="410"/>
      <point x="380" y="377"/>
      <point x="380" y="330" type="curve" smooth="yes"/>
      <point x="380" y="283"/>
      <point x="347" y="250"/>
    </contour>
  </outline>
</glyph>
<glyph name="logicaland" format="2">
  <advance width="600"/>
  <unicode hex="2227"/>
  <outline>
    <contour>
      <point x="76" y="50" type="line"/>
      <point x="127" y="50" type="line"/>
      <point x="266" y="410" type="line" smooth="yes"/>
      <point x="280" y="447"/>
      <point x="293" y="490"/>
      <point x="299" y="513" type="curve"/>
      <point x="305" y="490"/>
      <point x="319" y="446"/>
      <point x="333" y="410" type="curve" smooth="yes"/>
      <point x="472" y="50" type="line"/>
      <point x="524" y="50" type="line"/>
      <point x="331" y="550" type="line"/>
      <point x="269" y="550" type="line"/>
    </contour>
  </outline>
</glyph>
<glyph name="dotminus" format="2">
  <advance width="600"/>
  <unicode hex="2238"/>
  <outline>
    <contour>
      <point x="300" y="336" type="curve" smooth="yes"/>
      <point x="344" y="336"/>
      <point x="373" y="365"/>
      <point x="373" y="408" type="curve" smooth="yes"/>
      <point x="373" y="451"/>
      <point x="344" y="480"/>
      <point x="300" y="480" type="curve" smooth="yes"/>
      <point x="256" y="480"/>
      <point x="227" y="451"/>
      <point x="227" y="408" type="curve" smooth="yes"/>
      <point x="227" y="365"/>
      <point x="256" y="336"/>
    </contour>
    <component base="minus" yOffset="-113"/>
  </outline>
</glyph>
<glyph name="excess" format="2">
  <advance width="600"/>
  <unicode hex="2239"/>
  <outline>
    <contour>
      <point x="0" y="310" type="line"/>
      <point x="350" y="310" type="line"/>
      <point x="350" y="355" type="line"/>
      <point x="0" y="355" type="line"/>
    </contour>
    <contour>
      <point x="515" y="110" type="curve" smooth="yes"/>
      <point x="559" y="110"/>
      <point x="590" y="139"/>
      <point x="590" y="180" type="curve" smooth="yes"/>
      <point x="590" y="221"/>
      <point x="558" y="250"/>
      <point x="515" y="250" type="curve" smooth="yes"/>
      <point x="471" y="250"/>
      <point x="439" y="221"/>
      <point x="439" y="180" type="curve" smooth="yes"/>
      <point x="439" y="139"/>
      <point x="471" y="110"/>
    </contour>
    <contour>
      <point x="515" y="410" type="curve" smooth="yes"/>
      <point x="559" y="410"/>
      <point x="590" y="439"/>
      <point x="590" y="480" type="curve" smooth="yes"/>
      <point x="590" y="521"/>
      <point x="558" y="550"/>
      <point x="515" y="550" type="curve" smooth="yes"/>
      <point x="471" y="550"/>
      <point x="439" y="521"/>
      <point x="439" y="480" type="curve" smooth="yes"/>
      <point x="439" y="439"/>
      <point x="471" y="410"/>
    </contour>
  </outline>
</glyph>
<glyph name="congruent" format="2">
  <advance width="600"/>
  <unicode hex="2245"/>
  <outline>
    <contour>
      <point x="90" y="114" type="line"/>
      <point x="510" y="114" type="line"/>
      <point x="510" y="158" type="line"/>
      <point x="90" y="158" type="line"/>
    </contour>
    <contour>
      <point x="90" y="308" type="line"/>
      <point x="510" y="308" type="line"/>
      <point x="510" y="352" type="line"/>
      <point x="90" y="352" type="line"/>
    </contour>
    <component base="asciitilde" yOffset="185"/>
  </outline>
</glyph>
<glyph name="neitherapproximatelynoractuallyequalto" format="2">
  <advance width="600"/>
  <unicode hex="2247"/>
  <outline>
    <contour>
      <point x="127" y="-100" type="line"/>
      <point x="173" y="-100" type="line"/>
      <point x="472" y="780" type="line"/>
      <point x="426" y="780" type="line"/>
    </contour>
    <contour>
      <point x="90" y="114" type="line"/>
      <point x="510" y="114" type="line"/>
      <point x="510" y="158" type="line"/>
      <point x="90" y="158" type="line"/>
    </contour>
    <contour>
      <point x="90" y="308" type="line"/>
      <point x="510" y="308" type="line"/>
      <point x="510" y="352" type="line"/>
      <point x="90" y="352" type="line"/>
    </contour>
    <component base="asciitilde" yOffset="185"/>
  </outline>
</glyph>
<glyph name="ringequalto" format="2">
  <advance width="600"/>
  <unicode hex="2257"/>
  <outline>
    <contour>
      <point x="95" y="309" type="line"/>
      <point x="505" y="309" type="line"/>
      <point x="505" y="354" type="line"/>
      <point x="95" y="354" type="line"/>
    </contour>
    <contour>
      <point x="95" y="114" type="line"/>
      <point x="505" y="114" type="line"/>
      <point x="505" y="159" type="line"/>
      <point x="95" y="159" type="line"/>
    </contour>
    <component base="ringcomb" xOffset="600" yOffset="-115"/>
  </outline>
</glyph>
<glyph name="questionedequalto" format="2">
  <advance width="600"/>
  <unicode hex="225F"/>
  <outline>
    <contour>
      <point x="264" y="533" type="line"/>
      <point x="302" y="533" type="line"/>
      <point x="302" y="580" type="line"/>
      <point x="332" y="580" type="line" smooth="yes"/>
      <point x="386" y="580"/>
      <point x="425" y="618"/>
      <point x="425" y="670" type="curve" smooth="yes"/>
      <point x="425" y="722"/>
      <point x="386" y="760"/>
      <point x="332" y="760" type="curve" smooth="yes"/>
      <point x="204" y="760" type="line"/>
      <point x="204" y="725" type="line"/>
      <point x="332" y="725" type="line" smooth="yes"/>
      <point x="364" y="725"/>
      <point x="387" y="702"/>
      <point x="387" y="670" type="curve" smooth="yes"/>
      <point x="387" y="638"/>
      <point x="364" y="615"/>
      <point x="332" y="615" type="curve" smooth="yes"/>
      <point x="264" y="615" type="line"/>
    </contour>
    <contour>
      <point x="95" y="114" type="line"/>
      <point x="505" y="114" type="line"/>
      <point x="505" y="159" type="line"/>
      <point x="95" y="159" type="line"/>
    </contour>
    <contour>
      <point x="95" y="309" type="line"/>
      <point x="505" y="309" type="line"/>
      <point x="505" y="354" type="line"/>
      <point x="95" y="354" type="line"/>
    </contour>
    <contour>
      <point x="283" y="423" type="curve" smooth="yes"/>
      <point x="303" y="423"/>
      <point x="316" y="436"/>
      <point x="316" y="456" type="curve" smooth="yes"/>
      <point x="316" y="476"/>
      <point x="303" y="489"/>
      <point x="283" y="489" type="curve" smooth="yes"/>
      <point x="262" y="489"/>
      <point x="248" y="476"/>
      <point x="248" y="456" type="curve" smooth="yes"/>
      <point x="248" y="436"/>
      <point x="262" y="423"/>
    </contour>
  </outline>
</glyph>
<glyph name="muchless" format="2">
  <advance width="600"/>
  <unicode hex="226A"/>
  <outline>
    <contour>
      <point x="600" y="80" type="line"/>
      <point x="600" y="132" type="line"/>
      <point x="396" y="275" type="line" smooth="yes"/>
      <point x="368" y="295"/>
      <point x="335" y="318"/>
      <point x="315" y="331" type="curve"/>
      <point x="334" y="342"/>
      <point x="360" y="358"/>
      <point x="396" y="383" type="curve" smooth="yes"/>
      <point x="600" y="523" type="line"/>
      <point x="600" y="579" type="line"/>
      <point x="270" y="353" type="line"/>
      <point x="270" y="306" type="line"/>
    </contour>
    <contour>
      <point x="330" y="80" type="line"/>
      <point x="330" y="132" type="line"/>
      <point x="126" y="275" type="line" smooth="yes"/>
      <point x="98" y="295"/>
      <point x="65" y="318"/>
      <point x="45" y="331" type="curve"/>
      <point x="64" y="342"/>
      <point x="90" y="358"/>
      <point x="126" y="383" type="curve" smooth="yes"/>
      <point x="330" y="523" type="line"/>
      <point x="330" y="579" type="line"/>
      <point x="0" y="353" type="line"/>
      <point x="0" y="306" type="line"/>
    </contour>
  </outline>
</glyph>
<glyph name="muchgreater" format="2">
  <advance width="600"/>
  <unicode hex="226B"/>
  <outline>
    <contour>
      <point x="270" y="80" type="line"/>
      <point x="600" y="306" type="line"/>
      <point x="600" y="353" type="line"/>
      <point x="270" y="579" type="line"/>
      <point x="270" y="523" type="line"/>
      <point x="474" y="383" type="line" smooth="yes"/>
      <point x="510" y="358"/>
      <point x="536" y="342"/>
      <point x="555" y="331" type="curve"/>
      <point x="535" y="318"/>
      <point x="502" y="295"/>
      <point x="474" y="275" type="curve" smooth="yes"/>
      <point x="270" y="132" type="line"/>
    </contour>
    <contour>
      <point x="0" y="80" type="line"/>
      <point x="330" y="306" type="line"/>
      <point x="330" y="353" type="line"/>
      <point x="0" y="579" type="line"/>
      <point x="0" y="523" type="line"/>
      <point x="204" y="383" type="line" smooth="yes"/>
      <point x="240" y="358"/>
      <point x="266" y="342"/>
      <point x="285" y="331" type="curve"/>
      <point x="265" y="318"/>
      <point x="232" y="295"/>
      <point x="204" y="275" type="curve" smooth="yes"/>
      <point x="0" y="132" type="line"/>
    </contour>
  </outline>
</glyph>
<glyph name="notless" format="2">
  <advance width="600"/>
  <unicode hex="226E"/>
  <outline>
    <contour>
      <point x="128" y="-70" type="line"/>
      <point x="174" y="-70" type="line"/>
      <point x="452" y="730" type="line"/>
      <point x="406" y="730" type="line"/>
    </contour>
    <component base="less"/>
  </outline>
</glyph>
<glyph name="notgreater" format="2">
  <advance width="600"/>
  <unicode hex="226F"/>
  <outline>
    <contour>
      <point x="128" y="-70" type="line"/>
      <point x="174" y="-70" type="line"/>
      <point x="452" y="730" type="line"/>
      <point x="406" y="730" type="line"/>
    </contour>
    <component base="greater"/>
  </outline>
</glyph>
<glyph name="lessorequivalent" format="2">
  <advance width="600"/>
  <unicode hex="2272"/>
  <outline>
    <contour>
      <point x="85" y="0" type="line"/>
      <point x="130" y="0" type="line"/>
      <point x="130" y="18" type="line" smooth="yes"/>
      <point x="130" y="58"/>
      <point x="155" y="83"/>
      <point x="195" y="83" type="curve" smooth="yes"/>
      <point x="268" y="83"/>
      <point x="319" y="0"/>
      <point x="405" y="0" type="curve" smooth="yes"/>
      <point x="467" y="0"/>
      <point x="515" y="44"/>
      <point x="515" y="110" type="curve" smooth="yes"/>
      <point x="515" y="125" type="line"/>
      <point x="470" y="125" type="line"/>
      <point x="470" y="107" type="line" smooth="yes"/>
      <point x="470" y="67"/>
      <point x="445" y="42"/>
      <point x="405" y="42" type="curve" smooth="yes"/>
      <point x="332" y="42"/>
      <point x="286" y="125"/>
      <point x="195" y="125" type="curve" smooth="yes"/>
      <point x="129" y="125"/>
      <point x="85" y="81"/>
      <point x="85" y="15" type="curve" smooth="yes"/>
    </contour>
    <component base="less" yOffset="125"/>
  </outline>
</glyph>
<glyph name="precedes" format="2">
  <advance width="600"/>
  <unicode hex="227A"/>
  <outline>
    <contour>
      <point x="465" y="55" type="curve"/>
      <point x="510" y="55" type="line"/>
      <point x="492" y="218"/>
      <point x="352" y="327"/>
      <point x="153" y="333" type="curve"/>
      <point x="153" y="331" type="line"/>
      <point x="352" y="335"/>
      <point x="492" y="441"/>
      <point x="510" y="600" type="curve"/>
      <point x="465" y="600" type="line"/>
      <point x="446" y="454"/>
      <point x="287" y="360"/>
      <point x="60" y="360" type="curve"/>
      <point x="60" y="300" type="line"/>
      <point x="287" y="300"/>
      <point x="446" y="204"/>
    </contour>
  </outline>
</glyph>
<glyph name="precedesorequalto" format="2">
  <advance width="600"/>
  <unicode hex="227C"/>
  <outline>
    <contour>
      <point x="60" y="0" type="line"/>
      <point x="525" y="0" type="line"/>
      <point x="525" y="45" type="line"/>
      <point x="60" y="45" type="line"/>
    </contour>
    <component base="precedes" yOffset="125"/>
  </outline>
</glyph>
<glyph name="notsubset" format="2">
  <advance width="600"/>
  <unicode hex="2284"/>
  <outline>
    <contour>
      <point x="130" y="-60" type="line"/>
      <point x="176" y="-60" type="line"/>
      <point x="470" y="780" type="line"/>
      <point x="424" y="780" type="line"/>
    </contour>
    <component base="subset"/>
  </outline>
</glyph>
<glyph name="squareimageoforequalto" format="2">
  <advance width="600"/>
  <unicode hex="2291"/>
  <outline>
    <contour>
      <point x="55" y="210" type="line"/>
      <point x="555" y="210" type="line"/>
      <point x="555" y="255" type="line"/>
      <point x="105" y="255" type="line"/>
      <point x="105" y="625" type="line"/>
      <point x="555" y="625" type="line"/>
      <point x="555" y="670" type="line"/>
      <point x="55" y="670" type="line"/>
    </contour>
    <contour>
      <point x="55" y="0" type="line"/>
      <point x="555" y="0" type="line"/>
      <point x="555" y="45" type="line"/>
      <point x="55" y="45" type="line"/>
    </contour>
  </outline>
</glyph>
<glyph name="squaredplus" format="2">
  <advance width="600"/>
  <unicode hex="229E"/>
  <outline>
    <contour>
      <point x="0" y="30" type="line"/>
      <point x="600" y="30" type="line"/>
      <point x="600" y="630" type="line"/>
      <point x="0" y="630" type="line"/>
    </contour>
    <contour>
      <point x="50" y="80" type="line"/>
      <point x="50" y="580" type="line"/>
      <point x="550" y="580" type="line"/>
      <point x="550" y="80" type="line"/>
    </contour>
    <contour>
      <point x="48" y="49" type="line"/>
      <point x="299" y="300" type="line"/>
      <point x="550" y="49" type="line"/>
      <point x="579" y="54" type="line"/>
      <point x="584" y="86" type="line"/>
      <point x="335" y="335" type="line"/>
      <point x="590" y="590" type="line"/>
      <point x="583" y="612" type="line"/>
      <point x="545" y="616" type="line"/>
      <point x="299" y="370" type="line"/>
      <point x="66" y="603" type="line"/>
      <point x="34" y="603" type="line"/>
      <point x="19" y="580" type="line"/>
      <point x="264" y="335" type="line"/>
      <point x="19" y="90" type="line"/>
      <point x="24" y="55" type="line"/>
    </contour>
  </outline>
</glyph>
<glyph name="squaredtimes" format="2">
  <advance width="600"/>
  <unicode hex="22A0"/>
  <outline>
    <contour>
      <point x="0" y="30" type="line"/>
      <point x="600" y="30" type="line"/>
      <point x="600" y="630" type="line"/>
      <point x="0" y="630" type="line"/>
    </contour>
    <contour>
      <point x="50" y="80" type="line"/>
      <point x="50" y="580" type="line"/>
      <point x="550" y="580" type="line"/>
      <point x="550" y="80" type="line"/>
    </contour>
    <contour>
      <point x="275" y="60" type="line"/>
      <point x="325" y="60" type="line"/>
      <point x="325" y="310" type="line"/>
      <point x="575" y="310" type="line"/>
      <point x="575" y="355" type="line"/>
      <point x="325" y="355" type="line"/>
      <point x="325" y="605" type="line"/>
      <point x="275" y="605" type="line"/>
      <point x="275" y="355" type="line"/>
      <point x="25" y="355" type="line"/>
      <point x="25" y="310" type="line"/>
      <point x="275" y="310" type="line"/>
    </contour>
  </outline>
</glyph>
<glyph name="normalsubgroupoforequalto" format="2">
  <advance width="600"/>
  <unicode hex="22B4"/>
  <outline>
    <contour>
      <point x="510" y="205" type="line"/>
      <point x="510" y="705" type="line"/>
      <point x="90" y="478" type="line"/>
      <point x="90" y="432" type="line"/>
    </contour>
    <contour>
      <point x="90" y="0" type="line"/>
      <point x="510" y="0" type="line"/>
      <point x="510" y="45" type="line"/>
      <point x="90" y="45" type="line"/>
    </contour>
    <contour>
      <point x="465" y="282" type="line"/>
      <point x="219" y="414" type="line" smooth="yes"/>
      <point x="191" y="429"/>
      <point x="156" y="447"/>
      <point x="137" y="456" type="curve"/>
      <point x="156" y="465"/>
      <point x="191" y="483"/>
      <point x="219" y="498" type="curve" smooth="yes"/>
      <point x="465" y="629" type="line"/>
    </contour>
  </outline>
</glyph>
<glyph name="bowtie" format="2">
  <advance width="600"/>
  <unicode hex="22C8"/>
  <outline>
    <contour>
      <point x="0" y="50" type="line"/>
      <point x="299" y="325" type="line"/>
      <point x="600" y="50" type="line"/>
      <point x="600" y="667" type="line"/>
      <point x="300" y="394" type="line"/>
      <point x="0" y="667" type="line"/>
    </contour>
    <contour>
      <point x="50" y="163" type="line"/>
      <point x="50" y="553" type="line"/>
      <point x="263" y="359" type="line"/>
    </contour>
    <contour>
      <point x="550" y="165" type="line"/>
      <point x="336" y="360" type="line"/>
      <point x="550" y="555" type="line"/>
    </contour>
  </outline>
</glyph>
<glyph name="curlyor" format="2">
  <advance width="600"/>
  <unicode hex="22CE"/>
  <outline>
    <contour>
      <point x="572" y="505" type="curve"/>
      <point x="572" y="550" type="line"/>
      <point x="411" y="532"/>
      <point x="302" y="392"/>
      <point x="296" y="193" type="curve"/>
      <point x="298" y="193" type="line"/>
      <point x="294" y="392"/>
      <point x="187" y="532"/>
      <point x="27" y="550" type="curve"/>
      <point x="27" y="505" type="line"/>
      <point x="173" y="486"/>
      <point x="267" y="327"/>
      <point x="267" y="100" type="curve"/>
      <point x="267" y="0" type="line"/>
      <point x="327" y="0" type="line"/>
      <point x="327" y="100" type="line"/>
      <point x="327" y="327"/>
      <point x="423" y="486"/>
    </contour>
  </outline>
</glyph>
<glyph name="midlinehorizontalellipsis" format="2">
  <advance width="600"/>
  <unicode hex="22EF"/>
  <outline>
    <contour>
      <point x="49" y="276" type="curve" smooth="yes"/>
      <point x="84" y="276"/>
      <point x="107" y="299"/>
      <point x="107" y="334" type="curve" smooth="yes"/>
      <point x="107" y="369"/>
      <point x="84" y="392"/>
      <point x="49" y="392" type="curve" smooth="yes"/>
      <point x="13" y="392"/>
      <point x="-10" y="369"/>
      <point x="-10" y="334" type="curve" smooth="yes"/>
      <point x="-10" y="299"/>
      <point x="13" y="276"/>
    </contour>
    <contour>
      <point x="301" y="276" type="curve" smooth="yes"/>
      <point x="336" y="276"/>
      <point x="359" y="299"/>
      <point x="359" y="334" type="curve" smooth="yes"/>
      <point x="359" y="369"/>
      <point x="336" y="392"/>
      <point x="301" y="392" type="curve" smooth="yes"/>
      <point x="265" y="392"/>
      <point x="242" y="369"/>
      <point x="242" y="334" type="curve" smooth="yes"/>
      <point x="242" y="299"/>
      <point x="265" y="276"/>
    </contour>
    <contour>
      <point x="552" y="276" type="curve" smooth="yes"/>
      <point x="587" y="276"/>
      <point x="610" y="299"/>
      <point x="610" y="334" type="curve" smooth="yes"/>
      <point x="610" y="369"/>
      <point x="587" y="392"/>
      <point x="552" y="392" type="curve" smooth="yes"/>
      <point x="516" y="392"/>
      <point x="493" y="369"/>
      <point x="493" y="334" type="curve" smooth="yes"/>
      <point x="493" y="299"/>
      <point x="516" y="276"/>
    </contour>
  </outline>
</glyph>
<glyph name="projective" format="2">
  <advance width="600"/>
  <unicode hex="2305"/>
  <outline>
    <contour>
      <point x="95" y="505" type="line"/>
      <point x="505" y="505" type="line"/>
      <point x="505" y="550" type="line"/>
      <point x="95" y="550" type="line"/>
    </contour>
    <component base="control" yOffset="-105"/>
  </outline>
</glyph>
<glyph name="leftCeiling" format="2">
  <advance width="600"/>
  <unicode hex="2308"/>
  <outline>
    <contour>
      <point x="220" y="-110" type="line"/>
      <point x="270" y="-110" type="line"/>
      <point x="270" y="785" type="line"/>
      <point x="445" y="785" type="line"/>
      <point x="445" y="830" type="line"/>
      <point x="220" y="830" type="line"/>
    </contour>
  </outline>
</glyph>
<glyph name="leftFloor" format="2">
  <advance width="600"/>
  <unicode hex="230A"/>
  <outline>
    <contour>
      <point x="220" y="-110" type="line"/>
      <point x="445" y="-110" type="line"/>
      <point x="445" y="-65" type="line"/>
      <point x="270" y="-65" type="line"/>
      <point x="270" y="830" type="line"/>
      <point x="220" y="830" type="line"/>
    </contour>
  </outline>
</glyph>
<glyph name="rightFloor" format="2">
  <advance width="600"/>
  <unicode hex="230B"/>
  <outline>
    <contour>
      <point x="155" y="-110" type="line"/>
      <point x="380" y="-110" type="line"/>
      <point x="380" y="830" type="line"/>
      <point x="330" y="830" type="line"/>
      <point x="330" y="-65" type="line"/>
      <point x="155" y="-65" type="line"/>
    </contour>
  </outline>
</glyph>
<glyph name="propellor" format="2">
  <advance width="600"/>
  <unicode hex="2318"/>
  <outline>
    <contour>
      <point x="495" y="380" type="line"/>
      <point x="549" y="380"/>
      <point x="585" y="416"/>
      <point x="585" y="470" type="curve" smooth="yes"/>
      <point x="585" y="524"/>
      <point x="549" y="560"/>
      <point x="495" y="560" type="curve" smooth="yes"/>
      <point x="441" y="560"/>
      <point x="405" y="524"/>
      <point x="405" y="470" type="curve"/>
      <point x="447" y="470" type="line"/>
      <point x="447" y="501"/>
      <point x="466" y="522"/>
      <point x="495" y="522" type="curve" smooth="yes"/>
      <point x="524" y="522"/>
      <point x="543" y="501"/>
      <point x="543" y="470" type="curve" smooth="yes"/>
      <point x="543" y="439"/>
      <point x="524" y="418"/>
      <point x="495" y="418" type="curve"/>
    </contour>
    <contour>
      <point x="105" y="-10" type="curve" smooth="yes"/>
      <point x="159" y="-10"/>
      <point x="195" y="26"/>
      <point x="195" y="80" type="curve"/>
      <point x="153" y="80" type="line"/>
      <point x="153" y="49"/>
      <point x="134" y="28"/>
      <point x="105" y="28" type="curve" smooth="yes"/>
      <point x="76" y="28"/>
      <point x="57" y="49"/>
      <point x="57" y="80" type="curve" smooth="yes"/>
      <point x="57" y="111"/>
      <point x="76" y="132"/>
      <point x="105" y="132" type="curve"/>
      <point x="105" y="170" type="line"/>
      <point x="51" y="170"/>
      <point x="15" y="134"/>
      <point x="15" y="80" type="curve" smooth="yes"/>
      <point x="15" y="26"/>
      <point x="51" y="-10"/>
    </contour>
    <contour>
      <point x="153" y="80" type="line"/>
      <point x="195" y="80" type="line"/>
      <point x="195" y="470" type="line"/>
      <point x="153" y="470" type="line"/>
    </contour>
    <contour>
      <point x="105" y="132" type="line"/>
      <point x="495" y="132" type="line"/>
      <point x="495" y="170" type="line"/>
      <point x="105" y="170" type="line"/>
    </contour>
    <contour>
      <point x="495" y="-10" type="curve" smooth="yes"/>
      <point x="549" y="-10"/>
      <point x="585" y="26"/>
      <point x="585" y="80" type="curve" smooth="yes"/>
      <point x="585" y="134"/>
      <point x="549" y="170"/>
      <point x="495" y="170" type="curve"/>
      <point x="495" y="132" type="line"/>
      <point x="524" y="132"/>
      <point x="543" y="111"/>
      <point x="543" y="80" type="curve" smooth="yes"/>
      <point x="543" y="49"/>
      <point x="524" y="28"/>
      <point x="495" y="28" type="curve" smooth="yes"/>
      <point x="466" y="28"/>
      <point x="447" y="49"/>
      <point x="447" y="80" type="curve"/>
      <point x="405" y="80" type="line"/>
      <point x="405" y="26"/>
      <point x="441" y="-10"/>
    </contour>
    <contour>
      <point x="105" y="380" type="curve"/>
      <point x="105" y="418" type="line"/>
      <point x="76" y="418"/>
      <point x="57" y="439"/>
      <point x="57" y="470" type="curve" smooth="yes"/>
      <point x="57" y="501"/>
      <point x="76" y="522"/>
      <point x="105" y="522" type="curve" smooth="yes"/>
      <point x="134" y="522"/>
      <point x="153" y="501"/>
      <point x="153" y="470" type="curve"/>
      <point x="195" y="470" type="line"/>
      <point x="195" y="524"/>
      <point x="159" y="560"/>
      <point x="105" y="560" type="curve" smooth="yes"/>
      <point x="51" y="560"/>
      <point x="15" y="524"/>
      <point x="15" y="470" type="curve" smooth="yes"/>
      <point x="15" y="416"/>
      <point x="51" y="380"/>
    </contour>
    <contour>
      <point x="105" y="380" type="line"/>
      <point x="495" y="380" type="line"/>
      <point x="495" y="418" type="line"/>
      <point x="105" y="418" type="line"/>
    </contour>
    <contour>
      <point x="405" y="80" type="line"/>
      <point x="447" y="80" type="line"/>
      <point x="447" y="470" type="line"/>
      <point x="405" y="470" type="line"/>
    </contour>
  </outline>
</glyph>
<glyph name="parenleftupperhook" format="2">
  <advance width="600"/>
  <unicode hex="239B"/>
  <outline>
    <contour>
      <point x="275" y="-300" type="line"/>
      <point x="325" y="-300" type="line"/>
      <point x="325" y="460" type="line" smooth="yes"/>
      <point x="325" y="636"/>
      <point x="407" y="758"/>
      <point x="550" y="794" type="curve"/>
      <point x="550" y="840" type="line"/>
      <point x="375" y="797"/>
      <point x="275" y="658"/>
      <point x="275" y="460" type="curve" smooth="yes"/>
    </contour>
  </outline>
</glyph>
<glyph name="parenleftlowerhook" format="2">
  <advance width="600"/>
  <unicode hex="239D"/>
  <outline>
    <contour>
      <point x="550" y="-120" type="curve"/>
      <point x="550" y="-74" type="line"/>
      <point x="407" y="-38"/>
      <point x="325" y="84"/>
      <point x="325" y="260" type="curve" smooth="yes"/>
      <point x="325" y="1020" type="line"/>
      <point x="275" y="1020" type="line"/>
      <point x="275" y="260" type="line" smooth="yes"/>
      <point x="275" y="62"/>
      <point x="375" y="-77"/>
    </contour>
  </outline>
</glyph>
<glyph name="leftsquarebracketlowercorner" format="2">
  <advance width="600"/>
  <unicode hex="23A3"/>
  <outline>
    <contour>
      <point x="275" y="-110" type="line"/>
      <point x="500" y="-110" type="line"/>
      <point x="500" y="-65" type="line"/>
      <point x="325" y="-65" type="line"/>
      <point x="325" y="1020" type="line"/>
      <point x="275" y="1020" type="line"/>
    </contour>
  </outline>
</glyph>
<glyph name="leftcurlybracketmiddlepiece" format="2">
  <advance width="600"/>
  <unicode hex="23A8"/>
  <outline>
    <contour>
      <point x="275" y="-300" type="line"/>
      <point x="325" y="-300" type="line"/>
      <point x="325" y="237" type="line" smooth="yes"/>
      <point x="325" y="315"/>
      <point x="285" y="364"/>
      <point x="220" y="364" type="curve"/>
      <point x="220" y="357" type="line"/>
      <point x="285" y="357"/>
      <point x="325" y="405"/>
      <point x="325" y="482" type="curve" smooth="yes"/>
      <point x="325" y="1020" type="line"/>
      <point x="275" y="1020" type="line"/>
      <point x="275" y="482" type="line" smooth="yes"/>
      <point x="275" y="408"/>
      <point x="257" y="382"/>
      <point x="175" y="382" type="curve" smooth="yes"/>
      <point x="65" y="382" type="line"/>
      <point x="65" y="336" type="line"/>
      <point x="175" y="336" type="line" smooth="yes"/>
      <point x="261" y="336"/>
      <point x="275" y="308"/>
      <point x="275" y="237" type="curve" smooth="yes"/>
    </contour>
  </outline>
</glyph>
<glyph name="leftcurlybracketlowerhook" format="2">
  <advance width="600"/>
  <unicode hex="23A9"/>
  <outline>
    <contour>
      <point x="425" y="-110" type="curve" smooth="yes"/>
      <point x="480" y="-110" type="line"/>
      <point x="480" y="-65" type="line"/>
      <point x="425" y="-65" type="line" smooth="yes"/>
      <point x="363" y="-65"/>
      <point x="325" y="-25"/>
      <point x="325" y="40" type="curve" smooth="yes"/>
      <point x="325" y="1020" type="line"/>
      <point x="275" y="1020" type="line"/>
      <point x="275" y="40" type="line" smooth="yes"/>
      <point x="275" y="-56"/>
      <point x="329" y="-110"/>
    </contour>
  </outline>
</glyph>
<glyph name="curlybracketextension" format="2">
  <advance width="600"/>
  <unicode hex="23AA"/>
  <outline>
    <contour>
      <point x="275" y="-300" type="line"/>
      <point x="325" y="-300" type="line"/>
      <point x="325" y="1020" type="line"/>
      <point x="275" y="1020" type="line"/>
    </contour>
  </outline>
</glyph>
<glyph name="boxDownLightAndRightHeavy" format="2">
  <advance width="600"/>
  <unicode hex="250D"/>
  <outline>
    <contour>
      <point x="250" y="-400" type="line"/>
      <point x="350" y="-400" type="line"/>
      <point x="350" y="270" type="line"/>
      <point x="620" y="270" type="line"/>
      <point x="620" y="470" type="line"/>
      <point x="250" y="470" type="line"/>
    </contour>
  </outline>
</glyph>
<glyph name="boxLightUpAndLeft" format="2">
  <advance width="600"/>
  <unicode hex="2518"/>
  <outline>
    <contour>
      <point x="-20" y="320" type="line"/>
      <point x="350" y="320" type="line"/>
      <point x="350" y="1120" type="line"/>
      <point x="250" y="1120" type="line"/>
      <point x="250" y="420" type="line"/>
      <point x="-20" y="420" type="line"/>
    </contour>
  </outline>
</glyph>
<glyph name="boxRightLightAndLeftDownHeavy" format="2">
  <advance width="600"/>
  <unicode hex="2531"/>
  <outline>
    <contour>
      <point x="200" y="-400" type="line"/>
      <point x="400" y="-400" type="line"/>
      <point x="400" y="320" type="line"/>
      <point x="620" y="320" type="line"/>
      <point x="620" y="420" type="line"/>
      <point x="400" y="420" type="line"/>
      <point x="400" y="470" type="line"/>
      <point x="-20" y="470" type="line"/>
      <point x="-20" y="270" type="line"/>
      <point x="200" y="270" type="line"/>
    </contour>
  </outline>
</glyph>
<glyph name="boxLeftLightAndRightDownHeavy" format="2">
  <advance width="600"/>
  <unicode hex="2532"/>
  <outline>
    <contour>
      <point x="200" y="-400" type="line"/>
      <point x="400" y="-400" type="line"/>
      <point x="400" y="270" type="line"/>
      <point x="620" y="270" type="line"/>
      <point x="620" y="470" type="line"/>
      <point x="200" y="470" type="line"/>
      <point x="200" y="420" type="line"/>
      <point x="-20" y="420" type="line"/>
      <point x="-20" y="320" type="line"/>
      <point x="200" y="320" type="line"/>
    </contour>
  </outline>
</glyph>
<glyph name="boxDownSingleAndRightDouble" format="2">
  <advance width="600"/>
  <unicode hex="2552"/>
  <outline>
    <contour>
      <point x="250" y="-400" type="line"/>
      <point x="350" y="-400" type="line"/>
      <point x="350" y="220" type="line"/>
      <point x="620" y="220" type="line"/>
      <point x="620" y="320" type="line"/>
      <point x="350" y="320" type="line"/>
      <point x="350" y="420" type="line"/>
      <point x="620" y="420" type="line"/>
      <point x="620" y="520" type="line"/>
      <point x="250" y="520" type="line"/>
    </contour>
  </outline>
</glyph>
<glyph name="boxUpSingleAndRightDouble" format="2">
  <advance width="600"/>
  <unicode hex="2558"/>
  <outline>
    <contour>
      <point x="250" y="220" type="line"/>
      <point x="620" y="220" type="line"/>
      <point x="620" y="320" type="line"/>
      <point x="350" y="320" type="line"/>
      <point x="350" y="420" type="line"/>
      <point x="620" y="420" type="line"/>
      <point x="620" y="520" type="line"/>
      <point x="350" y="520" type="line"/>
      <point x="350" y="1120" type="line"/>
      <point x="250" y="1120" type="line"/>
    </contour>
  </outline>
</glyph>
<glyph name="boxVerticalSingleAndRightDouble" format="2">
  <advance width="600"/>
  <unicode hex="255E"/>
  <outline>
    <contour>
      <point x="250" y="-400" type="line"/>
      <point x="350" y="-400" type="line"/>
      <point x="350" y="220" type="line"/>
      <point x="620" y="220" type="line"/>
      <point x="620" y="320" type="line"/>
      <point x="350" y="320" type="line"/>
      <point x="350" y="420" type="line"/>
      <point x="620" y="420" type="line"/>
      <point x="620" y="520" type="line"/>
      <point x="350" y="520" type="line"/>
      <point x="350" y="1120" type="line"/>
      <point x="250" y="1120" type="line"/>
    </contour>
  </outline>
</glyph>
<glyph name="boxDownSingleAndHorizontalDouble" format="2">
  <advance width="600"/>
  <unicode hex="2564"/>
  <outline>
    <contour>
      <point x="250" y="-400" type="line"/>
      <point x="350" y="-400" type="line"/>
      <point x="350" y="220" type="line"/>
      <point x="620" y="220" type="line"/>
      <point x="620" y="320" type="line"/>
      <point x="-20" y="320" type="line"/>
      <point x="-20" y="220" type="line"/>
      <point x="250" y="220" type="line"/>
    </contour>
    <contour>
      <point x="-20" y="420" type="line"/>
      <point x="620" y="420" type="line"/>
      <point x="620" y="520" type="line"/>
      <point x="-20" y="520" type="line"/>
    </contour>
  </outline>
</glyph>
<glyph name="lowerHalfBlock" format="2">
  <advance width="600"/>
  <unicode hex="2584"/>
  <outline>
    <contour>
      <point x="0" y="-300" type="line"/>
      <point x="600" y="-300" type="line"/>
      <point x="600" y="360" type="line"/>
      <point x="0" y="360" type="line"/>
    </contour>
  </outline>
</glyph>
<glyph name="shadelight" format="2">
  <advance width="600"/>
  <unicode hex="2591"/>
  <outline>
    <contour>
      <point x="540" y="960" type="line"/>
      <point x="600" y="960" type="line"/>
      <point x="600" y="1020" type="line"/>
      <point x="540" y="1020" type="line"/>
    </contour>
    <contour>
      <point x="60" y="960" type="line"/>
      <point x="120" y="960" type="line"/>
      <point x="120" y="1020" type="line"/>
      <point x="60" y="1020" type="line"/>
    </contour>
    <contour>
      <point x="180" y="960" type="line"/>
      <point x="240" y="960" type="line"/>
      <point x="240" y="1020" type="line"/>
      <point x="180" y="1020" type="line"/>
    </contour>
    <contour>
      <point x="300" y="960" type="line"/>
      <point x="360" y="960" type="line"/>
      <point x="360" y="1020" type="line"/>
      <point x="300" y="1020" type="line"/>
    </contour>
    <contour>
      <point x="420" y="960" type="line"/>
      <point x="480" y="960" type="line"/>
      <point x="480" y="1020" type="line"/>
      <point x="420" y="1020" type="line"/>
    </contour>
    <contour>
      <point x="540" y="840" type="line"/>
      <point x="600" y="840" type="line"/>
      <point x="600" y="900" type="line"/>
      <point x="540" y="900" type="line"/>
    </contour>
    <contour>
      <point x="60" y="840" type="line"/>
      <point x="120" y="840" type="line"/>
      <point x="120" y="900" type="line"/>
      <point x="60" y="900" type="line"/>
    </contour>
    <contour>
      <point x="180" y="840" type="line"/>
      <point x="240" y="840" type="line"/>
      <point x="240" y="900" type="line"/>
      <point x="180" y="900" type="line"/>
    </contour>
    <contour>
      <point x="300" y="840" type="line"/>
      <point x="360" y="840" type="line"/>
      <point x="360" y="900" type="line"/>
      <point x="300" y="900" type="line"/>
    </contour>
    <contour>
      <point x="420" y="840" type="line"/>
      <point x="480" y="840" type="line"/>
      <point x="480" y="900" type="line"/>
      <point x="420" y="900" type="line"/>
    </contour>
    <contour>
      <point x="540" y="720" type="line"/>
      <point x="600" y="720" type="line"/>
      <point x="600" y="780" type="line"/>
      <point x="540" y="780" type="line"/>
    </contour>
    <contour>
      <point x="60" y="720" type="line"/>
      <point x="120" y="720" type="line"/>
      <point x="120" y="780" type="line"/>
      <point x="60" y="780" type="line"/>
    </contour>
    <contour>
      <point x="180" y="720" type="line"/>
      <point x="240" y="720" type="line"/>
      <point x="240" y="780" type="line"/>
      <point x="180" y="780" type="line"/>
    </contour>
    <contour>
      <point x="300" y="720" type="line"/>
      <point x="360" y="720" type="line"/>
      <point x="360" y="780" type="line"/>
      <point x="300" y="780" type="line"/>
    </contour>
    <contour>
      <point x="420" y="720" type="line"/>
      <point x="480" y="720" type="line"/>
      <point x="480" y="780" type="line"/>
      <point x="420" y="780" type="line"/>
    </contour>
    <contour>
      <point x="540" y="600" type="line"/>
      <point x="600" y="600" type="line"/>
      <point x="600" y="660" type="line"/>
      <point x="540" y="660" type="line"/>
    </contour>
    <contour>
      <point x="60" y="600" type="line"/>
      <point x="120" y="600" type="line"/>
      <point x="120" y="660" type="line"/>
      <point x="60" y="660" type="line"/>
    </contour>
    <contour>
      <point x="180" y="600" type="line"/>
      <point x="240" y="600" type="line"/>
      <point x="240" y="660" type="line"/>
      <point x="180" y="660" type="line"/>
    </contour>
    <contour>
      <point x="300" y="600" type="line"/>
      <point x="360" y="600" type="line"/>
      <point x="360" y="660" type="line"/>
      <point x="300" y="660" type="line"/>
    </contour>
    <contour>
      <point x="420" y="600" type="line"/>
      <point x="480" y="600" type="line"/>
      <point x="480" y="660" type="line"/>
      <point x="420" y="660" type="line"/>
    </contour>
    <contour>
      <point x="540" y="480" type="line"/>
      <point x="600" y="480" type="line"/>
      <point x="600" y="540" type="line"/>
      <point x="540" y="540" type="line"/>
    </contour>
    <contour>
      <point x="60" y="480" type="line"/>
      <point x="120" y="480" type="line"/>
      <point x="120" y="540" type="line"/>
      <point x="60" y="540" type="line"/>
    </contour>
    <contour>
      <point x="180" y="480" type="line"/>
      <point x="240" y="480" type="line"/>
      <point x="240" y="540" type="line"/>
      <point x="180" y="540" type="line"/>
    </contour>
    <contour>
      <point x="300" y="480" type="line"/>
      <point x="360" y="480" type="line"/>
      <point x="360" y="540" type="line"/>
      <point x="300" y="540" type="line"/>
    </contour>
    <contour>
      <point x="420" y="480" type="line"/>
      <point x="480" y="480" type="line"/>
      <point x="480" y="540" type="line"/>
      <point x="420" y="540" type="line"/>
    </contour>
    <contour>
      <point x="540" y="360" type="line"/>
      <point x="600" y="360" type="line"/>
      <point x="600" y="420" type="line"/>
      <point x="540" y="420" type="line"/>
    </contour>
    <contour>
      <point x="60" y="360" type="line"/>
      <point x="120" y="360" type="line"/>
      <point x="120" y="420" type="line"/>
      <point x="60" y="420" type="line"/>
    </contour>
    <contour>
      <point x="180" y="360" type="line"/>
      <point x="240" y="360" type="line"/>
      <point x="240" y="420" type="line"/>
      <point x="180" y="420" type="line"/>
    </contour>
    <contour>
      <point x="300" y="360" type="line"/>
      <point x="360" y="360" type="line"/>
      <point x="360" y="420" type="line"/>
      <point x="300" y="420" type="line"/>
    </contour>
    <contour>
      <point x="420" y="360" type="line"/>
      <point x="480" y="360" type="line"/>
      <point x="480" y="420" type="line"/>
      <point x="420" y="420" type="line"/>
    </contour>
    <contour>
      <point x="540" y="240" type="line"/>
      <point x="600" y="240" type="line"/>
      <point x="600" y="300" type="line"/>
      <point x="540" y="300" type="line"/>
    </contour>
    <contour>
      <point x="60" y="240" type="line"/>
      <point x="120" y="240" type="line"/>
      <point x="120" y="300" type="line"/>
      <point x="60" y="300" type="line"/>
    </contour>
    <contour>
      <point x="180" y="240" type="line"/>
      <point x="240" y="240" type="line"/>
      <point x="240" y="300" type="line"/>
      <point x="180" y="300" type="line"/>
    </contour>
    <contour>
      <point x="300" y="240" type="line"/>
      <point x="360" y="240" type="line"/>
      <point x="360" y="300" type="line"/>
      <point x="300" y="300" type="line"/>
    </contour>
    <contour>
      <point x="420" y="240" type="line"/>
      <point x="480" y="240" type="line"/>
      <point x="480" y="300" type="line"/>
      <point x="420" y="300" type="line"/>
    </contour>
    <contour>
      <point x="540" y="120" type="line"/>
      <point x="600" y="120" type="line"/>
      <point x="600" y="180" type="line"/>
      <point x="540" y="180" type="line"/>
    </contour>
    <contour>
      <point x="60" y="120" type="line"/>
      <point x="120" y="120" type="line"/>
      <point x="120" y="180" type="line"/>
      <point x="60" y="180" type="line"/>
    </contour>
    <contour>
      <point x="180" y="120" type="line"/>
      <point x="240" y="120" type="line"/>
      <point x="240" y="180" type="line"/>
      <point x="180" y="180" type="line"/>
    </contour>
    <contour>
      <point x="300" y="120" type="line"/>
      <point x="360" y="120" type="line"/>
      <point x="360" y="180" type="line"/>
      <point x="300" y="180" type="line"/>
    </contour>
    <contour>
      <point x="420" y="120" type="line"/>
      <point x="480" y="120" type="line"/>
      <point x="480" y="180" type="line"/>
      <point x="420" y="180" type="line"/>
    </contour>
    <contour>
      <point x="540" y="0" type="line"/>
      <point x="600" y="0" type="line"/>
      <point x="600" y="60" type="line"/>
      <point x="540" y="60" type="line"/>
    </contour>
    <contour>
      <point x="60" y="0" type="line"/>
      <point x="120" y="0" type="line"/>
      <point x="120" y="60" type="line"/>
      <point x="60" y="60" type="line"/>
    </contour>
    <contour>
      <point x="180" y="0" type="line"/>
      <point x="240" y="0" type="line"/>
      <point x="240" y="60" type="line"/>
      <point x="180" y="60" type="line"/>
    </contour>
    <contour>
      <point x="300" y="0" type="line"/>
      <point x="360" y="0" type="line"/>
      <point x="360" y="60" type="line"/>
      <point x="300" y="60" type="line"/>
    </contour>
    <contour>
      <point x="420" y="0" type="line"/>
      <point x="480" y="0" type="line"/>
      <point x="480" y="60" type="line"/>
      <point x="420" y="60" type="line"/>
    </contour>
    <contour>
      <point x="540" y="-120" type="line"/>
      <point x="600" y="-120" type="line"/>
      <point x="600" y="-60" type="line"/>
      <point x="540" y="-60" type="line"/>
    </contour>
    <contour>
      <point x="60" y="-120" type="line"/>
      <point x="120" y="-120" type="line"/>
      <point x="120" y="-60" type="line"/>
      <point x="60" y="-60" type="line"/>
    </contour>
    <contour>
      <point x="180" y="-120" type="line"/>
      <point x="240" y="-120" type="line"/>
      <point x="240" y="-60" type="line"/>
      <point x="180" y="-60" type="line"/>
    </contour>
    <contour>
      <point x="300" y="-120" type="line"/>
      <point x="360" y="-120" type="line"/>
      <point x="360" y="-60" type="line"/>
      <point x="300" y="-60" type="line"/>
    </contour>
    <contour>
      <point x="420" y="-120" type="line"/>
      <point x="480" y="-120" type="line"/>
      <point x="480" y="-60" type="line"/>
      <point x="420" y="-60" type="line"/>
    </contour>
    <contour>
      <point x="540" y="-240" type="line"/>
      <point x="600" y="-240" type="line"/>
      <point x="600" y="-180" type="line"/>
      <point x="540" y="-180" type="line"/>
    </contour>
    <contour>
      <point x="60" y="-240" type="line"/>
      <point x="120" y="-240" type="line"/>
      <point x="120" y="-180" type="line"/>
      <point x="60" y="-180" type="line"/>
    </contour>
    <contour>
      <point x="180" y="-240" type="line"/>
      <point x="240" y="-240" type="line"/>
      <point x="240" y="-180" type="line"/>
      <point x="180" y="-180" type="line"/>
    </contour>
    <contour>
      <point x="300" y="-240" type="line"/>
      <point x="360" y="-240" type="line"/>
      <point x="360" y="-180" type="line"/>
      <point x="300" y="-180" type="line"/>
    </contour>
    <contour>
      <point x="420" y="-240" type="line"/>
      <point x="480" y="-240" type="line"/>
      <point x="480" y="-180" type="line"/>
      <point x="420" y="-180" type="line"/>
    </contour>
  </outline>
</glyph>
<glyph name="upperOneEighthBlock" format="2">
  <advance width="600"/>
  <unicode hex="2594"/>
  <outline>
    <contour>
      <point x="0" y="855" type="line"/>
      <point x="600" y="855" type="line"/>
      <point x="600" y="1020" type="line"/>
      <point x="0" y="1020" type="line"/>
    </contour>
  </outline>
</glyph>
<glyph name="upperLeftBlock" format="2">
  <advance width="600"/>
  <unicode hex="2598"/>
  <outline>
    <contour>
      <point x="0" y="360" type="line"/>
      <point x="300" y="360" type="line"/>
      <point x="300" y="1020" type="line"/>
      <point x="0" y="1020" type="line"/>
    </contour>
  </outline>
</glyph>
<glyph name="upperRightAndLowerLeftBlock" format="2">
  <advance width="600"/>
  <unicode hex="259E"/>
  <outline>
    <contour>
      <point x="300" y="360" type="line"/>
      <point x="600" y="360" type="line"/>
      <point x="600" y="1020" type="line"/>
      <point x="300" y="1020" type="line"/>
    </contour>
    <contour>
      <point x="0" y="-300" type="line"/>
      <point x="300" y="-300" type="line"/>
      <point x="300" y="360" type="line"/>
      <point x="0" y="360" type="line"/>
    </contour>
  </outline>
</glyph>
<glyph name="upBlackSmallTriangle" format="2">
  <advance width="600"/>
  <unicode hex="25B4"/>
  <outline>
    <contour>
      <point x="150" y="210" type="line"/>
      <point x="450" y="210" type="line"/>
      <point x="300" y="520" type="line"/>
    </contour>
  </outline>
</glyph>
<glyph name="whiteBullet" format="2">
  <advance width="600"/>
  <unicode hex="25E6"/>
  <outline>
    <contour>
      <point x="300" y="245" type="curve" smooth="yes"/>
      <point x="370" y="245"/>
      <point x="420" y="295"/>
      <point x="420" y="365" type="curve" smooth="yes"/>
      <point x="420" y="435"/>
      <point x="370" y="485"/>
      <point x="300" y="485" type="curve" smooth="yes"/>
      <point x="230" y="485"/>
      <point x="180" y="435"/>
      <point x="180" y="365" type="curve" smooth="yes"/>
      <point x="180" y="295"/>
      <point x="230" y="245"/>
    </contour>
    <contour>
      <point x="300" y="285" type="curve" smooth="yes"/>
      <point x="253" y="285"/>
      <point x="220" y="318"/>
      <point x="220" y="365" type="curve" smooth="yes"/>
      <point x="220" y="412"/>
      <point x="253" y="445"/>
      <point x="300" y="445" type="curve" smooth="yes"/>
      <point x="347" y="445"/>
      <point x="380" y="412"/>
      <point x="380" y="365" type="curve" smooth="yes"/>
      <point x="380" y="318"/>
      <point x="347" y="285"/>
    </contour>
  </outline>
</glyph>
<glyph name="flat-musical" format="2">
  <advance width="600"/>
  <unicode hex="266D"/>
  <outline>
    <contour>
      <point x="155" y="-19" type="line"/>
      <point x="315" y="41" type="line" smooth="yes"/>
      <point x="398" y="72"/>
      <point x="445" y="133"/>
      <point x="445" y="204" type="curve" smooth="yes"/>
      <point x="445" y="309" type="line" smooth="yes"/>
      <point x="445" y="397"/>
      <point x="393" y="454"/>
      <point x="313" y="454" type="curve" smooth="yes"/>
      <point x="245" y="454"/>
      <point x="200" y="410"/>
      <point x="200" y="343" type="curve"/>
      <point x="215" y="390" type="line"/>
      <point x="205" y="390" type="line"/>
      <point x="205" y="730" type="line"/>
      <point x="155" y="730" type="line"/>
    </contour>
    <contour>
      <point x="205" y="46" type="line"/>
      <point x="205" y="309" type="line" smooth="yes"/>
      <point x="205" y="369"/>
      <point x="243" y="409"/>
      <point x="300" y="409" type="curve" smooth="yes"/>
      <point x="357" y="409"/>
      <point x="395" y="369"/>
      <point x="395" y="309" type="curve" smooth="yes"/>
      <point x="395" y="204" type="line" smooth="yes"/>
      <point x="395" y="149"/>
      <point x="360" y="103"/>
      <point x="300" y="81" type="curve" smooth="yes"/>
    </contour>
  </outline>
</glyph>
<glyph name="sharp-musical" format="2">
  <advance width="600"/>
  <unicode hex="266F"/>
  <outline>
    <contour>
      <point x="65" y="346" type="line"/>
      <point x="535" y="593" type="line"/>
      <point x="535" y="663" type="line"/>
      <point x="65" y="415" type="line"/>
    </contour>
    <contour>
      <point x="183" y="0" type="line"/>
      <point x="226" y="0" type="line"/>
      <point x="226" y="640" type="line"/>
      <point x="183" y="640" type="line"/>
    </contour>
    <contour>
      <point x="65" y="81" type="line"/>
      <point x="535" y="328" type="line"/>
      <point x="535" y="398" type="line"/>
      <point x="65" y="150" type="line"/>
    </contour>
    <contour>
      <point x="381" y="90" type="line"/>
      <point x="424" y="90" type="line"/>
      <point x="424" y="730" type="line"/>
      <point x="381" y="730" type="line"/>
    </contour>
  </outline>
</glyph>
<glyph name="uniE0B2" format="2">
  <advance width="600"/>
  <unicode hex="E0B2"/>
  <outline>
    <contour>
      <point x="590" y="-300" type="line"/>
      <point x="640" y="-300" type="line"/>
      <point x="640" y="1020" type="line"/>
      <point x="590" y="1020" type="line"/>
      <point x="0" y="360" type="line"/>
    </contour>
  </outline>
</glyph>
<glyph name="replacement" format="2">
  <advance width="600"/>
  <unicode hex="FFFD"/>
  <outline>
    <contour>
      <point x="300" y="-11" type="curve" smooth="yes"/>
      <point x="324" y="-11"/>
      <point x="349" y="3"/>
      <point x="370" y="31" type="curve" smooth="yes"/>
      <point x="572" y="290" type="line" smooth="yes"/>
      <point x="591" y="314"/>
      <point x="600" y="337"/>
      <point x="600" y="360" type="curve" smooth="yes"/>
      <point x="600" y="383"/>
      <point x="591" y="406"/>
      <point x="573" y="430" type="curve" smooth="yes"/>
      <point x="370" y="697" type="line" smooth="yes"/>
      <point x="349" y="726"/>
      <point x="324" y="740"/>
      <point x="300" y="740" type="curve" smooth="yes"/>
      <point x="276" y="740"/>
      <point x="252" y="726"/>
      <point x="230" y="697" type="curve" smooth="yes"/>
      <point x="27" y="430" type="line" smooth="yes"/>
      <point x="9" y="407"/>
      <point x="0" y="384"/>
      <point x="0" y="360" type="curve" smooth="yes"/>
      <point x="0" y="337"/>
      <point x="9" y="314"/>
      <point x="28" y="290" type="curve" smooth="yes"/>
      <point x="230" y="31" type="line" smooth="yes"/>
      <point x="252" y="3"/>
      <point x="276" y="-11"/>
    </contour>
    <contour>
      <point x="283" y="170" type="line" smooth="yes"/>
      <point x="266" y="170"/>
      <point x="253" y="184"/>
      <point x="253" y="202" type="curve" smooth="yes"/>
      <point x="253" y="220"/>
      <point x="266" y="234"/>
      <point x="283" y="234" type="curve" smooth="yes"/>
      <point x="301" y="234" type="line" smooth="yes"/>
      <point x="319" y="234"/>
      <point x="332" y="220"/>
      <point x="332" y="202" type="curve" smooth="yes"/>
      <point x="332" y="184"/>
      <point x="319" y="170"/>
      <point x="301" y="170" type="curve" smooth="yes"/>
    </contour>
    <contour>
      <point x="264" y="277" type="line"/>
      <point x="264" y="367" type="line"/>
      <point x="297" y="367" type="line" smooth="yes"/>
      <point x="334" y="367"/>
      <point x="358" y="392"/>
      <point x="358" y="430" type="curve" smooth="yes"/>
      <point x="358" y="469"/>
      <point x="334" y="491"/>
      <point x="297" y="491" type="curve" smooth="yes"/>
      <point x="234" y="491" type="line"/>
      <point x="234" y="541" type="line"/>
      <point x="297" y="541" type="line" smooth="yes"/>
      <point x="368" y="541"/>
      <point x="412" y="499"/>
      <point x="412" y="433" type="curve" smooth="yes"/>
      <point x="412" y="373"/>
      <point x="375" y="333"/>
      <point x="317" y="330" type="curve"/>
      <point x="317" y="277" type="line"/>
    </contour>
  </outline>
</glyph>
<glyph name="B.half" format="2">
  <advance width="400"/>
  <outline>
    <contour>
      <point x="58" y="0" type="line"/>
      <point x="255" y="0" type="line" smooth="yes"/>
      <point x="315" y="0"/>
      <point x="356" y="38"/>
      <point x="356" y="93" type="curve" smooth="yes"/>
      <point x="356" y="146"/>
      <point x="314" y="181"/>
      <point x="254" y="179" type="curve"/>
      <point x="254" y="168" type="line"/>
      <point x="304" y="166"/>
      <point x="339" y="199"/>
      <point x="339" y="249" type="curve" smooth="yes"/>
      <point x="339" y="300"/>
      <point x="299" y="335"/>
      <point x="240" y="335" type="curve" smooth="yes"/>
      <point x="58" y="335" type="line"/>
    </contour>
    <contour>
      <point x="104" y="39" type="line"/>
      <point x="104" y="148" type="line"/>
      <point x="252" y="148" type="line" smooth="yes"/>
      <point x="287" y="148"/>
      <point x="311" y="126"/>
      <point x="311" y="94" type="curve" smooth="yes"/>
      <point x="311" y="61"/>
      <point x="287" y="39"/>
      <point x="252" y="39" type="curve" smooth="yes"/>
    </contour>
    <contour>
      <point x="104" y="187" type="line"/>
      <point x="104" y="296" type="line"/>
      <point x="242" y="296" type="line" smooth="yes"/>
      <point x="273" y="296"/>
      <point x="294" y="274"/>
      <point x="294" y="242" type="curve" smooth="yes"/>
      <point x="294" y="209"/>
      <point x="272" y="187"/>
      <point x="241" y="187" type="curve" smooth="yes"/>
    </contour>
  </outline>
</glyph>
<glyph name="C.half" format="2">
  <advance width="400"/>
  <outline>
    <contour>
      <point x="212" y="-5" type="curve" smooth="yes"/>
      <point x="287" y="-5"/>
      <point x="349" y="36"/>
      <point x="363" y="102" type="curve"/>
      <point x="317" y="102" type="line"/>
      <point x="305" y="62"/>
      <point x="267" y="33"/>
      <point x="212" y="33" type="curve" smooth="yes"/>
      <point x="143" y="33"/>
      <point x="92" y="88"/>
      <point x="92" y="167" type="curve" smooth="yes"/>
      <point x="92" y="247"/>
      <point x="143" y="302"/>
      <point x="212" y="302" type="curve" smooth="yes"/>
      <point x="267" y="302"/>
      <point x="305" y="273"/>
      <point x="317" y="233" type="curve"/>
      <point x="363" y="233" type="line"/>
      <point x="349" y="299"/>
      <point x="287" y="340"/>
      <point x="212" y="340" type="curve" smooth="yes"/>
      <point x="114" y="340"/>
      <point x="45" y="270"/>
      <point x="45" y="167" type="curve" smooth="yes"/>
      <point x="45" y="65"/>
      <point x="114" y="-5"/>
    </contour>
  </outline>
</glyph>
<glyph name="D.half" format="2">
  <advance width="400"/>
  <outline>
    <contour>
      <point x="64" y="0" type="line"/>
      <point x="189" y="0" type="line" smooth="yes"/>
      <point x="287" y="0"/>
      <point x="355" y="68"/>
      <point x="355" y="167" type="curve" smooth="yes"/>
      <point x="355" y="267"/>
      <point x="287" y="335"/>
      <point x="189" y="335" type="curve" smooth="yes"/>
      <point x="64" y="335" type="line"/>
    </contour>
    <contour>
      <point x="110" y="38" type="line"/>
      <point x="110" y="297" type="line"/>
      <point x="189" y="297" type="line" smooth="yes"/>
      <point x="258" y="297"/>
      <point x="308" y="244"/>
      <point x="308" y="167" type="curve" smooth="yes"/>
      <point x="308" y="90"/>
      <point x="258" y="38"/>
      <point x="189" y="38" type="curve" smooth="yes"/>
    </contour>
  </outline>
</glyph>
<glyph name="E.half" format="2">
  <advance width="400"/>
  <outline>
    <contour>
      <point x="342" y="38" type="line"/>
      <point x="115" y="38" type="line"/>
      <point x="115" y="149" type="line"/>
      <point x="312" y="149" type="line"/>
      <point x="312" y="186" type="line"/>
      <point x="115" y="186" type="line"/>
      <point x="115" y="297" type="line"/>
      <point x="342" y="297" type="line"/>
      <point x="342" y="335" type="line"/>
      <point x="70" y="335" type="line"/>
      <point x="70" y="0" type="line"/>
      <point x="342" y="0" type="line"/>
    </contour>
  </outline>
</glyph>
<glyph name="F.half" format="2">
  <advance width="400"/>
  <outline>
    <contour>
      <point x="80" y="0" type="line"/>
      <point x="125" y="0" type="line"/>
      <point x="125" y="143" type="line"/>
      <point x="322" y="143" type="line"/>
      <point x="322" y="181" type="line"/>
      <point x="125" y="181" type="line"/>
      <point x="125" y="297" type="line"/>
      <point x="352" y="297" type="line"/>
      <point x="352" y="335" type="line"/>
      <point x="80" y="335" type="line"/>
    </contour>
  </outline>
</glyph>
<glyph name="G.half" format="2">
  <advance width="400"/>
  <outline>
    <contour>
      <point x="39" y="167" type="curve" smooth="yes"/>
      <point x="39" y="65"/>
      <point x="108" y="-5"/>
      <point x="206" y="-5" type="curve" smooth="yes"/>
      <point x="300" y="-5"/>
      <point x="368" y="63"/>
      <point x="368" y="167" type="curve" smooth="yes"/>
      <point x="368" y="181" type="line"/>
      <point x="206" y="181" type="line"/>
      <point x="206" y="143" type="line"/>
      <point x="320" y="143" type="line"/>
      <point x="314" y="76"/>
      <point x="268" y="33"/>
      <point x="206" y="33" type="curve" smooth="yes"/>
      <point x="136" y="33"/>
      <point x="86" y="88"/>
      <point x="86" y="167" type="curve" smooth="yes"/>
      <point x="86" y="247"/>
      <point x="136" y="302"/>
      <point x="206" y="302" type="curve" smooth="yes"/>
      <point x="261" y="302"/>
      <point x="299" y="273"/>
      <point x="311" y="241" type="curve"/>
      <point x="357" y="241" type="line"/>
      <point x="343" y="299"/>
      <point x="281" y="340"/>
      <point x="206" y="340" type="curve" smooth="yes"/>
      <point x="108" y="340"/>
      <point x="39" y="270"/>
    </contour>
  </outline>
</glyph>
<glyph name="H.half" format="2">
  <advance width="400"/>
  <outline>
    <contour>
      <point x="55" y="0" type="line"/>
      <point x="101" y="0" type="line"/>
      <point x="101" y="154" type="line"/>
      <point x="299" y="154" type="line"/>
      <point x="299" y="0" type="line"/>
      <point x="345" y="0" type="line"/>
      <point x="345" y="335" type="line"/>
      <point x="299" y="335" type="line"/>
      <point x="299" y="192" type="line"/>
      <point x="101" y="192" type="line"/>
      <point x="101" y="335" type="line"/>
      <point x="55" y="335" type="line"/>
    </contour>
  </outline>
</glyph>
<glyph name="I.half" format="2">
  <advance width="400"/>
  <outline>
    <contour>
      <point x="52" y="0" type="line"/>
      <point x="348" y="0" type="line"/>
      <point x="348" y="38" type="line"/>
      <point x="223" y="38" type="line"/>
      <point x="223" y="297" type="line"/>
      <point x="348" y="297" type="line"/>
      <point x="348" y="335" type="line"/>
      <point x="52" y="335" type="line"/>
      <point x="52" y="297" type="line"/>
      <point x="177" y="297" type="line"/>
      <point x="177" y="38" type="line"/>
      <point x="52" y="38" type="line"/>
    </contour>
  </outline>
</glyph>
<glyph name="K.half" format="2">
  <advance width="400"/>
  <outline>
    <contour>
      <point x="55" y="0" type="line"/>
      <point x="101" y="0" type="line"/>
      <point x="101" y="153" type="line"/>
      <point x="189" y="153" type="line"/>
      <point x="303" y="0" type="line"/>
      <point x="360" y="0" type="line"/>
      <point x="231" y="174" type="line"/>
      <point x="350" y="335" type="line"/>
      <point x="298" y="335" type="line"/>
      <point x="190" y="191" type="line"/>
      <point x="101" y="191" type="line"/>
      <point x="101" y="335" type="line"/>
      <point x="55" y="335" type="line"/>
    </contour>
  </outline>
</glyph>
<glyph name="L.half" format="2">
  <advance width="400"/>
  <anchor x="580" y="730" name="topright"/>
  <outline>
    <contour>
      <point x="92" y="0" type="line"/>
      <point x="360" y="0" type="line"/>
      <point x="360" y="40" type="line"/>
      <point x="138" y="40" type="line"/>
      <point x="138" y="335" type="line"/>
      <point x="92" y="335" type="line"/>
    </contour>
  </outline>
</glyph>
<glyph name="P.half" format="2">
  <advance width="400"/>
  <outline>
    <contour>
      <point x="65" y="0" type="line"/>
      <point x="111" y="0" type="line"/>
      <point x="111" y="127" type="line"/>
      <point x="246" y="127" type="line" smooth="yes"/>
      <point x="314" y="127"/>
      <point x="360" y="169"/>
      <point x="360" y="230" type="curve" smooth="yes"/>
      <point x="360" y="292"/>
      <point x="314" y="335"/>
      <point x="246" y="335" type="curve" smooth="yes"/>
      <point x="65" y="335" type="line"/>
    </contour>
    <contour>
      <point x="111" y="165" type="line"/>
      <point x="111" y="297" type="line"/>
      <point x="248" y="297" type="line" smooth="yes"/>
      <point x="287" y="297"/>
      <point x="313" y="270"/>
      <point x="313" y="230" type="curve" smooth="yes"/>
      <point x="313" y="191"/>
      <point x="286" y="165"/>
      <point x="247" y="165" type="curve" smooth="yes"/>
    </contour>
  </outline>
</glyph>
<glyph name="Q.half" format="2">
  <advance width="400"/>
  <outline>
    <contour>
      <point x="200" y="-5" type="curve" smooth="yes"/>
      <point x="232" y="-5"/>
      <point x="261" y="2"/>
      <point x="285" y="16" type="curve"/>
      <point x="258" y="48" type="line"/>
      <point x="241" y="38"/>
      <point x="221" y="33"/>
      <point x="200" y="33" type="curve" smooth="yes"/>
      <point x="131" y="33"/>
      <point x="80" y="88"/>
      <point x="80" y="167" type="curve" smooth="yes"/>
      <point x="80" y="246"/>
      <point x="131" y="302"/>
      <point x="200" y="302" type="curve" smooth="yes"/>
      <point x="269" y="302"/>
      <point x="320" y="246"/>
      <point x="320" y="167" type="curve" smooth="yes"/>
      <point x="320" y="137"/>
      <point x="312" y="109"/>
      <point x="304" y="97" type="curve"/>
      <point x="336" y="62" type="line"/>
      <point x="355" y="89"/>
      <point x="367" y="128"/>
      <point x="367" y="167" type="curve" smooth="yes"/>
      <point x="367" y="270"/>
      <point x="298" y="340"/>
      <point x="200" y="340" type="curve" smooth="yes"/>
      <point x="102" y="340"/>
      <point x="33" y="270"/>
      <point x="33" y="167" type="curve" smooth="yes"/>
      <point x="33" y="65"/>
      <point x="102" y="-5"/>
    </contour>
    <contour>
      <point x="332" y="-58" type="line"/>
      <point x="381" y="-58" type="line"/>
      <point x="232" y="125" type="line"/>
      <point x="180" y="125" type="line"/>
    </contour>
  </outline>
</glyph>
<glyph name="R.half" format="2">
  <advance width="400"/>
  <outline>
    <contour>
      <point x="55" y="0" type="line"/>
      <point x="101" y="0" type="line"/>
      <point x="101" y="127" type="line"/>
      <point x="236" y="127" type="line" smooth="yes"/>
      <point x="304" y="127"/>
      <point x="350" y="169"/>
      <point x="350" y="230" type="curve" smooth="yes"/>
      <point x="350" y="292"/>
      <point x="304" y="335"/>
      <point x="236" y="335" type="curve" smooth="yes"/>
      <point x="55" y="335" type="line"/>
    </contour>
    <contour>
      <point x="305" y="0" type="line"/>
      <point x="362" y="0" type="line"/>
      <point x="251" y="141" type="line"/>
      <point x="195" y="141" type="line"/>
    </contour>
    <contour>
      <point x="101" y="165" type="line"/>
      <point x="101" y="297" type="line"/>
      <point x="238" y="297" type="line" smooth="yes"/>
      <point x="277" y="297"/>
      <point x="303" y="270"/>
      <point x="303" y="230" type="curve" smooth="yes"/>
      <point x="303" y="191"/>
      <point x="276" y="165"/>
      <point x="237" y="165" type="curve" smooth="yes"/>
    </contour>
  </outline>
</glyph>
<glyph name="T.half" format="2">
  <advance width="400"/>
  <outline>
    <contour>
      <point x="177" y="0" type="line"/>
      <point x="223" y="0" type="line"/>
      <point x="223" y="297" type="line"/>
      <point x="375" y="297" type="line"/>
      <point x="375" y="335" type="line"/>
      <point x="25" y="335" type="line"/>
      <point x="25" y="297" type="line"/>
      <point x="177" y="297" type="line"/>
    </contour>
  </outline>
</glyph>
<glyph name="U.half" format="2">
  <advance width="400"/>
  <outline>
    <contour>
      <point x="200" y="-10" type="curve" smooth="yes"/>
      <point x="286" y="-10"/>
      <point x="345" y="49"/>
      <point x="345" y="134" type="curve" smooth="yes"/>
      <point x="345" y="335" type="line"/>
      <point x="299" y="335" type="line"/>
      <point x="299" y="134" type="line" smooth="yes"/>
      <point x="299" y="72"/>
      <point x="259" y="30"/>
      <point x="200" y="30" type="curve" smooth="yes"/>
      <point x="141" y="30"/>
      <point x="101" y="72"/>
      <point x="101" y="134" type="curve" smooth="yes"/>
      <point x="101" y="335" type="line"/>
      <point x="55" y="335" type="line"/>
      <point x="55" y="134" type="line" smooth="yes"/>
      <point x="55" y="49"/>
      <point x="114" y="-10"/>
    </contour>
  </outline>
</glyph>
<glyph name="X.half" format="2">
  <advance width="400"/>
  <outline>
    <contour>
      <point x="40" y="0" type="line"/>
      <point x="97" y="0" type="line"/>
      <point x="161" y="88" type="line" smooth="yes"/>
      <point x="177" y="110"/>
      <point x="188" y="126"/>
      <point x="198" y="143" type="curve"/>
      <point x="209" y="126"/>
      <point x="219" y="111"/>
      <point x="238" y="85" type="curve" smooth="yes"/>
      <point x="302" y="0" type="line"/>
      <point x="360" y="0" type="line"/>
      <point x="233" y="168" type="line"/>
      <point x="360" y="335" type="line"/>
      <point x="303" y="335" type="line"/>
      <point x="238" y="247" type="line" smooth="yes"/>
      <point x="222" y="225"/>
      <point x="208" y="207"/>
      <point x="202" y="195" type="curve"/>
      <point x="197" y="205"/>
      <point x="180" y="227"/>
      <point x="163" y="249" type="curve" smooth="yes"/>
      <point x="98" y="335" type="line"/>
      <point x="41" y="335" type="line"/>
      <point x="168" y="169" type="line"/>
    </contour>
  </outline>
</glyph>
<glyph name="_similiar_tilda" format="2">
  <advance width="600"/>
  <outline>
    <contour>
      <point x="85" y="267" type="line"/>
      <point x="130" y="267" type="line"/>
      <point x="130" y="285" type="line" smooth="yes"/>
      <point x="130" y="325"/>
      <point x="155" y="350"/>
      <point x="195" y="350" type="curve" smooth="yes"/>
      <point x="268" y="350"/>
      <point x="319" y="267"/>
      <point x="405" y="267" type="curve" smooth="yes"/>
      <point x="467" y="267"/>
      <point x="515" y="311"/>
      <point x="515" y="377" type="curve" smooth="yes"/>
      <point x="515" y="392" type="line"/>
      <point x="470" y="392" type="line"/>
      <point x="470" y="374" type="line" smooth="yes"/>
      <point x="470" y="334"/>
      <point x="445" y="309"/>
      <point x="405" y="309" type="curve" smooth="yes"/>
      <point x="332" y="309"/>
      <point x="286" y="392"/>
      <point x="195" y="392" type="curve" smooth="yes"/>
      <point x="129" y="392"/>
      <point x="85" y="348"/>
      <point x="85" y="282" type="curve" smooth="yes"/>
    </contour>
  </outline>
</glyph>
<glyph name="ampersand_ampersand.liga" format="2">
  <advance width="600"/>
  <outline>
    <contour>
      <point x="189" y="-10" type="curve" smooth="yes"/>
      <point x="269" y="-10"/>
      <point x="336" y="33"/>
      <point x="386" y="118" type="curve"/>
      <point x="477" y="0" type="line"/>
      <point x="530" y="0" type="line"/>
      <point x="410" y="161" type="line"/>
      <point x="516" y="360" type="line"/>
      <point x="466" y="360" type="line"/>
      <point x="380" y="201" type="line"/>
      <point x="200" y="443" type="line" smooth="yes"/>
      <point x="162" y="494"/>
      <point x="139" y="539"/>
      <point x="139" y="580" type="curve" smooth="yes"/>
      <point x="139" y="641"/>
      <point x="187" y="695"/>
      <point x="254" y="695" type="curve" smooth="yes"/>
      <point x="324" y="695"/>
      <point x="374" y="637"/>
      <point x="374" y="570" type="curve"/>
      <point x="424" y="570" type="line"/>
      <point x="424" y="667"/>
      <point x="357" y="740"/>
      <point x="254" y="740" type="curve" smooth="yes"/>
      <point x="155" y="740"/>
      <point x="89" y="670"/>
      <point x="89" y="580" type="curve" smooth="yes"/>
      <point x="89" y="531"/>
      <point x="109" y="478"/>
      <point x="162" y="411" type="curve"/>
      <point x="166" y="429" type="line"/>
      <point x="83" y="420"/>
      <point x="34" y="360"/>
      <point x="34" y="266" type="curve" smooth="yes"/>
      <point x="34" y="155" type="line" smooth="yes"/>
      <point x="34" y="52"/>
      <point x="93" y="-10"/>
    </contour>
    <contour>
      <point x="-345" y="35" type="curve" smooth="yes"/>
      <point x="-411" y="35"/>
      <point x="-455" y="84"/>
      <point x="-455" y="155" type="curve" smooth="yes"/>
      <point x="-455" y="266" type="line" smooth="yes"/>
      <point x="-455" y="336"/>
      <point x="-417" y="382"/>
      <point x="-357" y="386" type="curve"/>
      <point x="-183" y="158" type="line"/>
      <point x="-227" y="77"/>
      <point x="-284" y="35"/>
    </contour>
    <contour>
      <point x="-350" y="-10" type="curve" smooth="yes"/>
      <point x="-270" y="-10"/>
      <point x="-203" y="33"/>
      <point x="-153" y="118" type="curve"/>
      <point x="-62" y="0" type="line"/>
      <point x="-9" y="0" type="line"/>
      <point x="-339" y="443" type="line" smooth="yes"/>
      <point x="-377" y="494"/>
      <point x="-400" y="539"/>
      <point x="-400" y="580" type="curve" smooth="yes"/>
      <point x="-400" y="641"/>
      <point x="-352" y="695"/>
      <point x="-285" y="695" type="curve" smooth="yes"/>
      <point x="-215" y="695"/>
      <point x="-165" y="637"/>
      <point x="-165" y="570" type="curve"/>
      <point x="-115" y="570" type="line"/>
      <point x="-115" y="667"/>
      <point x="-182" y="740"/>
      <point x="-285" y="740" type="curve" smooth="yes"/>
      <point x="-384" y="740"/>
      <point x="-450" y="670"/>
      <point x="-450" y="580" type="curve" smooth="yes"/>
      <point x="-450" y="531"/>
      <point x="-430" y="478"/>
      <point x="-377" y="411" type="curve"/>
      <point x="-373" y="429" type="line"/>
      <point x="-456" y="420"/>
      <point x="-505" y="360"/>
      <point x="-505" y="266" type="curve" smooth="yes"/>
      <point x="-505" y="155" type="line" smooth="yes"/>
      <point x="-505" y="52"/>
      <point x="-446" y="-10"/>
    </contour>
    <contour>
      <point x="194" y="35" type="curve" smooth="yes"/>
      <point x="129" y="35"/>
      <point x="84" y="84"/>
      <point x="84" y="155" type="curve" smooth="yes"/>
      <point x="84" y="266" type="line" smooth="yes"/>
      <point x="84" y="336"/>
      <point x="122" y="382"/>
      <point x="182" y="386" type="curve"/>
      <point x="356" y="158" type="line"/>
      <point x="312" y="77"/>
      <point x="255" y="35"/>
    </contour>
  </outline>
</glyph>
<glyph name="asciitilde_at.liga" format="2">
  <advance width="600"/>
  <outline>
    <contour>
      <point x="-75" y="260" type="curve" smooth="yes"/>
      <point x="34" y="260"/>
      <point x="98" y="344"/>
      <point x="98" y="454" type="curve"/>
      <point x="68" y="454" type="line"/>
      <point x="68" y="369"/>
      <point x="13" y="302"/>
      <point x="-75" y="302" type="curve" smooth="yes"/>
      <point x="-212" y="302"/>
      <point x="-223" y="445"/>
      <point x="-367" y="445" type="curve" smooth="yes"/>
      <point x="-452" y="445"/>
      <point x="-510" y="390"/>
      <point x="-510" y="310" type="curve" smooth="yes"/>
      <point x="-510" y="260" type="line"/>
      <point x="-465" y="260" type="line"/>
      <point x="-465" y="310" type="line" smooth="yes"/>
      <point x="-465" y="365"/>
      <point x="-425" y="403"/>
      <point x="-367" y="403" type="curve" smooth="yes"/>
      <point x="-254" y="403"/>
      <point x="-237" y="260"/>
    </contour>
    <component base="at"/>
  </outline>
</glyph>
<glyph name="asciitilde_greater.liga" format="2">
  <advance width="600"/>
  <outline>
    <contour>
      <point x="211" y="35" type="line"/>
      <point x="270" y="35" type="line"/>
      <point x="515" y="331" type="line"/>
      <point x="271" y="625" type="line"/>
      <point x="211" y="625" type="line"/>
      <point x="456" y="330" type="line"/>
      <point x="438" y="308" type="line"/>
      <point x="420" y="308" type="line" smooth="yes"/>
      <point x="351" y="308"/>
      <point x="340" y="425"/>
      <point x="230" y="425" type="curve" smooth="yes"/>
      <point x="110" y="425"/>
      <point x="105" y="282"/>
      <point x="20" y="282" type="curve" smooth="yes"/>
      <point x="-65" y="282"/>
      <point x="-75" y="425"/>
      <point x="-190" y="425" type="curve" smooth="yes"/>
      <point x="-305" y="425"/>
      <point x="-311" y="282"/>
      <point x="-400" y="282" type="curve" smooth="yes"/>
      <point x="-441" y="282"/>
      <point x="-465" y="308"/>
      <point x="-465" y="350" type="curve" smooth="yes"/>
      <point x="-465" y="400" type="line"/>
      <point x="-510" y="400" type="line"/>
      <point x="-510" y="350" type="line" smooth="yes"/>
      <point x="-510" y="283"/>
      <point x="-467" y="240"/>
      <point x="-400" y="240" type="curve" smooth="yes"/>
      <point x="-280" y="240"/>
      <point x="-275" y="383"/>
      <point x="-190" y="383" type="curve" smooth="yes"/>
      <point x="-105" y="383"/>
      <point x="-95" y="240"/>
      <point x="20" y="240" type="curve" smooth="yes"/>
      <point x="135" y="240"/>
      <point x="140" y="383"/>
      <point x="230" y="383" type="curve" smooth="yes"/>
      <point x="316" y="383"/>
      <point x="311" y="279"/>
      <point x="405" y="269" type="curve"/>
    </contour>
  </outline>
</glyph>
<glyph name="bar_greater.liga" format="2">
  <advance width="600"/>
  <outline>
    <contour>
      <point x="-305" y="-85" type="line"/>
      <point x="-255" y="-85" type="line"/>
      <point x="340" y="302" type="line"/>
      <point x="340" y="356" type="line"/>
      <point x="-255" y="750" type="line"/>
      <point x="-305" y="750" type="line"/>
    </contour>
    <contour>
      <point x="-255" y="-27" type="line"/>
      <point x="-255" y="690" type="line"/>
      <point x="190" y="398" type="line" smooth="yes"/>
      <point x="236" y="368"/>
      <point x="279" y="341"/>
      <point x="299" y="329" type="curve"/>
      <point x="279" y="318"/>
      <point x="235" y="292"/>
      <point x="190" y="263" type="curve" smooth="yes"/>
    </contour>
  </outline>
</glyph>
<glyph name="braceleft_braceleft_hyphen_hyphen.liga" format="2">
  <advance width="600"/>
  <outline>
    <contour>
      <point x="-960" y="308" type="line"/>
      <point x="505" y="308" type="line"/>
      <point x="505" y="353" type="line"/>
      <point x="-960" y="353" type="line"/>
    </contour>
    <component base="braceleft" xOffset="-1740" yOffset="-30"/>
    <component base="braceleft" xOffset="-1207" yOffset="-30"/>
  </outline>
</glyph>
<glyph name="braceleft_exclam_hyphen_hyphen.liga" format="2">
  <advance width="600"/>
  <outline>
    <contour>
      <point x="-700" y="308" type="line"/>
      <point x="505" y="308" type="line"/>
      <point x="505" y="353" type="line"/>
      <point x="-700" y="353" type="line"/>
    </contour>
    <contour>
      <point x="-1470" y="308" type="line"/>
      <point x="-1100" y="308" type="line"/>
      <point x="-1100" y="353" type="line"/>
      <point x="-1470" y="353" type="line"/>
    </contour>
    <component base="exclam" xOffset="-1200"/>
    <component base="braceleft" xOffset="-1740" yOffset="-30"/>
  </outline>
</glyph>
<glyph name="brevecomb.case" format="2">
  <anchor x="-300" y="730" name="_top"/>
  <anchor x="-300" y="950" name="top"/>
  <outline>
    <contour>
      <point x="-300" y="808" type="curve" smooth="yes"/>
      <point x="-211" y="808"/>
      <point x="-155" y="863"/>
      <point x="-155" y="950" type="curve"/>
      <point x="-200" y="950" type="line"/>
      <point x="-200" y="887"/>
      <point x="-239" y="848"/>
      <point x="-301" y="848" type="curve" smooth="yes"/>
      <point x="-362" y="848"/>
      <point x="-400" y="887"/>
      <point x="-400" y="950" type="curve"/>
      <point x="-445" y="950" type="line"/>
      <point x="-445" y="863"/>
      <point x="-389" y="808"/>
    </contour>
  </outline>
</glyph>
<glyph name="brevecomb_acutecomb.case" format="2">
  <anchor x="-300" y="730" name="_top"/>
  <anchor x="-300" y="1020" name="top"/>
  <outline>
    <contour>
      <point x="-342" y="895" type="line"/>
      <point x="-292" y="895" type="line"/>
      <point x="-182" y="1020" type="line"/>
      <point x="-242" y="1020" type="line"/>
    </contour>
    <contour>
      <point x="-320" y="780" type="curve" smooth="yes"/>
      <point x="-280" y="780" type="line" smooth="yes"/>
      <point x="-202" y="780"/>
      <point x="-150" y="830"/>
      <point x="-150" y="905" type="curve"/>
      <point x="-195" y="905" type="line"/>
      <point x="-195" y="854"/>
      <point x="-229" y="820"/>
      <point x="-280" y="820" type="curve" smooth="yes"/>
      <point x="-320" y="820" type="line" smooth="yes"/>
      <point x="-371" y="820"/>
      <point x="-405" y="854"/>
      <point x="-405" y="905" type="curve"/>
      <point x="-450" y="905" type="line"/>
      <point x="-450" y="830"/>
      <point x="-398" y="780"/>
    </contour>
  </outline>
</glyph>
<glyph name="brevecomb_tildecomb.case" format="2">
  <anchor x="-300" y="730" name="_top"/>
  <anchor x="-300" y="1020" name="top"/>
  <outline>
    <contour>
      <point x="-320" y="780" type="curve" smooth="yes"/>
      <point x="-280" y="780" type="line" smooth="yes"/>
      <point x="-202" y="780"/>
      <point x="-150" y="828"/>
      <point x="-150" y="900" type="curve"/>
      <point x="-195" y="900" type="line"/>
      <point x="-195" y="852"/>
      <point x="-229" y="820"/>
      <point x="-280" y="820" type="curve" smooth="yes"/>
      <point x="-320" y="820" type="line" smooth="yes"/>
      <point x="-371" y="820"/>
      <point x="-405" y="852"/>
      <point x="-405" y="900" type="curve"/>
      <point x="-450" y="900" type="line"/>
      <point x="-450" y="828"/>
      <point x="-398" y="780"/>
    </contour>
    <contour>
      <point x="-225" y="920" type="curve" smooth="yes"/>
      <point x="-179" y="920"/>
      <point x="-150" y="949"/>
      <point x="-150" y="995" type="curve" smooth="yes"/>
      <point x="-150" y="1010" type="line"/>
      <point x="-190" y="1010" type="line"/>
      <point x="-190" y="995" type="line" smooth="yes"/>
      <point x="-190" y="972"/>
      <point x="-204" y="958"/>
      <point x="-225" y="958" type="curve" smooth="yes"/>
      <point x="-275" y="958"/>
      <point x="-295" y="1020"/>
      <point x="-370" y="1020" type="curve" smooth="yes"/>
      <point x="-419" y="1020"/>
      <point x="-450" y="991"/>
      <point x="-450" y="945" type="curve" smooth="yes"/>
      <point x="-450" y="930" type="line"/>
      <point x="-410" y="930" type="line"/>
      <point x="-410" y="945" type="line" smooth="yes"/>
      <point x="-410" y="968"/>
      <point x="-395" y="982"/>
      <point x="-370" y="982" type="curve" smooth="yes"/>
      <point x="-320" y="982"/>
      <point x="-300" y="920"/>
    </contour>
  </outline>
</glyph>
<glyph name="breveinvertedcomb.case" format="2">
  <anchor x="-300" y="730" name="_top"/>
  <anchor x="-300" y="950" name="top"/>
  <outline>
    <contour>
      <point x="-445" y="808" type="curve"/>
      <point x="-400" y="808" type="line"/>
      <point x="-400" y="871"/>
      <point x="-362" y="910"/>
      <point x="-301" y="910" type="curve" smooth="yes"/>
      <point x="-239" y="910"/>
      <point x="-200" y="871"/>
      <point x="-200" y="808" type="curve"/>
      <point x="-155" y="808" type="line"/>
      <point x="-155" y="895"/>
      <point x="-211" y="950"/>
      <point x="-300" y="950" type="curve" smooth="yes"/>
      <point x="-389" y="950"/>
      <point x="-445" y="895"/>
    </contour>
  </outline>
</glyph>
<glyph name="cedillacomb.case" format="2">
  <anchor x="-325" y="0" name="_bottom"/>
  <anchor x="-300" y="-195" name="bottom"/>
  <outline>
    <contour>
      <point x="-390" y="-195" type="line"/>
      <point x="-310" y="-195" type="line" smooth="yes"/>
      <point x="-250" y="-195"/>
      <point x="-210" y="-161"/>
      <point x="-210" y="-118" type="curve" smooth="yes"/>
      <point x="-210" y="-61"/>
      <point x="-273" y="-37"/>
      <point x="-320" y="-34" type="curve"/>
      <point x="-297" y="26" type="line"/>
      <point x="-339" y="26" type="line"/>
      <point x="-374" y="-64" type="line"/>
      <point x="-303" y="-64"/>
      <point x="-256" y="-86"/>
      <point x="-256" y="-118" type="curve" smooth="yes"/>
      <point x="-256" y="-140"/>
      <point x="-278" y="-160"/>
      <point x="-310" y="-160" type="curve" smooth="yes"/>
      <point x="-390" y="-160" type="line"/>
    </contour>
  </outline>
</glyph>
<glyph name="circumflexcomb.case" format="2">
  <anchor x="-300" y="730" name="_top"/>
  <anchor x="-300" y="950" name="top"/>
  <outline>
    <contour>
      <point x="-450" y="810" type="line"/>
      <point x="-399" y="810" type="line"/>
      <point x="-300" y="919" type="line"/>
      <point x="-199" y="810" type="line"/>
      <point x="-150" y="810" type="line"/>
      <point x="-270" y="950" type="line"/>
      <point x="-330" y="950" type="line"/>
    </contour>
  </outline>
</glyph>
<glyph name="circumflexcomb_acutecomb.case" format="2">
  <anchor x="-300" y="730" name="_top"/>
  <anchor x="-240" y="1020" name="top"/>
  <outline>
    <contour>
      <point x="-195" y="895" type="line"/>
      <point x="-145" y="895" type="line"/>
      <point x="-30" y="1020" type="line"/>
      <point x="-90" y="1020" type="line"/>
    </contour>
    <contour>
      <point x="-450" y="780" type="line"/>
      <point x="-399" y="780" type="line"/>
      <point x="-300" y="889" type="line"/>
      <point x="-199" y="780" type="line"/>
      <point x="-150" y="780" type="line"/>
      <point x="-270" y="920" type="line"/>
      <point x="-330" y="920" type="line"/>
    </contour>
  </outline>
</glyph>
<glyph name="circumflexcomb_acutecomb" format="2">
  <anchor x="-300" y="550" name="_top"/>
  <anchor x="-235" y="900" name="top"/>
  <outline>
    <contour>
      <point x="-195" y="760" type="line"/>
      <point x="-145" y="760" type="line"/>
      <point x="-20" y="900" type="line"/>
      <point x="-80" y="900" type="line"/>
    </contour>
    <contour>
      <point x="-450" y="645" type="line"/>
      <point x="-399" y="645" type="line"/>
      <point x="-300" y="754" type="line"/>
      <point x="-199" y="645" type="line"/>
      <point x="-150" y="645" type="line"/>
      <point x="-270" y="785" type="line"/>
      <point x="-330" y="785" type="line"/>
    </contour>
  </outline>
</glyph>
<glyph name="circumflexcomb_gravecomb" format="2">
  <anchor x="-300" y="550" name="_top"/>
  <anchor x="-273" y="900" name="top"/>
  <outline>
    <contour>
      <point x="-145" y="760" type="line"/>
      <point x="-95" y="760" type="line"/>
      <point x="-214" y="900" type="line"/>
      <point x="-274" y="900" type="line"/>
    </contour>
    <contour>
      <point x="-450" y="645" type="line"/>
      <point x="-399" y="645" type="line"/>
      <point x="-300" y="754" type="line"/>
      <point x="-199" y="645" type="line"/>
      <point x="-150" y="645" type="line"/>
      <point x="-270" y="785" type="line"/>
      <point x="-330" y="785" type="line"/>
    </contour>
  </outline>
</glyph>
<glyph name="circumflexcomb_hookabovecomb" format="2">
  <anchor x="-300" y="550" name="_top"/>
  <anchor x="-260" y="926" name="top"/>
  <outline>
    <contour>
      <point x="-178" y="760" type="line"/>
      <point x="-132" y="760" type="line"/>
      <point x="-96" y="807" type="line" smooth="yes"/>
      <point x="-81" y="827"/>
      <point x="-70" y="849"/>
      <point x="-70" y="869" type="curve" smooth="yes"/>
      <point x="-70" y="902"/>
      <point x="-99" y="926"/>
      <point x="-145" y="926" type="curve" smooth="yes"/>
      <point x="-219" y="926" type="line"/>
      <point x="-219" y="891" type="line"/>
      <point x="-145" y="891" type="line" smooth="yes"/>
      <point x="-123" y="891"/>
      <point x="-109" y="880"/>
      <point x="-109" y="865" type="curve" smooth="yes"/>
      <point x="-109" y="854"/>
      <point x="-116" y="840"/>
      <point x="-128" y="825" type="curve" smooth="yes"/>
    </contour>
    <contour>
      <point x="-450" y="645" type="line"/>
      <point x="-399" y="645" type="line"/>
      <point x="-300" y="754" type="line"/>
      <point x="-199" y="645" type="line"/>
      <point x="-150" y="645" type="line"/>
      <point x="-270" y="785" type="line"/>
      <point x="-330" y="785" type="line"/>
    </contour>
  </outline>
</glyph>
<glyph name="circumflexcomb_tildecomb" format="2">
  <anchor x="-300" y="550" name="_top"/>
  <anchor x="-300" y="925" name="top"/>
  <outline>
    <contour>
      <point x="-230" y="815" type="curve" smooth="yes"/>
      <point x="-181" y="815"/>
      <point x="-155" y="843"/>
      <point x="-155" y="895" type="curve" smooth="yes"/>
      <point x="-155" y="920" type="line"/>
      <point x="-195" y="920" type="line"/>
      <point x="-195" y="895" type="line" smooth="yes"/>
      <point x="-195" y="869"/>
      <point x="-207" y="855"/>
      <point x="-230" y="855" type="curve" smooth="yes"/>
      <point x="-280" y="855"/>
      <point x="-290" y="925"/>
      <point x="-365" y="925" type="curve" smooth="yes"/>
      <point x="-417" y="925"/>
      <point x="-445" y="897"/>
      <point x="-445" y="845" type="curve" smooth="yes"/>
      <point x="-445" y="820" type="line"/>
      <point x="-405" y="820" type="line"/>
      <point x="-405" y="845" type="line" smooth="yes"/>
      <point x="-405" y="872"/>
      <point x="-392" y="885"/>
      <point x="-365" y="885" type="curve" smooth="yes"/>
      <point x="-315" y="885"/>
      <point x="-305" y="815"/>
    </contour>
    <contour>
      <point x="-450" y="645" type="line"/>
      <point x="-399" y="645" type="line"/>
      <point x="-300" y="754" type="line"/>
      <point x="-199" y="645" type="line"/>
      <point x="-150" y="645" type="line"/>
      <point x="-270" y="785" type="line"/>
      <point x="-330" y="785" type="line"/>
    </contour>
  </outline>
</glyph>
<glyph name="colon_question_greater.liga" format="2">
  <advance width="600"/>
  <outline>
    <contour>
      <point x="5" y="80" type="line"/>
      <point x="425" y="307" type="line"/>
      <point x="425" y="353" type="line"/>
      <point x="5" y="580" type="line"/>
      <point x="5" y="527" type="line"/>
      <point x="296" y="371" type="line" smooth="yes"/>
      <point x="324" y="356"/>
      <point x="359" y="338"/>
      <point x="378" y="329" type="curve"/>
      <point x="359" y="320"/>
      <point x="324" y="302"/>
      <point x="296" y="287" type="curve" smooth="yes"/>
      <point x="5" y="133" type="line"/>
    </contour>
    <contour>
      <point x="-900" y="-10" type="curve" smooth="yes"/>
      <point x="-890" y="-10" type="line" smooth="yes"/>
      <point x="-848" y="-10"/>
      <point x="-820" y="18"/>
      <point x="-820" y="60" type="curve" smooth="yes"/>
      <point x="-820" y="102"/>
      <point x="-848" y="130"/>
      <point x="-890" y="130" type="curve" smooth="yes"/>
      <point x="-900" y="130" type="line" smooth="yes"/>
      <point x="-943" y="130"/>
      <point x="-971" y="102"/>
      <point x="-971" y="60" type="curve" smooth="yes"/>
      <point x="-971" y="18"/>
      <point x="-943" y="-10"/>
    </contour>
    <contour>
      <point x="-900" y="420" type="curve" smooth="yes"/>
      <point x="-890" y="420" type="line" smooth="yes"/>
      <point x="-848" y="420"/>
      <point x="-820" y="448"/>
      <point x="-820" y="490" type="curve" smooth="yes"/>
      <point x="-820" y="532"/>
      <point x="-848" y="560"/>
      <point x="-890" y="560" type="curve" smooth="yes"/>
      <point x="-900" y="560" type="line" smooth="yes"/>
      <point x="-943" y="560"/>
      <point x="-971" y="532"/>
      <point x="-971" y="490" type="curve" smooth="yes"/>
      <point x="-971" y="448"/>
      <point x="-943" y="420"/>
    </contour>
    <component base="question" xOffset="-709"/>
  </outline>
</glyph>
<glyph name="dblgravecomb.case" format="2">
  <anchor x="-300" y="730" name="_top"/>
  <anchor x="-338" y="950" name="top"/>
  <outline>
    <contour>
      <point x="-335" y="810" type="line"/>
      <point x="-441" y="950" type="line"/>
      <point x="-499" y="950" type="line"/>
      <point x="-387" y="810" type="line"/>
    </contour>
    <contour>
      <point x="-176" y="810" type="line"/>
      <point x="-282" y="950" type="line"/>
      <point x="-340" y="950" type="line"/>
      <point x="-228" y="810" type="line"/>
    </contour>
  </outline>
</glyph>
<glyph name="dieresisbelowcomb.case" format="2">
  <anchor x="-300" y="0" name="_bottom"/>
  <anchor x="-300" y="-205" name="bottom"/>
  <outline>
    <contour>
      <point x="-192" y="-205" type="curve" smooth="yes"/>
      <point x="-161" y="-205"/>
      <point x="-141" y="-183"/>
      <point x="-141" y="-150" type="curve" smooth="yes"/>
      <point x="-141" y="-117"/>
      <point x="-161" y="-95"/>
      <point x="-192" y="-95" type="curve" smooth="yes"/>
      <point x="-224" y="-95"/>
      <point x="-245" y="-117"/>
      <point x="-245" y="-150" type="curve" smooth="yes"/>
      <point x="-245" y="-183"/>
      <point x="-224" y="-205"/>
    </contour>
    <contour>
      <point x="-407" y="-205" type="curve" smooth="yes"/>
      <point x="-376" y="-205"/>
      <point x="-355" y="-183"/>
      <point x="-355" y="-150" type="curve" smooth="yes"/>
      <point x="-355" y="-117"/>
      <point x="-376" y="-95"/>
      <point x="-407" y="-95" type="curve" smooth="yes"/>
      <point x="-438" y="-95"/>
      <point x="-459" y="-117"/>
      <point x="-459" y="-150" type="curve" smooth="yes"/>
      <point x="-459" y="-183"/>
      <point x="-438" y="-205"/>
    </contour>
  </outline>
</glyph>
<glyph name="dollar_greater.liga" format="2">
  <advance width="600"/>
  <outline>
    <contour>
      <point x="-270" y="-140" type="line"/>
      <point x="-230" y="-140" type="line"/>
      <point x="-230" y="-9" type="line"/>
      <point x="-114" y="-2"/>
      <point x="-40" y="69"/>
      <point x="-40" y="177" type="curve" smooth="yes"/>
      <point x="-40" y="275"/>
      <point x="-101" y="354"/>
      <point x="-201" y="385" type="curve" smooth="yes"/>
      <point x="-230" y="394" type="line"/>
      <point x="-230" y="693" type="line"/>
      <point x="-194" y="690"/>
      <point x="-159" y="678"/>
      <point x="-124" y="659" type="curve" smooth="yes"/>
      <point x="376" y="371" type="line" smooth="yes"/>
      <point x="403" y="356"/>
      <point x="439" y="338"/>
      <point x="458" y="329" type="curve"/>
      <point x="439" y="320"/>
      <point x="404" y="302"/>
      <point x="376" y="287" type="curve" smooth="yes"/>
      <point x="90" y="133" type="line"/>
      <point x="90" y="80" type="line"/>
      <point x="505" y="307" type="line"/>
      <point x="505" y="353" type="line"/>
      <point x="-102" y="699" type="line" smooth="yes"/>
      <point x="-142" y="722"/>
      <point x="-187" y="736"/>
      <point x="-230" y="739" type="curve"/>
      <point x="-230" y="870" type="line"/>
      <point x="-270" y="870" type="line"/>
      <point x="-270" y="739" type="line"/>
      <point x="-381" y="732"/>
      <point x="-450" y="664"/>
      <point x="-450" y="559" type="curve" smooth="yes"/>
      <point x="-450" y="464"/>
      <point x="-393" y="392"/>
      <point x="-297" y="363" type="curve" smooth="yes"/>
      <point x="-270" y="355" type="line"/>
      <point x="-270" y="36" type="line"/>
      <point x="-362" y="43"/>
      <point x="-420" y="100"/>
      <point x="-420" y="185" type="curve"/>
      <point x="-470" y="185" type="line"/>
      <point x="-470" y="72"/>
      <point x="-393" y="-2"/>
      <point x="-270" y="-9" type="curve"/>
    </contour>
    <contour>
      <point x="-230" y="36" type="curve"/>
      <point x="-230" y="343" type="line"/>
      <point x="-213" y="338" type="line" smooth="yes"/>
      <point x="-137" y="315"/>
      <point x="-90" y="254"/>
      <point x="-90" y="177" type="curve" smooth="yes"/>
      <point x="-90" y="94"/>
      <point x="-142" y="42"/>
    </contour>
    <contour>
      <point x="-270" y="406" type="line"/>
      <point x="-285" y="411" type="line" smooth="yes"/>
      <point x="-358" y="434"/>
      <point x="-400" y="490"/>
      <point x="-400" y="563" type="curve" smooth="yes"/>
      <point x="-400" y="638"/>
      <point x="-350" y="686"/>
      <point x="-270" y="693" type="curve"/>
    </contour>
  </outline>
</glyph>
<glyph name="dotaccentcomb.case" format="2">
  <anchor x="-300" y="730" name="_top"/>
  <anchor x="-300" y="935" name="top"/>
  <outline>
    <contour>
      <point x="-300" y="825" type="curve" smooth="yes"/>
      <point x="-265" y="825"/>
      <point x="-242" y="847"/>
      <point x="-242" y="880" type="curve" smooth="yes"/>
      <point x="-242" y="913"/>
      <point x="-265" y="935"/>
      <point x="-300" y="935" type="curve" smooth="yes"/>
      <point x="-335" y="935"/>
      <point x="-358" y="913"/>
      <point x="-358" y="880" type="curve" smooth="yes"/>
      <point x="-358" y="847"/>
      <point x="-335" y="825"/>
    </contour>
  </outline>
</glyph>
<glyph name="dotbelowcomb.case" format="2">
  <anchor x="-300" y="0" name="_bottom"/>
  <anchor x="-300" y="-205" name="bottom"/>
  <outline>
    <contour>
      <point x="-300" y="-205" type="curve" smooth="yes"/>
      <point x="-265" y="-205"/>
      <point x="-242" y="-183"/>
      <point x="-242" y="-150" type="curve" smooth="yes"/>
      <point x="-242" y="-117"/>
      <point x="-265" y="-95"/>
      <point x="-300" y="-95" type="curve" smooth="yes"/>
      <point x="-335" y="-95"/>
      <point x="-358" y="-117"/>
      <point x="-358" y="-150" type="curve" smooth="yes"/>
      <point x="-358" y="-183"/>
      <point x="-335" y="-205"/>
    </contour>
  </outline>
</glyph>
